<svg width="26" height="21" viewBox="0 0 26 21" fill="none" xmlns="http://www.w3.org/2000/svg">
<path d="M9.51855 4.0874L4.29785 20H0.0922852L7.22461 0.804688H9.90088L9.51855 4.0874ZM13.856 20L8.62207 4.0874L8.2002 0.804688H10.9028L18.0747 20H13.856ZM13.6187 12.8545V15.9526H3.48047V12.8545H13.6187ZM20.8818 18.1675C20.8818 17.605 21.0751 17.1348 21.4618 16.7568C21.8573 16.3789 22.3803 16.1899 23.0307 16.1899C23.6811 16.1899 24.1996 16.3789 24.5863 16.7568C24.9819 17.1348 25.1796 17.605 25.1796 18.1675C25.1796 18.73 24.9819 19.2002 24.5863 19.5781C24.1996 19.9561 23.6811 20.145 23.0307 20.145C22.3803 20.145 21.8573 19.9561 21.4618 19.5781C21.0751 19.2002 20.8818 18.73 20.8818 18.1675Z" fill="#00600E"/>
</svg>
