<svg width="25" height="24" viewBox="0 0 25 24" fill="none" xmlns="http://www.w3.org/2000/svg">
<path d="M11.1421 17.1523L16.3364 21.2656L13.8447 23.4277L8.72949 19.3145L11.1421 17.1523ZM16.4683 9.9541V10.8638C16.4683 12.3228 16.2705 13.6323 15.875 14.7925C15.4883 15.9526 14.9302 16.9414 14.2007 17.7588C13.4712 18.5674 12.6099 19.187 11.6167 19.6177C10.6235 20.0483 9.52051 20.2637 8.30762 20.2637C7.10352 20.2637 6.00049 20.0483 4.99854 19.6177C3.99658 19.187 3.13086 18.5674 2.40137 17.7588C1.67188 16.9414 1.10498 15.9526 0.700684 14.7925C0.305176 13.6323 0.107422 12.3228 0.107422 10.8638V9.9541C0.107422 8.48633 0.305176 7.17676 0.700684 6.02539C1.10498 4.86523 1.66748 3.87646 2.38818 3.05908C3.10889 2.2417 3.97021 1.61768 4.97217 1.18701C5.97412 0.756348 7.07715 0.541016 8.28125 0.541016C9.49414 0.541016 10.5972 0.756348 11.5903 1.18701C12.5923 1.61768 13.458 2.2417 14.1875 3.05908C14.917 3.87646 15.4795 4.86523 15.875 6.02539C16.2705 7.17676 16.4683 8.48633 16.4683 9.9541ZM12.4736 10.8638V9.92773C12.4736 8.9082 12.377 8.01172 12.1836 7.23828C11.999 6.46484 11.7266 5.81445 11.3662 5.28711C11.0146 4.75977 10.5796 4.36426 10.061 4.10059C9.54248 3.82812 8.94922 3.69189 8.28125 3.69189C7.61328 3.69189 7.02002 3.82812 6.50146 4.10059C5.98291 4.36426 5.54785 4.75977 5.19629 5.28711C4.84473 5.81445 4.57666 6.46484 4.39209 7.23828C4.20752 8.01172 4.11523 8.9082 4.11523 9.92773V10.8638C4.11523 11.8745 4.20752 12.771 4.39209 13.5532C4.57666 14.3267 4.84473 14.9814 5.19629 15.5176C5.55664 16.0449 5.99609 16.4448 6.51465 16.7173C7.04199 16.9897 7.63965 17.126 8.30762 17.126C8.97559 17.126 9.56445 16.9897 10.0742 16.7173C10.5928 16.4448 11.0278 16.0449 11.3794 15.5176C11.7397 14.9814 12.0122 14.3267 12.1968 13.5532C12.3813 12.771 12.4736 11.8745 12.4736 10.8638ZM20.3564 18.1675C20.3564 17.605 20.5497 17.1348 20.9364 16.7568C21.332 16.3789 21.8549 16.1899 22.5053 16.1899C23.1557 16.1899 23.6742 16.3789 24.061 16.7568C24.4565 17.1348 24.6542 17.605 24.6542 18.1675C24.6542 18.73 24.4565 19.2002 24.061 19.5781C23.6742 19.9561 23.1557 20.145 22.5053 20.145C21.8549 20.145 21.332 19.9561 20.9364 19.5781C20.5497 19.2002 20.3564 18.73 20.3564 18.1675Z" fill="#EB6A00"/>
</svg>
