<svg width="63" height="66" viewBox="0 0 63 66" fill="none" xmlns="http://www.w3.org/2000/svg">
<path d="M13.209 1V5.20628" stroke="#EB6A00" stroke-width="2" stroke-linecap="round" stroke-linejoin="round"/>
<path d="M25.918 1V5.20628" stroke="#EB6A00" stroke-width="2" stroke-linecap="round" stroke-linejoin="round"/>
<path d="M54.5038 37.7672C58.1141 37.7616 61.0363 34.8423 61.0306 31.2469C61.0249 27.6515 58.0936 24.7414 54.4833 24.7471C50.873 24.7527 47.9509 27.672 47.9565 31.2674C47.9622 34.8628 50.8935 37.7729 54.5038 37.7672Z" stroke="#EB6A00" stroke-width="2" stroke-linecap="round" stroke-linejoin="round"/>
<path d="M25.918 3.02881H29.8312C32.7233 3.02881 35.0713 5.36976 35.0713 8.25322V18.2041" stroke="#EB6A00" stroke-width="2" stroke-linecap="round" stroke-linejoin="round"/>
<path d="M3.62402 18.2115V8.26055C3.62402 5.37709 5.97199 3.03613 8.87154 3.03613H12.7774" stroke="#EB6A00" stroke-width="2" stroke-linecap="round" stroke-linejoin="round"/>
<path d="M19.4404 53.0435V53.2368C19.4404 59.1969 24.2929 64.0274 30.2709 64.0274C36.2563 64.0274 41.1013 59.1969 41.1013 53.2368V38.2993C41.1013 34.5314 44.1649 31.4771 47.944 31.4771" stroke="#EB6A00" stroke-width="2" stroke-linecap="round" stroke-linejoin="round"/>
<path d="M32.4553 19.9504V27.3003C32.4553 33.7212 27.2301 38.9233 20.79 38.9233H17.8979C11.4578 38.9233 6.23261 33.7212 6.23261 27.3003V19.9504C6.23261 19.0289 5.48722 18.2858 4.56294 18.2858H2.66966C1.74539 18.2858 1 19.0289 1 19.9504V27.3003C1 36.1662 7.91718 43.4417 16.6531 44.0734V50.9179C16.6531 51.8394 17.3985 52.5826 18.3228 52.5826H20.5366C21.4608 52.5826 22.2062 51.8394 22.2062 50.9179V44.0585C30.8527 43.3377 37.673 36.0993 37.673 27.2928V19.943C37.673 19.0215 36.9276 18.2783 36.0033 18.2783H34.11C33.1858 18.2783 32.4404 19.0215 32.4404 19.943L32.4553 19.9504Z" stroke="#EB6A00" stroke-width="2" stroke-linecap="round" stroke-linejoin="round"/>
</svg>
