<svg width="64" height="42" viewBox="0 0 64 42" fill="none" xmlns="http://www.w3.org/2000/svg">
<path d="M52.4587 10.916C58.1573 10.916 62.7769 8.69619 62.7769 5.95798C62.7769 3.21976 58.1573 1 52.4587 1C46.7602 1 42.1406 3.21976 42.1406 5.95798C42.1406 8.69619 46.7602 10.916 52.4587 10.916Z" stroke="#EB6A00" stroke-width="2" stroke-linecap="round" stroke-linejoin="round"/>
<path d="M62.7769 13.1851C62.7769 15.9222 58.161 18.143 52.4587 18.143C46.7565 18.143 42.1406 15.9222 42.1406 13.1851" stroke="#EB6A00" stroke-width="2" stroke-linecap="round" stroke-linejoin="round"/>
<path d="M62.7769 20.4116C62.7769 23.1487 58.161 25.3696 52.4587 25.3696C46.7565 25.3696 42.1406 23.1487 42.1406 20.4116" stroke="#EB6A00" stroke-width="2" stroke-linecap="round" stroke-linejoin="round"/>
<path d="M62.7769 27.6387C62.7769 30.3758 58.161 32.5966 52.4587 32.5966C46.7565 32.5966 42.1406 30.3758 42.1406 27.6387" stroke="#EB6A00" stroke-width="2" stroke-linecap="round" stroke-linejoin="round"/>
<path d="M62.7769 6.79248V34.8657C62.7769 37.6028 58.161 39.8237 52.4587 39.8237C46.7565 39.8237 42.1406 37.6028 42.1406 34.8657V6.79248" stroke="#EB6A00" stroke-width="2" stroke-linecap="round" stroke-linejoin="round"/>
<path d="M31.8875 25.6879C37.586 25.6879 42.2056 23.4682 42.2056 20.7299C42.2056 17.9917 37.586 15.772 31.8875 15.772C26.1889 15.772 21.5693 17.9917 21.5693 20.7299C21.5693 23.4682 26.1889 25.6879 31.8875 25.6879Z" stroke="#EB6A00" stroke-width="2" stroke-linecap="round" stroke-linejoin="round"/>
<path d="M42.2056 27.957C42.2056 30.6941 37.5897 32.915 31.8875 32.915C26.1852 32.915 21.5693 30.6941 21.5693 27.957" stroke="#EB6A00" stroke-width="2" stroke-linecap="round" stroke-linejoin="round"/>
<path d="M42.2056 35.1779C42.2056 37.915 37.5897 40.1359 31.8875 40.1359C26.1852 40.1359 21.5693 37.915 21.5693 35.1779V20.7241" stroke="#EB6A00" stroke-width="2" stroke-linecap="round" stroke-linejoin="round"/>
<path d="M11.324 33.7729C17.0225 33.7729 21.6421 31.5531 21.6421 28.8149C21.6421 26.0767 17.0225 23.8569 11.324 23.8569C5.62544 23.8569 1.00586 26.0767 1.00586 28.8149C1.00586 31.5531 5.62544 33.7729 11.324 33.7729Z" stroke="#EB6A00" stroke-width="2" stroke-linecap="round" stroke-linejoin="round"/>
<path d="M21.6362 36.0418C21.6362 38.7789 17.0204 40.9998 11.3181 40.9998C5.61584 40.9998 1 38.7789 1 36.0418V28.8149" stroke="#EB6A00" stroke-width="2" stroke-linecap="round" stroke-linejoin="round"/>
</svg>
