<svg width="142" height="104" viewBox="0 0 142 104" fill="none" xmlns="http://www.w3.org/2000/svg">
<g clip-path="url(#clip0_3021_22624)">
<path d="M116.42 82.5277L108.145 102.546L102.557 95.6861L93.7656 96.5783L103.013 74.209" stroke="#00600E" stroke-width="3" stroke-linejoin="round"/>
<path d="M131.298 74.209L140.545 96.5783L131.753 95.6861L126.167 102.546L117.891 82.5277" stroke="#00600E" stroke-width="3" stroke-linejoin="round"/>
<path d="M119.272 39.2347L120.933 40.7715C121.686 41.4682 122.734 41.7499 123.735 41.5241L125.941 41.0252C127.527 40.6671 129.123 41.5896 129.606 43.1446L130.279 45.3077C130.584 46.2886 131.351 47.0581 132.33 47.3628L134.489 48.0365C136.042 48.5209 136.963 50.1183 136.604 51.7085L136.106 53.919C135.881 54.9216 136.161 55.9716 136.857 56.7267L138.391 58.3909C139.494 59.5878 139.494 61.4329 138.391 62.631L136.857 64.2952C136.162 65.0502 135.881 66.1002 136.106 67.1029L136.604 69.3133C136.962 70.9023 136.041 72.501 134.489 72.9853L132.33 73.659C131.351 73.9649 130.583 74.7333 130.279 75.7141L129.606 77.8772C129.123 79.4334 127.529 80.356 125.941 79.9967L123.735 79.4978C122.734 79.272 121.686 79.5524 120.933 80.2504L119.272 81.7871C118.077 82.8918 116.236 82.8918 115.04 81.7871L113.379 80.2504C112.625 79.5536 111.577 79.272 110.577 79.4978L108.37 79.9967C106.785 80.3548 105.189 79.4322 104.706 77.8772L104.033 75.7141C103.728 74.7333 102.961 73.9637 101.982 73.659L99.823 72.9853C98.2698 72.501 97.349 70.9035 97.7077 69.3133L98.2056 67.1029C98.4309 66.1002 98.1511 65.0502 97.4544 64.2952L95.9206 62.631C94.8181 61.4341 94.8181 59.589 95.9206 58.3909L97.4544 56.7267C98.1499 55.9716 98.4309 54.9216 98.2056 53.919L97.7077 51.7085C97.3502 50.1195 98.271 48.5209 99.823 48.0365L101.982 47.3628C102.961 47.0569 103.729 46.2886 104.033 45.3077L104.706 43.1446C105.189 41.5884 106.783 40.6659 108.37 41.0252L110.577 41.5241C111.577 41.7499 112.625 41.4695 113.379 40.7715L115.04 39.2347C116.235 38.1301 118.076 38.1301 119.272 39.2347Z" stroke="#00600E" stroke-width="3" stroke-linejoin="round"/>
<path d="M117.157 72.8311C123.948 72.8311 129.454 67.3149 129.454 60.5103C129.454 53.7057 123.948 48.1895 117.157 48.1895C110.365 48.1895 104.859 53.7057 104.859 60.5103C104.859 67.3149 110.365 72.8311 117.157 72.8311Z" stroke="#00600E" stroke-width="3" stroke-miterlimit="10"/>
<path d="M98.4359 85.2776H1.45312V1.45703H124.788V41.2843" stroke="#00600E" stroke-width="3" stroke-linejoin="round"/>
<path d="M101.598 77.6312H17.3244C17.3244 73.0731 13.6353 69.3768 9.08594 69.3768V17.3598C13.6353 17.3598 17.3244 13.6636 17.3244 9.10547H108.917C108.917 13.6636 112.605 17.3598 117.155 17.3598V38.4048" stroke="#00600E" stroke-width="3" stroke-linejoin="round"/>
<path d="M32.3672 21.6406H93.8748" stroke="#00600E" stroke-width="3" stroke-linecap="round" stroke-linejoin="round"/>
<path d="M24.2715 35.4785H101.97" stroke="#00600E" stroke-width="3" stroke-linecap="round" stroke-linejoin="round"/>
<path d="M98.1356 49.3164H24.2715" stroke="#00600E" stroke-width="3" stroke-linecap="round" stroke-linejoin="round"/>
<path d="M96.4011 63.1543H24.2695" stroke="#00600E" stroke-width="3" stroke-linecap="round" stroke-linejoin="round"/>
</g>
<defs>
<clipPath id="clip0_3021_22624">
<rect width="142" height="104" fill="white"/>
</clipPath>
</defs>
</svg>
