<svg width="57" height="60" viewBox="0 0 57 60" fill="none" xmlns="http://www.w3.org/2000/svg">
<path d="M29.8236 5.09525L28.4967 6.63985L27.1698 5.09525C22.7061 -0.0965124 14.7654 -0.395906 9.92067 4.44883C6.27351 8.09599 5.38894 13.7096 7.81811 18.255C13.8536 29.5639 28.5035 38.464 28.5035 38.464C28.5035 38.464 43.1534 29.5639 49.1889 18.255C51.6181 13.7028 50.7335 8.09599 47.0863 4.44883C42.2348 -0.395906 34.294 -0.0965124 29.8236 5.09525Z" stroke="#EB6A00" stroke-width="2" stroke-linecap="round" stroke-linejoin="round"/>
<path d="M12.0235 16.0162C10.6082 13.3625 11.1253 9.99434 13.2891 7.82373" stroke="#EB6A00" stroke-width="2" stroke-linecap="round" stroke-linejoin="round"/>
<path d="M28.4971 58.1422V38.4707" stroke="#EB6A00" stroke-width="2" stroke-linecap="round" stroke-linejoin="round"/>
<path d="M40.2885 36.6743C34.3074 39.7635 32.1572 49.2557 32.1572 49.2557C34.6272 50.1879 42.1529 52.1067 47.3174 49.6027C53.8701 46.425 55.9999 37.3139 55.9999 37.3139C55.9999 37.3139 46.7595 33.3265 40.2885 36.6675V36.6743Z" stroke="#EB6A00" stroke-width="2" stroke-linecap="round" stroke-linejoin="round"/>
<path d="M16.7114 36.6743C22.6924 39.7635 24.8426 49.2557 24.8426 49.2557C22.3726 50.1879 14.847 52.1067 9.68242 49.6027C3.12978 46.425 1 37.3139 1 37.3139C1 37.3139 10.2404 33.3265 16.7114 36.6675V36.6743Z" stroke="#EB6A00" stroke-width="2" stroke-linecap="round" stroke-linejoin="round"/>
</svg>
