<svg width="1008" height="49" viewBox="0 0 1008 49" fill="none" xmlns="http://www.w3.org/2000/svg">
<path d="M0.835651 12.144H10.1317V15.168H4.16765V30.036H0.835651V12.144ZM25.9237 15.588C25.2143 16.764 24.281 17.9587 23.1237 19.172C21.9663 20.3853 20.669 21.5427 19.2317 22.644C17.813 23.7267 16.3197 24.6787 14.7517 25.5C14.621 25.22 14.4343 24.912 14.1917 24.576C13.949 24.24 13.697 23.904 13.4357 23.568C13.1743 23.232 12.9223 22.952 12.6797 22.728C14.341 21.9253 15.8997 20.936 17.3557 19.76C18.8303 18.584 20.137 17.3333 21.2757 16.008C22.4143 14.664 23.3103 13.376 23.9637 12.144H27.5757C28.3037 13.32 29.1157 14.4307 30.0117 15.476C30.9263 16.5213 31.8877 17.4827 32.8957 18.36C33.9223 19.2187 34.9957 19.984 36.1157 20.656C37.2357 21.328 38.365 21.888 39.5037 22.336C39.0743 22.7653 38.673 23.26 38.2997 23.82C37.9263 24.3613 37.5903 24.8933 37.2917 25.416C35.7983 24.6507 34.3237 23.736 32.8677 22.672C31.4117 21.608 30.077 20.4693 28.8637 19.256C27.669 18.024 26.689 16.8013 25.9237 15.588ZM29.0317 22.476H32.5317V38.492H29.0317V22.476ZM19.3717 22.616H22.8437V26.088C22.8437 27.0773 22.7783 28.1227 22.6477 29.224C22.5357 30.3067 22.2743 31.3987 21.8637 32.5C21.4717 33.6013 20.865 34.6653 20.0437 35.692C19.241 36.7187 18.149 37.6613 16.7677 38.52C16.5623 38.2773 16.2917 37.9973 15.9557 37.68C15.6383 37.3813 15.3023 37.0827 14.9477 36.784C14.593 36.504 14.2663 36.28 13.9677 36.112C15.181 35.384 16.1517 34.6 16.8797 33.76C17.6077 32.92 18.149 32.0613 18.5037 31.184C18.8583 30.288 19.0917 29.4013 19.2037 28.524C19.3157 27.6467 19.3717 26.8067 19.3717 26.004V22.616ZM52.0197 29.644H64.9837V32.024H52.0197V29.644ZM64.1997 29.644H64.7877L65.3197 29.504L67.2237 30.484C66.5703 31.716 65.7117 32.7893 64.6477 33.704C63.6023 34.6187 62.417 35.3933 61.0917 36.028C59.7663 36.6627 58.3383 37.1853 56.8077 37.596C55.277 38.0067 53.681 38.3333 52.0197 38.576C51.889 38.2027 51.693 37.764 51.4317 37.26C51.189 36.756 50.937 36.3547 50.6757 36.056C52.169 35.9067 53.6157 35.6827 55.0157 35.384C56.4157 35.0667 57.713 34.6653 58.9077 34.18C60.121 33.6947 61.1757 33.1067 62.0717 32.416C62.9863 31.7253 63.6957 30.932 64.1997 30.036V29.644ZM56.6677 31.716C57.3957 32.444 58.357 33.0973 59.5517 33.676C60.7463 34.236 62.109 34.7027 63.6397 35.076C65.1703 35.4307 66.7757 35.692 68.4557 35.86C68.1197 36.1587 67.765 36.5693 67.3917 37.092C67.037 37.6333 66.757 38.1 66.5517 38.492C64.7783 38.2493 63.0983 37.876 61.5117 37.372C59.9437 36.868 58.5157 36.2333 57.2277 35.468C55.9583 34.684 54.8663 33.7787 53.9517 32.752L56.6677 31.716ZM51.6557 13.628H67.9237V16.008H51.6557V13.628ZM54.7917 21.636H66.5797V23.316H54.7917V21.636ZM54.7917 24.156H66.5797V25.808H54.7917V24.156ZM55.1557 12.172H58.1517V17.352H55.1557V12.172ZM59.1597 19.704H62.0717V28.272H59.1597V19.704ZM61.3997 12.172H64.3957V17.352H61.3997V12.172ZM54.2317 16.708L56.8637 17.38C56.3783 18.5747 55.753 19.7413 54.9877 20.88C54.2223 22.0187 53.429 22.9707 52.6077 23.736C52.477 23.5867 52.281 23.4 52.0197 23.176C51.7583 22.952 51.4877 22.7373 51.2077 22.532C50.9277 22.308 50.685 22.1307 50.4797 22C51.2637 21.3467 51.9823 20.5533 52.6357 19.62C53.3077 18.668 53.8397 17.6973 54.2317 16.708ZM59.9717 16.82L63.0237 17.296C62.7437 17.856 62.4637 18.3787 62.1837 18.864C61.9037 19.3307 61.6517 19.7413 61.4277 20.096L58.8517 19.62C59.057 19.1907 59.2623 18.724 59.4677 18.22C59.6917 17.6973 59.8597 17.2307 59.9717 16.82ZM67.1677 18.752V20.824H56.3317V26.704H67.8397V28.776H53.4197V18.752H67.1677ZM43.1437 20.796H50.5917V23.344H43.1437V20.796ZM43.3397 13.096H50.5357V15.616H43.3397V13.096ZM43.1437 24.632H50.5917V27.152H43.1437V24.632ZM41.9957 16.848H51.3197V19.508H41.9957V16.848ZM44.6837 28.496H50.5637V36.98H44.6837V34.348H47.8757V31.128H44.6837V28.496ZM43.0597 28.496H45.6917V38.128H43.0597V28.496ZM86.8237 16.82C86.637 18.2387 86.3943 19.7507 86.0956 21.356C85.797 22.9613 85.3957 24.5853 84.8917 26.228C84.3503 28.1133 83.7157 29.7373 82.9877 31.1C82.2597 32.4627 81.457 33.5173 80.5797 34.264C79.721 34.992 78.7783 35.356 77.7517 35.356C76.725 35.356 75.773 35.0107 74.8957 34.32C74.037 33.6107 73.3463 32.64 72.8237 31.408C72.3197 30.176 72.0677 28.776 72.0677 27.208C72.0677 25.584 72.3943 24.0533 73.0477 22.616C73.701 21.1787 74.6063 19.9093 75.7637 18.808C76.9397 17.688 78.3023 16.8107 79.8517 16.176C81.4197 15.5413 83.109 15.224 84.9197 15.224C86.6557 15.224 88.2143 15.504 89.5957 16.064C90.9957 16.624 92.1903 17.3987 93.1797 18.388C94.169 19.3773 94.925 20.5347 95.4477 21.86C95.9703 23.1853 96.2317 24.6133 96.2317 26.144C96.2317 28.104 95.8303 29.8587 95.0277 31.408C94.225 32.9573 93.0303 34.236 91.4437 35.244C89.8757 36.252 87.9157 36.9427 85.5637 37.316L83.4637 33.984C84.005 33.928 84.481 33.8627 84.8917 33.788C85.3023 33.7133 85.6943 33.6293 86.0677 33.536C86.9637 33.312 87.7943 32.9947 88.5597 32.584C89.3437 32.1547 90.025 31.632 90.6037 31.016C91.1823 30.3813 91.6303 29.644 91.9477 28.804C92.2837 27.964 92.4517 27.04 92.4517 26.032C92.4517 24.9307 92.2837 23.9227 91.9477 23.008C91.6117 22.0933 91.117 21.3 90.4637 20.628C89.8103 19.9373 89.017 19.4147 88.0837 19.06C87.1503 18.6867 86.077 18.5 84.8637 18.5C83.3703 18.5 82.0543 18.7707 80.9157 19.312C79.777 19.8347 78.8157 20.516 78.0317 21.356C77.2477 22.196 76.6503 23.1013 76.2397 24.072C75.8477 25.0427 75.6517 25.9667 75.6517 26.844C75.6517 27.7773 75.7637 28.5613 75.9877 29.196C76.2117 29.812 76.4823 30.2787 76.7997 30.596C77.1357 30.8947 77.4903 31.044 77.8637 31.044C78.2557 31.044 78.6383 30.848 79.0117 30.456C79.4037 30.0453 79.7863 29.4293 80.1597 28.608C80.533 27.7867 80.9063 26.7507 81.2797 25.5C81.709 24.156 82.073 22.7187 82.3717 21.188C82.6703 19.6573 82.885 18.164 83.0157 16.708L86.8237 16.82ZM105.5 15.644C106.526 15.756 107.684 15.84 108.972 15.896C110.26 15.952 111.641 15.98 113.116 15.98C114.03 15.98 114.973 15.9613 115.944 15.924C116.933 15.8867 117.885 15.84 118.8 15.784C119.714 15.728 120.526 15.6627 121.236 15.588V19.312C120.582 19.368 119.789 19.424 118.856 19.48C117.941 19.536 116.98 19.5827 115.972 19.62C114.982 19.6387 114.04 19.648 113.144 19.648C111.688 19.648 110.334 19.62 109.084 19.564C107.833 19.508 106.638 19.4333 105.5 19.34V15.644ZM107.852 27.516C107.721 28.0013 107.609 28.4773 107.516 28.944C107.422 29.4107 107.376 29.8773 107.376 30.344C107.376 31.24 107.824 31.9773 108.72 32.556C109.634 33.1347 111.1 33.424 113.116 33.424C114.385 33.424 115.608 33.3773 116.784 33.284C117.96 33.1907 119.07 33.06 120.116 32.892C121.18 32.724 122.122 32.528 122.944 32.304L122.972 36.252C122.15 36.4387 121.236 36.5973 120.228 36.728C119.22 36.8773 118.128 36.9893 116.952 37.064C115.794 37.1573 114.562 37.204 113.256 37.204C111.128 37.204 109.345 36.9707 107.908 36.504C106.47 36.0373 105.397 35.3653 104.688 34.488C103.978 33.592 103.624 32.5 103.624 31.212C103.624 30.3907 103.689 29.644 103.82 28.972C103.95 28.3 104.072 27.7027 104.184 27.18L107.852 27.516ZM151.84 19.676C151.429 19.9373 150.99 20.1893 150.524 20.432C150.076 20.6747 149.59 20.9267 149.068 21.188C148.638 21.412 148.106 21.6733 147.472 21.972C146.856 22.2707 146.184 22.6067 145.456 22.98C144.746 23.3347 144.028 23.7173 143.3 24.128C142.572 24.52 141.89 24.9213 141.256 25.332C140.098 26.0973 139.156 26.8907 138.428 27.712C137.718 28.5333 137.364 29.4387 137.364 30.428C137.364 31.4173 137.849 32.1827 138.82 32.724C139.79 33.2467 141.246 33.508 143.188 33.508C144.158 33.508 145.185 33.4707 146.268 33.396C147.369 33.3027 148.452 33.1813 149.516 33.032C150.58 32.864 151.522 32.6773 152.344 32.472L152.288 36.504C151.504 36.6347 150.645 36.756 149.712 36.868C148.797 36.98 147.798 37.064 146.716 37.12C145.652 37.176 144.513 37.204 143.3 37.204C141.9 37.204 140.602 37.092 139.408 36.868C138.232 36.6627 137.196 36.3173 136.3 35.832C135.422 35.3467 134.732 34.6933 134.228 33.872C133.742 33.0507 133.5 32.0427 133.5 30.848C133.5 29.6533 133.761 28.5707 134.284 27.6C134.806 26.6293 135.516 25.7333 136.412 24.912C137.326 24.0907 138.325 23.316 139.408 22.588C140.08 22.14 140.789 21.7107 141.536 21.3C142.282 20.8707 143.01 20.46 143.72 20.068C144.448 19.676 145.12 19.3213 145.736 19.004C146.37 18.668 146.893 18.3787 147.304 18.136C147.845 17.8187 148.321 17.5293 148.732 17.268C149.142 17.0067 149.534 16.7267 149.908 16.428L151.84 19.676ZM137.756 13.684C138.222 14.916 138.708 16.1013 139.212 17.24C139.734 18.3787 140.248 19.4427 140.752 20.432C141.274 21.4213 141.75 22.308 142.18 23.092L139.016 24.968C138.512 24.1093 137.989 23.148 137.448 22.084C136.906 21.02 136.365 19.9 135.824 18.724C135.282 17.5293 134.76 16.3253 134.256 15.112L137.756 13.684ZM163.655 37.932C163.095 37.2227 162.469 36.504 161.779 35.776C161.088 35.048 160.388 34.3387 159.679 33.648C158.969 32.9387 158.288 32.304 157.635 31.744L160.547 29.224C161.219 29.7653 161.937 30.4093 162.703 31.156C163.468 31.884 164.196 32.6213 164.887 33.368C165.596 34.1147 166.184 34.7773 166.651 35.356L163.655 37.932ZM207.307 20.516C206.859 20.7773 206.401 21.0293 205.935 21.272C205.487 21.496 205.011 21.7387 204.507 22C203.928 22.28 203.256 22.616 202.491 23.008C201.744 23.3813 200.951 23.8013 200.111 24.268C199.271 24.716 198.421 25.2107 197.563 25.752C196.405 26.5173 195.463 27.3107 194.735 28.132C194.025 28.9533 193.671 29.8587 193.671 30.848C193.671 31.8373 194.156 32.6027 195.127 33.144C196.097 33.6667 197.563 33.928 199.523 33.928C200.475 33.928 201.501 33.8907 202.603 33.816C203.704 33.7227 204.777 33.6013 205.823 33.452C206.887 33.284 207.829 33.1067 208.651 32.92L208.595 36.924C207.811 37.0733 206.952 37.204 206.019 37.316C205.104 37.428 204.115 37.512 203.051 37.568C201.987 37.624 200.839 37.652 199.607 37.652C198.225 37.652 196.937 37.54 195.743 37.316C194.548 37.092 193.503 36.7373 192.607 36.252C191.729 35.7667 191.039 35.1133 190.535 34.292C190.049 33.4707 189.807 32.4533 189.807 31.24C189.807 30.064 190.068 28.9907 190.591 28.02C191.113 27.0493 191.823 26.1533 192.719 25.332C193.615 24.5107 194.613 23.736 195.715 23.008C196.611 22.4293 197.497 21.8973 198.375 21.412C199.271 20.908 200.111 20.4507 200.895 20.04C201.697 19.6107 202.379 19.228 202.939 18.892C203.461 18.5933 203.928 18.3133 204.339 18.052C204.768 17.7907 205.16 17.5107 205.515 17.212L207.307 20.516ZM194.091 14.104C194.539 15.336 195.015 16.5307 195.519 17.688C196.041 18.8267 196.555 19.8907 197.059 20.88C197.581 21.8693 198.057 22.7467 198.487 23.512L195.323 25.388C194.819 24.5293 194.296 23.568 193.755 22.504C193.213 21.44 192.672 20.32 192.131 19.144C191.608 17.9493 191.085 16.7453 190.563 15.532L194.091 14.104ZM207.615 13.684C207.857 14.02 208.119 14.4213 208.399 14.888C208.679 15.3547 208.94 15.8213 209.183 16.288C209.444 16.7547 209.668 17.1653 209.855 17.52L207.587 18.472C207.307 17.8933 206.961 17.24 206.551 16.512C206.159 15.7653 205.776 15.1213 205.403 14.58L207.615 13.684ZM210.947 12.396C211.189 12.7507 211.451 13.1707 211.731 13.656C212.011 14.1227 212.281 14.5893 212.543 15.056C212.823 15.504 213.047 15.896 213.215 16.232L210.975 17.184C210.695 16.5867 210.34 15.924 209.911 15.196C209.5 14.468 209.099 13.8427 208.707 13.32L210.947 12.396ZM220.011 15.644C221.038 15.756 222.195 15.84 223.483 15.896C224.771 15.952 226.152 15.98 227.627 15.98C228.542 15.98 229.484 15.9613 230.455 15.924C231.444 15.8867 232.396 15.84 233.311 15.784C234.226 15.728 235.038 15.6627 235.747 15.588V19.312C235.094 19.368 234.3 19.424 233.367 19.48C232.452 19.536 231.491 19.5827 230.483 19.62C229.494 19.6387 228.551 19.648 227.655 19.648C226.199 19.648 224.846 19.62 223.595 19.564C222.344 19.508 221.15 19.4333 220.011 19.34V15.644ZM222.363 27.516C222.232 28.0013 222.12 28.4773 222.027 28.944C221.934 29.4107 221.887 29.8773 221.887 30.344C221.887 31.24 222.335 31.9773 223.231 32.556C224.146 33.1347 225.611 33.424 227.627 33.424C228.896 33.424 230.119 33.3773 231.295 33.284C232.471 33.1907 233.582 33.06 234.627 32.892C235.691 32.724 236.634 32.528 237.455 32.304L237.483 36.252C236.662 36.4387 235.747 36.5973 234.739 36.728C233.731 36.8773 232.639 36.9893 231.463 37.064C230.306 37.1573 229.074 37.204 227.767 37.204C225.639 37.204 223.856 36.9707 222.419 36.504C220.982 36.0373 219.908 35.3653 219.199 34.488C218.49 33.592 218.135 32.5 218.135 31.212C218.135 30.3907 218.2 29.644 218.331 28.972C218.462 28.3 218.583 27.7027 218.695 27.18L222.363 27.516ZM255.571 16.428C256.43 16.54 257.391 16.624 258.455 16.68C259.538 16.7173 260.63 16.736 261.731 16.736C262.851 16.7173 263.924 16.68 264.951 16.624C265.978 16.5493 266.864 16.4747 267.611 16.4V20.012C266.752 20.0867 265.81 20.152 264.783 20.208C263.756 20.2453 262.702 20.264 261.619 20.264C260.536 20.264 259.472 20.2453 258.427 20.208C257.4 20.152 256.448 20.0867 255.571 20.012V16.428ZM257.811 28.384C257.699 28.8507 257.615 29.2707 257.559 29.644C257.503 29.9987 257.475 30.3627 257.475 30.736C257.475 31.0347 257.55 31.3147 257.699 31.576C257.848 31.8187 258.072 32.0333 258.371 32.22C258.688 32.388 259.09 32.5187 259.575 32.612C260.079 32.6867 260.686 32.724 261.395 32.724C262.646 32.724 263.822 32.668 264.923 32.556C266.024 32.4253 267.191 32.2387 268.423 31.996L268.479 35.776C267.583 35.944 266.547 36.0747 265.371 36.168C264.214 36.2613 262.842 36.308 261.255 36.308C258.847 36.308 257.055 35.9067 255.879 35.104C254.703 34.2827 254.115 33.1533 254.115 31.716C254.115 31.1747 254.152 30.6147 254.227 30.036C254.32 29.4387 254.442 28.7853 254.591 28.076L257.811 28.384ZM251.259 14.552C251.184 14.7387 251.1 15 251.007 15.336C250.914 15.672 250.82 15.9987 250.727 16.316C250.652 16.6333 250.596 16.876 250.559 17.044C250.503 17.436 250.41 17.9493 250.279 18.584C250.167 19.2 250.046 19.9 249.915 20.684C249.803 21.4493 249.691 22.2333 249.579 23.036C249.467 23.8387 249.374 24.6133 249.299 25.36C249.243 26.1067 249.215 26.76 249.215 27.32C249.215 27.5813 249.215 27.88 249.215 28.216C249.234 28.552 249.271 28.86 249.327 29.14C249.458 28.8227 249.598 28.5053 249.747 28.188C249.896 27.8707 250.046 27.5533 250.195 27.236C250.344 26.9 250.475 26.5827 250.587 26.284L252.323 27.656C252.062 28.4213 251.791 29.2427 251.511 30.12C251.25 30.9973 251.007 31.828 250.783 32.612C250.578 33.3773 250.419 34.012 250.307 34.516C250.27 34.7213 250.232 34.9547 250.195 35.216C250.176 35.4773 250.167 35.6827 250.167 35.832C250.167 35.9813 250.167 36.1587 250.167 36.364C250.186 36.588 250.204 36.7933 250.223 36.98L246.975 37.204C246.695 36.2333 246.443 34.9453 246.219 33.34C245.995 31.716 245.883 29.952 245.883 28.048C245.883 27.0027 245.93 25.9387 246.023 24.856C246.116 23.7733 246.228 22.7373 246.359 21.748C246.49 20.74 246.611 19.8253 246.723 19.004C246.854 18.1827 246.966 17.5013 247.059 16.96C247.096 16.568 247.143 16.1293 247.199 15.644C247.274 15.14 247.32 14.664 247.339 14.216L251.259 14.552ZM286.763 20.348H296.787V23.4H286.763V20.348ZM286.763 26.984H296.787V30.008H286.763V26.984ZM286.763 33.592H296.787V36.644H286.763V33.592ZM285.167 13.712H298.355V38.1H294.995V16.904H288.387V38.268H285.167V13.712ZM273.407 17.996H284.159V21.16H273.407V17.996ZM277.439 12.2H280.659V38.492H277.439V12.2ZM277.271 20.152L279.259 20.852C279.035 21.9907 278.755 23.1667 278.419 24.38C278.083 25.5747 277.7 26.7507 277.271 27.908C276.842 29.0467 276.375 30.12 275.871 31.128C275.367 32.1173 274.835 32.9667 274.275 33.676C274.126 33.2093 273.892 32.6773 273.575 32.08C273.258 31.464 272.959 30.9507 272.679 30.54C273.183 29.924 273.668 29.2053 274.135 28.384C274.602 27.5627 275.031 26.6947 275.423 25.78C275.834 24.8467 276.198 23.904 276.515 22.952C276.832 21.9813 277.084 21.048 277.271 20.152ZM280.435 22.616C280.64 22.8027 280.939 23.1293 281.331 23.596C281.723 24.044 282.134 24.5387 282.563 25.08C283.011 25.6213 283.422 26.1253 283.795 26.592C284.187 27.04 284.458 27.3573 284.607 27.544L282.675 30.26C282.47 29.8493 282.208 29.364 281.891 28.804C281.574 28.244 281.228 27.6747 280.855 27.096C280.482 26.5173 280.118 25.9667 279.763 25.444C279.427 24.9213 279.138 24.4827 278.895 24.128L280.435 22.616ZM318.683 20.068L320.755 17.856C321.558 18.304 322.435 18.8173 323.387 19.396C324.358 19.9747 325.282 20.5627 326.159 21.16C327.055 21.7387 327.783 22.2613 328.343 22.728L326.103 25.276C325.599 24.772 324.918 24.212 324.059 23.596C323.2 22.98 322.295 22.364 321.343 21.748C320.391 21.132 319.504 20.572 318.683 20.068ZM320.615 24.1H322.295V28.356C322.295 28.7293 322.351 29.1587 322.463 29.644C322.575 30.1293 322.762 30.652 323.023 31.212C323.303 31.7533 323.686 32.2947 324.171 32.836C324.656 33.3587 325.263 33.872 325.991 34.376C326.719 34.8613 327.587 35.3 328.595 35.692C328.315 36.084 327.979 36.56 327.587 37.12C327.195 37.68 326.887 38.156 326.663 38.548C325.786 38.212 324.992 37.7827 324.283 37.26C323.592 36.7373 322.995 36.1867 322.491 35.608C321.987 35.0107 321.576 34.432 321.259 33.872C320.942 33.2933 320.718 32.7893 320.587 32.36C320.438 32.7893 320.186 33.284 319.831 33.844C319.495 34.404 319.047 34.9827 318.487 35.58C317.927 36.1587 317.264 36.7 316.499 37.204C315.752 37.7267 314.894 38.1747 313.923 38.548C313.792 38.2867 313.615 37.9787 313.391 37.624C313.186 37.288 312.962 36.952 312.719 36.616C312.476 36.2987 312.252 36.028 312.047 35.804C313.13 35.4307 314.054 34.992 314.819 34.488C315.603 33.984 316.256 33.4613 316.779 32.92C317.302 32.36 317.712 31.8093 318.011 31.268C318.328 30.708 318.543 30.176 318.655 29.672C318.786 29.168 318.851 28.7293 318.851 28.356V24.1H320.615ZM319.103 12.2H322.407C322.332 13.88 322.183 15.4107 321.959 16.792C321.754 18.1733 321.38 19.4147 320.839 20.516C320.316 21.5987 319.542 22.5507 318.515 23.372C317.507 24.1933 316.154 24.9027 314.455 25.5C314.306 25.0893 314.044 24.6227 313.671 24.1C313.298 23.5587 312.934 23.1387 312.579 22.84C314.054 22.392 315.211 21.8507 316.051 21.216C316.891 20.5627 317.516 19.8067 317.927 18.948C318.356 18.0707 318.646 17.0813 318.795 15.98C318.944 14.86 319.047 13.6 319.103 12.2ZM314.987 13.88L317.731 14.412C317.6 15.364 317.348 16.316 316.975 17.268C316.602 18.22 316.107 19.0133 315.491 19.648L312.887 18.5C313.391 17.996 313.83 17.3147 314.203 16.456C314.576 15.5973 314.838 14.7387 314.987 13.88ZM314.651 26.032L317.591 26.62C317.404 27.7027 317.087 28.7667 316.639 29.812C316.21 30.8387 315.65 31.6973 314.959 32.388L312.215 30.988C312.812 30.4653 313.316 29.7467 313.727 28.832C314.156 27.9173 314.464 26.984 314.651 26.032ZM324.871 13.684L328.091 14.692C327.624 15.532 327.148 16.3627 326.663 17.184C326.196 17.9867 325.767 18.6773 325.375 19.256L322.855 18.304C323.098 17.8933 323.35 17.4173 323.611 16.876C323.872 16.3347 324.115 15.784 324.339 15.224C324.563 14.664 324.74 14.1507 324.871 13.684ZM325.039 25.836L328.343 26.872C327.839 27.7307 327.326 28.5987 326.803 29.476C326.299 30.3533 325.823 31.0907 325.375 31.688L322.771 30.736C323.051 30.288 323.331 29.784 323.611 29.224C323.891 28.6453 324.152 28.0573 324.395 27.46C324.656 26.8627 324.871 26.3213 325.039 25.836ZM303.423 20.796H311.879V23.344H303.423V20.796ZM303.535 13.096H311.823V15.616H303.535V13.096ZM303.423 24.632H311.879V27.152H303.423V24.632ZM302.107 16.848H312.803V19.508H302.107V16.848ZM304.879 28.496H311.935V37.036H304.879V34.376H309.051V31.156H304.879V28.496ZM303.367 28.496H306.195V38.128H303.367V28.496ZM340.775 13.796C340.7 14.3747 340.626 15 340.551 15.672C340.495 16.344 340.448 16.96 340.411 17.52C340.392 18.2853 340.355 19.2187 340.299 20.32C340.262 21.4027 340.224 22.5413 340.187 23.736C340.168 24.9307 340.14 26.1067 340.103 27.264C340.084 28.4213 340.075 29.4293 340.075 30.288C340.075 31.2213 340.243 31.968 340.579 32.528C340.934 33.0693 341.4 33.4613 341.979 33.704C342.558 33.928 343.211 34.04 343.939 34.04C345.096 34.04 346.151 33.8907 347.103 33.592C348.055 33.2747 348.923 32.8547 349.707 32.332C350.491 31.8093 351.191 31.2027 351.807 30.512C352.442 29.8213 353.011 29.0933 353.515 28.328L356.063 31.408C355.615 32.08 355.027 32.7893 354.299 33.536C353.571 34.2827 352.703 34.9827 351.695 35.636C350.706 36.2893 349.558 36.8213 348.251 37.232C346.944 37.6427 345.498 37.848 343.911 37.848C342.38 37.848 341.046 37.6053 339.907 37.12C338.787 36.6533 337.91 35.9253 337.275 34.936C336.659 33.928 336.351 32.6307 336.351 31.044C336.351 30.2787 336.36 29.4107 336.379 28.44C336.398 27.4507 336.426 26.424 336.463 25.36C336.5 24.296 336.528 23.26 336.547 22.252C336.566 21.2253 336.584 20.3013 336.603 19.48C336.622 18.6587 336.631 18.0053 336.631 17.52C336.631 16.848 336.603 16.1947 336.547 15.56C336.491 14.9067 336.398 14.3 336.267 13.74L340.775 13.796ZM372.779 13.656C372.667 14.0293 372.555 14.4867 372.443 15.028C372.331 15.5693 372.247 15.9893 372.191 16.288C372.06 16.9227 371.892 17.6973 371.687 18.612C371.5 19.5267 371.286 20.4973 371.043 21.524C370.819 22.5507 370.586 23.5307 370.343 24.464C370.1 25.4533 369.802 26.5267 369.447 27.684C369.092 28.8227 368.71 29.9893 368.299 31.184C367.907 32.36 367.506 33.4893 367.095 34.572C366.684 35.636 366.283 36.588 365.891 37.428L361.999 36.112C362.41 35.4027 362.848 34.544 363.315 33.536C363.782 32.5093 364.23 31.408 364.659 30.232C365.107 29.056 365.518 27.8893 365.891 26.732C366.264 25.5747 366.582 24.5013 366.843 23.512C367.03 22.8587 367.207 22.1867 367.375 21.496C367.543 20.8053 367.692 20.1333 367.823 19.48C367.954 18.8267 368.066 18.22 368.159 17.66C368.271 17.0813 368.355 16.5773 368.411 16.148C368.467 15.6253 368.504 15.1027 368.523 14.58C368.542 14.0573 368.532 13.6373 368.495 13.32L372.779 13.656ZM365.639 17.828C366.778 17.828 367.963 17.772 369.195 17.66C370.427 17.548 371.668 17.3893 372.919 17.184C374.17 16.9787 375.411 16.736 376.643 16.456V19.956C375.486 20.2173 374.254 20.4413 372.947 20.628C371.64 20.8147 370.352 20.964 369.083 21.076C367.814 21.1693 366.647 21.216 365.583 21.216C364.911 21.216 364.304 21.2067 363.763 21.188C363.222 21.1507 362.699 21.1227 362.195 21.104L362.111 17.604C362.839 17.6787 363.464 17.7347 363.987 17.772C364.51 17.8093 365.06 17.828 365.639 17.828ZM374.431 22.112C375.215 22.0373 376.083 21.972 377.035 21.916C377.987 21.86 378.911 21.832 379.807 21.832C380.61 21.832 381.422 21.8507 382.243 21.888C383.083 21.9253 383.914 21.9907 384.735 22.084L384.651 25.444C383.96 25.3507 383.195 25.276 382.355 25.22C381.534 25.1453 380.694 25.108 379.835 25.108C378.883 25.108 377.959 25.136 377.063 25.192C376.186 25.2293 375.308 25.304 374.431 25.416V22.112ZM375.943 29.168C375.831 29.56 375.738 29.9707 375.663 30.4C375.588 30.8107 375.551 31.1747 375.551 31.492C375.551 31.7907 375.616 32.0707 375.747 32.332C375.878 32.5933 376.083 32.8267 376.363 33.032C376.643 33.2187 377.026 33.368 377.511 33.48C378.015 33.592 378.64 33.648 379.387 33.648C380.339 33.648 381.291 33.6013 382.243 33.508C383.214 33.396 384.203 33.2467 385.211 33.06L385.071 36.644C384.287 36.7373 383.419 36.8213 382.467 36.896C381.515 36.9893 380.479 37.036 379.359 37.036C377.007 37.036 375.206 36.6533 373.955 35.888C372.723 35.104 372.107 34.0027 372.107 32.584C372.107 31.9493 372.163 31.3053 372.275 30.652C372.387 29.9987 372.499 29.392 372.611 28.832L375.943 29.168ZM397.979 13.46C398.651 13.6653 399.491 13.88 400.499 14.104C401.507 14.328 402.562 14.552 403.663 14.776C404.764 14.9813 405.8 15.1587 406.771 15.308C407.76 15.4573 408.563 15.5693 409.179 15.644L408.339 19.06C407.779 18.9853 407.098 18.8827 406.295 18.752C405.511 18.6027 404.671 18.444 403.775 18.276C402.898 18.108 402.03 17.94 401.171 17.772C400.312 17.5853 399.528 17.408 398.819 17.24C398.11 17.072 397.531 16.932 397.083 16.82L397.979 13.46ZM398.147 19.088C398.054 19.4613 397.951 19.9467 397.839 20.544C397.746 21.1227 397.652 21.7293 397.559 22.364C397.466 22.9987 397.372 23.6053 397.279 24.184C397.204 24.7627 397.139 25.248 397.083 25.64C398.352 24.7253 399.678 24.0533 401.059 23.624C402.459 23.1947 403.887 22.98 405.343 22.98C406.986 22.98 408.386 23.2787 409.543 23.876C410.7 24.4733 411.578 25.2573 412.175 26.228C412.791 27.1987 413.099 28.2533 413.099 29.392C413.099 30.6613 412.828 31.8373 412.287 32.92C411.746 34.0027 410.859 34.9267 409.627 35.692C408.395 36.4573 406.78 36.9987 404.783 37.316C402.786 37.6333 400.331 37.6707 397.419 37.428L396.355 33.76C399.155 34.1333 401.507 34.1893 403.411 33.928C405.315 33.648 406.752 33.1067 407.723 32.304C408.712 31.4827 409.207 30.484 409.207 29.308C409.207 28.692 409.03 28.1507 408.675 27.684C408.32 27.1987 407.826 26.8253 407.191 26.564C406.556 26.284 405.838 26.144 405.035 26.144C403.467 26.144 401.992 26.4333 400.611 27.012C399.248 27.572 398.128 28.384 397.251 29.448C397.008 29.7467 396.803 30.0267 396.635 30.288C396.486 30.5307 396.346 30.792 396.215 31.072L392.995 30.26C393.107 29.7187 393.219 29.084 393.331 28.356C393.443 27.6093 393.555 26.816 393.667 25.976C393.779 25.1173 393.882 24.2587 393.975 23.4C394.068 22.5413 394.152 21.692 394.227 20.852C394.302 20.012 394.358 19.2467 394.395 18.556L398.147 19.088ZM425.027 15.98C424.952 16.316 424.887 16.6987 424.831 17.128C424.794 17.5573 424.756 17.9773 424.719 18.388C424.7 18.7987 424.691 19.1347 424.691 19.396C424.672 20.012 424.663 20.6467 424.663 21.3C424.682 21.9533 424.7 22.6253 424.719 23.316C424.756 23.988 424.803 24.66 424.859 25.332C424.99 26.676 425.176 27.8613 425.419 28.888C425.662 29.9147 425.979 30.7173 426.371 31.296C426.763 31.856 427.258 32.136 427.855 32.136C428.172 32.136 428.48 31.9587 428.779 31.604C429.096 31.2493 429.376 30.792 429.619 30.232C429.88 29.6533 430.104 29.0467 430.291 28.412C430.496 27.7773 430.674 27.18 430.823 26.62L433.623 30.036C433.007 31.66 432.391 32.9573 431.775 33.928C431.178 34.88 430.552 35.5707 429.899 36C429.246 36.4107 428.536 36.616 427.771 36.616C426.763 36.616 425.802 36.28 424.887 35.608C423.991 34.936 423.226 33.8533 422.591 32.36C421.956 30.848 421.508 28.8413 421.247 26.34C421.154 25.4813 421.079 24.576 421.023 23.624C420.986 22.672 420.958 21.7667 420.939 20.908C420.939 20.0493 420.939 19.34 420.939 18.78C420.939 18.388 420.92 17.9213 420.883 17.38C420.846 16.8387 420.79 16.3533 420.715 15.924L425.027 15.98ZM439.027 16.624C439.55 17.2587 440.054 18.0333 440.539 18.948C441.024 19.8627 441.472 20.8427 441.883 21.888C442.294 22.9333 442.658 24.0067 442.975 25.108C443.292 26.1907 443.544 27.2547 443.731 28.3C443.936 29.3267 444.067 30.2693 444.123 31.128L440.427 32.556C440.334 31.4173 440.166 30.176 439.923 28.832C439.68 27.488 439.354 26.1347 438.943 24.772C438.532 23.4093 438.038 22.1213 437.459 20.908C436.899 19.6947 436.236 18.6493 435.471 17.772L439.027 16.624ZM454.147 15.98C454.072 16.316 454.007 16.6987 453.951 17.128C453.914 17.5573 453.876 17.9773 453.839 18.388C453.82 18.7987 453.811 19.1347 453.811 19.396C453.792 20.012 453.783 20.6467 453.783 21.3C453.802 21.9533 453.82 22.6253 453.839 23.316C453.876 23.988 453.923 24.66 453.979 25.332C454.11 26.676 454.296 27.8613 454.539 28.888C454.782 29.9147 455.099 30.7173 455.491 31.296C455.883 31.856 456.378 32.136 456.975 32.136C457.292 32.136 457.6 31.9587 457.899 31.604C458.216 31.2493 458.496 30.792 458.739 30.232C459 29.6533 459.224 29.0467 459.411 28.412C459.616 27.7773 459.794 27.18 459.943 26.62L462.743 30.036C462.127 31.66 461.511 32.9573 460.895 33.928C460.298 34.88 459.672 35.5707 459.019 36C458.366 36.4107 457.656 36.616 456.891 36.616C455.883 36.616 454.922 36.28 454.007 35.608C453.111 34.936 452.346 33.8533 451.711 32.36C451.076 30.848 450.628 28.8413 450.367 26.34C450.274 25.4813 450.199 24.576 450.143 23.624C450.106 22.672 450.078 21.7667 450.059 20.908C450.059 20.0493 450.059 19.34 450.059 18.78C450.059 18.388 450.04 17.9213 450.003 17.38C449.966 16.8387 449.91 16.3533 449.835 15.924L454.147 15.98ZM468.147 16.624C468.67 17.2587 469.174 18.0333 469.659 18.948C470.144 19.8627 470.592 20.8427 471.003 21.888C471.414 22.9333 471.778 24.0067 472.095 25.108C472.412 26.1907 472.664 27.2547 472.851 28.3C473.056 29.3267 473.187 30.2693 473.243 31.128L469.547 32.556C469.454 31.4173 469.286 30.176 469.043 28.832C468.8 27.488 468.474 26.1347 468.063 24.772C467.652 23.4093 467.158 22.1213 466.579 20.908C466.019 19.6947 465.356 18.6493 464.591 17.772L468.147 16.624ZM488.923 13.88C488.83 14.2347 488.736 14.6267 488.643 15.056C488.568 15.4667 488.494 15.8493 488.419 16.204C488.344 16.6147 488.251 17.0813 488.139 17.604C488.027 18.108 487.915 18.6213 487.803 19.144C487.71 19.648 487.607 20.1427 487.495 20.628C487.308 21.4307 487.075 22.364 486.795 23.428C486.515 24.492 486.188 25.64 485.815 26.872C485.442 28.0853 485.022 29.308 484.555 30.54C484.088 31.772 483.594 32.976 483.071 34.152C482.548 35.3093 481.988 36.3547 481.391 37.288L477.751 35.832C478.404 34.9547 479.011 33.9747 479.571 32.892C480.15 31.7907 480.672 30.6613 481.139 29.504C481.606 28.3467 482.016 27.208 482.371 26.088C482.744 24.968 483.062 23.9227 483.323 22.952C483.584 21.9813 483.79 21.1507 483.939 20.46C484.2 19.1907 484.406 17.968 484.555 16.792C484.704 15.616 484.77 14.5053 484.751 13.46L488.923 13.88ZM498.555 16.512C499.003 17.1093 499.46 17.8653 499.927 18.78C500.412 19.676 500.879 20.628 501.327 21.636C501.794 22.644 502.214 23.6147 502.587 24.548C502.979 25.4813 503.278 26.2747 503.483 26.928L499.927 28.58C499.74 27.796 499.479 26.928 499.143 25.976C498.826 25.0053 498.452 24.0253 498.023 23.036C497.612 22.028 497.164 21.076 496.679 20.18C496.212 19.284 495.727 18.5373 495.223 17.94L498.555 16.512ZM477.555 19.62C478.059 19.6573 478.554 19.676 479.039 19.676C479.524 19.6573 480.028 19.6387 480.551 19.62C480.999 19.6013 481.55 19.5733 482.203 19.536C482.875 19.48 483.575 19.424 484.303 19.368C485.05 19.312 485.796 19.256 486.543 19.2C487.29 19.1253 487.98 19.0693 488.615 19.032C489.25 18.9947 489.772 18.976 490.183 18.976C491.172 18.976 492.04 19.144 492.787 19.48C493.552 19.7973 494.15 20.348 494.579 21.132C495.027 21.916 495.251 22.98 495.251 24.324C495.251 25.4253 495.195 26.62 495.083 27.908C494.99 29.196 494.831 30.428 494.607 31.604C494.383 32.78 494.066 33.7787 493.655 34.6C493.207 35.5707 492.591 36.2427 491.807 36.616C491.042 36.9893 490.127 37.176 489.063 37.176C488.522 37.176 487.943 37.1293 487.327 37.036C486.73 36.9613 486.188 36.8773 485.703 36.784L485.087 33.088C485.46 33.1813 485.862 33.2747 486.291 33.368C486.739 33.4613 487.159 33.536 487.551 33.592C487.962 33.648 488.288 33.676 488.531 33.676C488.998 33.676 489.408 33.592 489.763 33.424C490.118 33.2373 490.407 32.92 490.631 32.472C490.892 31.9307 491.098 31.2307 491.247 30.372C491.415 29.5133 491.536 28.5893 491.611 27.6C491.704 26.592 491.751 25.6307 491.751 24.716C491.751 23.9693 491.648 23.4187 491.443 23.064C491.238 22.7093 490.93 22.476 490.519 22.364C490.127 22.2333 489.632 22.168 489.035 22.168C488.624 22.168 488.046 22.2053 487.299 22.28C486.571 22.336 485.796 22.4107 484.975 22.504C484.154 22.5787 483.379 22.6627 482.651 22.756C481.942 22.8493 481.391 22.9147 480.999 22.952C480.607 23.0267 480.094 23.1107 479.459 23.204C478.843 23.2787 478.32 23.3533 477.891 23.428L477.555 19.62ZM519.415 33.368C520.647 33.1813 521.776 32.9107 522.803 32.556C523.83 32.2013 524.716 31.744 525.463 31.184C526.228 30.624 526.816 29.9427 527.227 29.14C527.638 28.3187 527.843 27.3573 527.843 26.256C527.843 25.7147 527.74 25.192 527.535 24.688C527.33 24.184 527.022 23.736 526.611 23.344C526.219 22.9333 525.743 22.616 525.183 22.392C524.623 22.168 523.988 22.056 523.279 22.056C521.506 22.056 519.854 22.5227 518.323 23.456C516.792 24.3707 515.346 25.556 513.983 27.012V23.036C515.663 21.468 517.352 20.3667 519.051 19.732C520.768 19.0973 522.374 18.78 523.867 18.78C525.304 18.78 526.602 19.0973 527.759 19.732C528.935 20.3667 529.868 21.2533 530.559 22.392C531.25 23.5307 531.595 24.8467 531.595 26.34C531.595 27.7587 531.371 29.0373 530.923 30.176C530.475 31.3147 529.812 32.3133 528.935 33.172C528.058 34.0307 526.966 34.7587 525.659 35.356C524.352 35.9347 522.831 36.4013 521.095 36.756L519.415 33.368ZM513.059 21.216C512.76 21.2347 512.378 21.2813 511.911 21.356C511.444 21.412 510.94 21.4773 510.399 21.552C509.876 21.608 509.344 21.6733 508.803 21.748C508.262 21.8227 507.758 21.888 507.291 21.944L506.927 18.36C507.338 18.3787 507.72 18.388 508.075 18.388C508.448 18.3693 508.878 18.3507 509.363 18.332C509.811 18.2947 510.343 18.248 510.959 18.192C511.594 18.1173 512.228 18.0333 512.863 17.94C513.516 17.8467 514.123 17.744 514.683 17.632C515.243 17.52 515.682 17.408 515.999 17.296L517.119 18.724C516.951 18.948 516.755 19.228 516.531 19.564C516.326 19.9 516.111 20.2453 515.887 20.6C515.663 20.936 515.467 21.2347 515.299 21.496L513.647 26.76C513.348 27.1893 512.975 27.7307 512.527 28.384C512.098 29.0373 511.64 29.728 511.155 30.456C510.67 31.184 510.194 31.884 509.727 32.556C509.26 33.228 508.84 33.816 508.467 34.32L506.255 31.268C506.61 30.82 507.02 30.3067 507.487 29.728C507.954 29.1307 508.43 28.5053 508.915 27.852C509.419 27.18 509.914 26.5173 510.399 25.864C510.884 25.192 511.332 24.5667 511.743 23.988C512.172 23.3907 512.527 22.8773 512.807 22.448L512.863 21.72L513.059 21.216ZM512.723 15.812C512.723 15.4013 512.723 14.9907 512.723 14.58C512.723 14.1507 512.686 13.7213 512.611 13.292L516.699 13.432C516.606 13.8613 516.494 14.4867 516.363 15.308C516.232 16.1107 516.102 17.0347 515.971 18.08C515.859 19.1253 515.747 20.2267 515.635 21.384C515.542 22.5227 515.458 23.6613 515.383 24.8C515.327 25.9387 515.299 27.0027 515.299 27.992C515.299 28.7573 515.299 29.532 515.299 30.316C515.318 31.1 515.336 31.9027 515.355 32.724C515.374 33.5453 515.411 34.3947 515.467 35.272C515.486 35.5147 515.514 35.8507 515.551 36.28C515.588 36.728 515.626 37.1107 515.663 37.428H511.799C511.836 37.1107 511.855 36.7373 511.855 36.308C511.874 35.8973 511.883 35.58 511.883 35.356C511.902 34.4413 511.92 33.592 511.939 32.808C511.958 32.024 511.967 31.1933 511.967 30.316C511.986 29.4387 512.014 28.4213 512.051 27.264C512.07 26.8347 512.098 26.2933 512.135 25.64C512.172 24.968 512.21 24.24 512.247 23.456C512.303 22.6533 512.359 21.8413 512.415 21.02C512.471 20.1987 512.518 19.4333 512.555 18.724C512.611 17.996 512.648 17.38 512.667 16.876C512.704 16.3533 512.723 15.9987 512.723 15.812ZM547.163 13.88C547.07 14.2347 546.976 14.6267 546.883 15.056C546.808 15.4667 546.734 15.8493 546.659 16.204C546.584 16.6147 546.491 17.0813 546.379 17.604C546.267 18.108 546.155 18.6213 546.043 19.144C545.95 19.648 545.847 20.1427 545.735 20.628C545.548 21.4307 545.315 22.364 545.035 23.428C544.755 24.492 544.428 25.64 544.055 26.872C543.682 28.0853 543.262 29.308 542.795 30.54C542.328 31.772 541.834 32.976 541.311 34.152C540.788 35.3093 540.228 36.3547 539.631 37.288L535.991 35.832C536.644 34.9547 537.251 33.9747 537.811 32.892C538.39 31.7907 538.912 30.6613 539.379 29.504C539.846 28.3467 540.256 27.208 540.611 26.088C540.984 24.968 541.302 23.9227 541.563 22.952C541.824 21.9813 542.03 21.1507 542.179 20.46C542.44 19.1907 542.646 17.968 542.795 16.792C542.944 15.616 543.01 14.5053 542.991 13.46L547.163 13.88ZM556.795 16.512C557.243 17.1093 557.7 17.8653 558.167 18.78C558.652 19.676 559.119 20.628 559.567 21.636C560.034 22.644 560.454 23.6147 560.827 24.548C561.219 25.4813 561.518 26.2747 561.723 26.928L558.167 28.58C557.98 27.796 557.719 26.928 557.383 25.976C557.066 25.0053 556.692 24.0253 556.263 23.036C555.852 22.028 555.404 21.076 554.919 20.18C554.452 19.284 553.967 18.5373 553.463 17.94L556.795 16.512ZM535.795 19.62C536.299 19.6573 536.794 19.676 537.279 19.676C537.764 19.6573 538.268 19.6387 538.791 19.62C539.239 19.6013 539.79 19.5733 540.443 19.536C541.115 19.48 541.815 19.424 542.543 19.368C543.29 19.312 544.036 19.256 544.783 19.2C545.53 19.1253 546.22 19.0693 546.855 19.032C547.49 18.9947 548.012 18.976 548.423 18.976C549.412 18.976 550.28 19.144 551.027 19.48C551.792 19.7973 552.39 20.348 552.819 21.132C553.267 21.916 553.491 22.98 553.491 24.324C553.491 25.4253 553.435 26.62 553.323 27.908C553.23 29.196 553.071 30.428 552.847 31.604C552.623 32.78 552.306 33.7787 551.895 34.6C551.447 35.5707 550.831 36.2427 550.047 36.616C549.282 36.9893 548.367 37.176 547.303 37.176C546.762 37.176 546.183 37.1293 545.567 37.036C544.97 36.9613 544.428 36.8773 543.943 36.784L543.327 33.088C543.7 33.1813 544.102 33.2747 544.531 33.368C544.979 33.4613 545.399 33.536 545.791 33.592C546.202 33.648 546.528 33.676 546.771 33.676C547.238 33.676 547.648 33.592 548.003 33.424C548.358 33.2373 548.647 32.92 548.871 32.472C549.132 31.9307 549.338 31.2307 549.487 30.372C549.655 29.5133 549.776 28.5893 549.851 27.6C549.944 26.592 549.991 25.6307 549.991 24.716C549.991 23.9693 549.888 23.4187 549.683 23.064C549.478 22.7093 549.17 22.476 548.759 22.364C548.367 22.2333 547.872 22.168 547.275 22.168C546.864 22.168 546.286 22.2053 545.539 22.28C544.811 22.336 544.036 22.4107 543.215 22.504C542.394 22.5787 541.619 22.6627 540.891 22.756C540.182 22.8493 539.631 22.9147 539.239 22.952C538.847 23.0267 538.334 23.1107 537.699 23.204C537.083 23.2787 536.56 23.3533 536.131 23.428L535.795 19.62ZM572.699 13.46C573.371 13.6653 574.211 13.88 575.219 14.104C576.227 14.328 577.282 14.552 578.383 14.776C579.484 14.9813 580.52 15.1587 581.491 15.308C582.48 15.4573 583.283 15.5693 583.899 15.644L583.059 19.06C582.499 18.9853 581.818 18.8827 581.015 18.752C580.231 18.6027 579.391 18.444 578.495 18.276C577.618 18.108 576.75 17.94 575.891 17.772C575.032 17.5853 574.248 17.408 573.539 17.24C572.83 17.072 572.251 16.932 571.803 16.82L572.699 13.46ZM572.867 19.088C572.774 19.4613 572.671 19.9467 572.559 20.544C572.466 21.1227 572.372 21.7293 572.279 22.364C572.186 22.9987 572.092 23.6053 571.999 24.184C571.924 24.7627 571.859 25.248 571.803 25.64C573.072 24.7253 574.398 24.0533 575.779 23.624C577.179 23.1947 578.607 22.98 580.063 22.98C581.706 22.98 583.106 23.2787 584.263 23.876C585.42 24.4733 586.298 25.2573 586.895 26.228C587.511 27.1987 587.819 28.2533 587.819 29.392C587.819 30.6613 587.548 31.8373 587.007 32.92C586.466 34.0027 585.579 34.9267 584.347 35.692C583.115 36.4573 581.5 36.9987 579.503 37.316C577.506 37.6333 575.051 37.6707 572.139 37.428L571.075 33.76C573.875 34.1333 576.227 34.1893 578.131 33.928C580.035 33.648 581.472 33.1067 582.443 32.304C583.432 31.4827 583.927 30.484 583.927 29.308C583.927 28.692 583.75 28.1507 583.395 27.684C583.04 27.1987 582.546 26.8253 581.911 26.564C581.276 26.284 580.558 26.144 579.755 26.144C578.187 26.144 576.712 26.4333 575.331 27.012C573.968 27.572 572.848 28.384 571.971 29.448C571.728 29.7467 571.523 30.0267 571.355 30.288C571.206 30.5307 571.066 30.792 570.935 31.072L567.715 30.26C567.827 29.7187 567.939 29.084 568.051 28.356C568.163 27.6093 568.275 26.816 568.387 25.976C568.499 25.1173 568.602 24.2587 568.695 23.4C568.788 22.5413 568.872 21.692 568.947 20.852C569.022 20.012 569.078 19.2467 569.115 18.556L572.867 19.088ZM594.791 17.66C595.388 17.7347 596.023 17.7907 596.695 17.828C597.386 17.8467 597.992 17.856 598.515 17.856C599.672 17.856 600.839 17.7907 602.015 17.66C603.21 17.5293 604.358 17.3613 605.459 17.156C606.56 16.932 607.559 16.68 608.455 16.4L608.567 19.648C607.764 19.8533 606.803 20.068 605.683 20.292C604.582 20.4973 603.415 20.6747 602.183 20.824C600.951 20.9547 599.738 21.02 598.543 21.02C597.983 21.02 597.414 21.0107 596.835 20.992C596.256 20.9733 595.659 20.9453 595.043 20.908L594.791 17.66ZM605.683 13.46C605.571 13.9267 605.422 14.5333 605.235 15.28C605.048 16.0267 604.834 16.8107 604.591 17.632C604.367 18.4533 604.124 19.2653 603.863 20.068C603.452 21.412 602.911 22.84 602.239 24.352C601.567 25.864 600.839 27.3387 600.055 28.776C599.271 30.2133 598.478 31.492 597.675 32.612L594.287 30.876C594.922 30.092 595.547 29.224 596.163 28.272C596.779 27.32 597.358 26.34 597.899 25.332C598.44 24.324 598.926 23.3533 599.355 22.42C599.803 21.468 600.158 20.6093 600.419 19.844C600.774 18.8547 601.082 17.7533 601.343 16.54C601.623 15.308 601.782 14.1507 601.819 13.068L605.683 13.46ZM612.235 22.168C612.198 22.7653 612.179 23.3627 612.179 23.96C612.198 24.5387 612.216 25.136 612.235 25.752C612.254 26.1813 612.272 26.732 612.291 27.404C612.328 28.0573 612.366 28.7573 612.403 29.504C612.44 30.232 612.468 30.932 612.487 31.604C612.524 32.2573 612.543 32.78 612.543 33.172C612.543 34.0307 612.366 34.8147 612.011 35.524C611.656 36.2147 611.087 36.7653 610.303 37.176C609.538 37.5867 608.483 37.792 607.139 37.792C605.982 37.792 604.936 37.6147 604.003 37.26C603.07 36.924 602.323 36.42 601.763 35.748C601.203 35.0573 600.923 34.1987 600.923 33.172C600.923 32.2573 601.166 31.436 601.651 30.708C602.136 29.9613 602.836 29.3827 603.751 28.972C604.684 28.5427 605.804 28.328 607.111 28.328C608.754 28.328 610.266 28.5613 611.647 29.028C613.028 29.476 614.27 30.0547 615.371 30.764C616.472 31.4733 617.415 32.1827 618.199 32.892L616.323 35.888C615.819 35.44 615.24 34.936 614.587 34.376C613.952 33.816 613.234 33.2933 612.431 32.808C611.647 32.3227 610.788 31.9213 609.855 31.604C608.94 31.2867 607.951 31.128 606.887 31.128C606.084 31.128 605.44 31.2867 604.955 31.604C604.47 31.9213 604.227 32.332 604.227 32.836C604.227 33.3587 604.432 33.7787 604.843 34.096C605.272 34.4133 605.87 34.572 606.635 34.572C607.27 34.572 607.774 34.4693 608.147 34.264C608.52 34.04 608.782 33.732 608.931 33.34C609.08 32.9293 609.155 32.472 609.155 31.968C609.155 31.5387 609.136 30.932 609.099 30.148C609.062 29.364 609.015 28.496 608.959 27.544C608.922 26.592 608.884 25.64 608.847 24.688C608.81 23.736 608.772 22.896 608.735 22.168H612.235ZM617.051 23.652C616.51 23.204 615.838 22.728 615.035 22.224C614.232 21.72 613.402 21.244 612.543 20.796C611.703 20.3293 610.966 19.956 610.331 19.676L612.123 16.904C612.627 17.128 613.196 17.408 613.831 17.744C614.484 18.0613 615.138 18.3973 615.791 18.752C616.463 19.1067 617.079 19.4613 617.639 19.816C618.218 20.152 618.684 20.4507 619.039 20.712L617.051 23.652ZM628.867 15.98C628.792 16.316 628.727 16.6987 628.671 17.128C628.634 17.5573 628.596 17.9773 628.559 18.388C628.54 18.7987 628.531 19.1347 628.531 19.396C628.512 20.012 628.503 20.6467 628.503 21.3C628.522 21.9533 628.54 22.6253 628.559 23.316C628.596 23.988 628.643 24.66 628.699 25.332C628.83 26.676 629.016 27.8613 629.259 28.888C629.502 29.9147 629.819 30.7173 630.211 31.296C630.603 31.856 631.098 32.136 631.695 32.136C632.012 32.136 632.32 31.9587 632.619 31.604C632.936 31.2493 633.216 30.792 633.459 30.232C633.72 29.6533 633.944 29.0467 634.131 28.412C634.336 27.7773 634.514 27.18 634.663 26.62L637.463 30.036C636.847 31.66 636.231 32.9573 635.615 33.928C635.018 34.88 634.392 35.5707 633.739 36C633.086 36.4107 632.376 36.616 631.611 36.616C630.603 36.616 629.642 36.28 628.727 35.608C627.831 34.936 627.066 33.8533 626.431 32.36C625.796 30.848 625.348 28.8413 625.087 26.34C624.994 25.4813 624.919 24.576 624.863 23.624C624.826 22.672 624.798 21.7667 624.779 20.908C624.779 20.0493 624.779 19.34 624.779 18.78C624.779 18.388 624.76 17.9213 624.723 17.38C624.686 16.8387 624.63 16.3533 624.555 15.924L628.867 15.98ZM642.867 16.624C643.39 17.2587 643.894 18.0333 644.379 18.948C644.864 19.8627 645.312 20.8427 645.723 21.888C646.134 22.9333 646.498 24.0067 646.815 25.108C647.132 26.1907 647.384 27.2547 647.571 28.3C647.776 29.3267 647.907 30.2693 647.963 31.128L644.267 32.556C644.174 31.4173 644.006 30.176 643.763 28.832C643.52 27.488 643.194 26.1347 642.783 24.772C642.372 23.4093 641.878 22.1213 641.299 20.908C640.739 19.6947 640.076 18.6493 639.311 17.772L642.867 16.624ZM655.383 23.092C656.018 23.092 656.55 23.316 656.979 23.764C657.427 24.1933 657.651 24.7253 657.651 25.36C657.651 25.976 657.427 26.508 656.979 26.956C656.55 27.404 656.018 27.628 655.383 27.628C654.767 27.628 654.235 27.404 653.787 26.956C653.339 26.508 653.115 25.976 653.115 25.36C653.115 24.7253 653.339 24.1933 653.787 23.764C654.235 23.316 654.767 23.092 655.383 23.092ZM664.707 23.092C665.342 23.092 665.874 23.316 666.303 23.764C666.751 24.1933 666.975 24.7253 666.975 25.36C666.975 25.976 666.751 26.508 666.303 26.956C665.874 27.404 665.342 27.628 664.707 27.628C664.091 27.628 663.559 27.404 663.111 26.956C662.663 26.508 662.439 25.976 662.439 25.36C662.439 24.7253 662.663 24.1933 663.111 23.764C663.559 23.316 664.091 23.092 664.707 23.092ZM674.031 23.092C674.666 23.092 675.198 23.316 675.627 23.764C676.075 24.1933 676.299 24.7253 676.299 25.36C676.299 25.976 676.075 26.508 675.627 26.956C675.198 27.404 674.666 27.628 674.031 27.628C673.415 27.628 672.883 27.404 672.435 26.956C671.987 26.508 671.763 25.976 671.763 25.36C671.763 24.7253 671.987 24.1933 672.435 23.764C672.883 23.316 673.415 23.092 674.031 23.092ZM689.907 38.576H680.611V35.552H686.575V20.684H689.907V38.576ZM715.807 14.58C716.255 14.5987 716.694 14.6173 717.123 14.636C717.552 14.6547 718 14.664 718.467 14.664C718.728 14.664 719.111 14.6547 719.615 14.636C720.119 14.6173 720.698 14.5987 721.351 14.58C722.023 14.5427 722.695 14.5053 723.367 14.468C724.058 14.4307 724.683 14.3933 725.243 14.356C725.822 14.3187 726.288 14.2813 726.643 14.244C727.11 14.188 727.502 14.132 727.819 14.076C728.136 14.02 728.388 13.9547 728.575 13.88L730.787 16.456C730.488 16.6427 730.115 16.8947 729.667 17.212C729.238 17.5107 728.874 17.772 728.575 17.996C728.183 18.3133 727.763 18.6587 727.315 19.032C726.867 19.4053 726.4 19.788 725.915 20.18C725.448 20.5533 724.982 20.936 724.515 21.328C724.048 21.7013 723.591 22.0747 723.143 22.448C722.714 22.8027 722.303 23.12 721.911 23.4C723.162 23.2693 724.478 23.1573 725.859 23.064C727.259 22.952 728.631 22.868 729.975 22.812C731.338 22.756 732.588 22.728 733.727 22.728V26.032C732.402 25.9573 731.086 25.92 729.779 25.92C728.472 25.92 727.39 25.9853 726.531 26.116C725.878 26.1907 725.271 26.3587 724.711 26.62C724.151 26.8813 723.647 27.2173 723.199 27.628C722.77 28.02 722.434 28.468 722.191 28.972C721.948 29.4573 721.827 29.9893 721.827 30.568C721.827 31.296 722.004 31.8933 722.359 32.36C722.714 32.8267 723.208 33.1813 723.843 33.424C724.496 33.6667 725.234 33.8347 726.055 33.928C726.858 34.0213 727.642 34.068 728.407 34.068C729.172 34.068 729.816 34.0493 730.339 34.012L729.583 37.68C725.999 37.8293 723.208 37.3627 721.211 36.28C719.232 35.1973 718.243 33.4893 718.243 31.156C718.243 30.5773 718.336 30.0173 718.523 29.476C718.728 28.916 718.98 28.4027 719.279 27.936C719.596 27.4693 719.932 27.068 720.287 26.732C718.999 26.8253 717.608 26.9747 716.115 27.18C714.64 27.3853 713.194 27.6093 711.775 27.852L711.439 24.464C712.186 24.3893 713.007 24.296 713.903 24.184C714.799 24.072 715.62 23.9787 716.367 23.904C716.983 23.4933 717.655 23.008 718.383 22.448C719.111 21.888 719.839 21.3093 720.567 20.712C721.295 20.096 721.976 19.5173 722.611 18.976C723.264 18.416 723.806 17.94 724.235 17.548C724.011 17.5667 723.703 17.5853 723.311 17.604C722.938 17.6227 722.518 17.6507 722.051 17.688C721.603 17.7067 721.146 17.7347 720.679 17.772C720.212 17.7907 719.783 17.8187 719.391 17.856C719.018 17.8747 718.719 17.8933 718.495 17.912C718.14 17.9307 717.739 17.968 717.291 18.024C716.862 18.0613 716.423 18.108 715.975 18.164L715.807 14.58ZM754.223 15.196C754.092 15.3827 753.943 15.5973 753.775 15.84C753.626 16.064 753.476 16.288 753.327 16.512C752.991 17.016 752.618 17.604 752.207 18.276C751.815 18.9293 751.404 19.6293 750.975 20.376C750.546 21.104 750.126 21.832 749.715 22.56C749.323 23.288 748.95 23.96 748.595 24.576C749.118 24.2773 749.65 24.0627 750.191 23.932C750.732 23.8013 751.274 23.736 751.815 23.736C752.86 23.736 753.682 24.0533 754.279 24.688C754.895 25.304 755.231 26.2 755.287 27.376C755.306 27.7867 755.315 28.2813 755.315 28.86C755.315 29.4387 755.315 30.0173 755.315 30.596C755.334 31.1747 755.362 31.66 755.399 32.052C755.455 32.5933 755.651 32.9853 755.987 33.228C756.342 33.452 756.752 33.564 757.219 33.564C757.816 33.564 758.358 33.3867 758.843 33.032C759.347 32.6773 759.795 32.192 760.187 31.576C760.579 30.9413 760.915 30.232 761.195 29.448C761.494 28.6453 761.746 27.8147 761.951 26.956L764.975 29.42C764.49 31.0067 763.874 32.4067 763.127 33.62C762.38 34.8147 761.466 35.7387 760.383 36.392C759.319 37.064 758.068 37.4 756.631 37.4C755.604 37.4 754.746 37.2133 754.055 36.84C753.364 36.4853 752.851 36.0187 752.515 35.44C752.179 34.8427 751.992 34.1987 751.955 33.508C751.918 33.004 751.89 32.444 751.871 31.828C751.871 31.212 751.862 30.6147 751.843 30.036C751.843 29.4387 751.824 28.9533 751.787 28.58C751.75 28.0947 751.591 27.712 751.311 27.432C751.031 27.152 750.639 27.012 750.135 27.012C749.519 27.012 748.931 27.208 748.371 27.6C747.811 27.992 747.298 28.5053 746.831 29.14C746.383 29.7747 745.991 30.4747 745.655 31.24C745.468 31.6507 745.272 32.136 745.067 32.696C744.862 33.256 744.666 33.8347 744.479 34.432C744.292 35.0293 744.115 35.5893 743.947 36.112C743.779 36.6533 743.639 37.1107 743.527 37.484L739.579 36.14C739.934 35.2067 740.363 34.1427 740.867 32.948C741.39 31.7347 741.959 30.4653 742.575 29.14C743.191 27.8147 743.816 26.4987 744.451 25.192C745.086 23.8853 745.692 22.6533 746.271 21.496C746.85 20.32 747.363 19.3027 747.811 18.444C748.278 17.5667 748.632 16.904 748.875 16.456C749.062 16.0827 749.276 15.6627 749.519 15.196C749.762 14.7293 750.004 14.1973 750.247 13.6L754.223 15.196ZM769.511 17.66C770.108 17.7347 770.743 17.7907 771.415 17.828C772.106 17.8467 772.712 17.856 773.235 17.856C774.392 17.856 775.559 17.7907 776.735 17.66C777.93 17.5293 779.078 17.3613 780.179 17.156C781.28 16.932 782.279 16.68 783.175 16.4L783.287 19.648C782.484 19.8533 781.523 20.068 780.403 20.292C779.302 20.4973 778.135 20.6747 776.903 20.824C775.671 20.9547 774.458 21.02 773.263 21.02C772.703 21.02 772.134 21.0107 771.555 20.992C770.976 20.9733 770.379 20.9453 769.763 20.908L769.511 17.66ZM780.403 13.46C780.291 13.9267 780.142 14.5333 779.955 15.28C779.768 16.0267 779.554 16.8107 779.311 17.632C779.087 18.4533 778.844 19.2653 778.583 20.068C778.172 21.412 777.631 22.84 776.959 24.352C776.287 25.864 775.559 27.3387 774.775 28.776C773.991 30.2133 773.198 31.492 772.395 32.612L769.007 30.876C769.642 30.092 770.267 29.224 770.883 28.272C771.499 27.32 772.078 26.34 772.619 25.332C773.16 24.324 773.646 23.3533 774.075 22.42C774.523 21.468 774.878 20.6093 775.139 19.844C775.494 18.8547 775.802 17.7533 776.063 16.54C776.343 15.308 776.502 14.1507 776.539 13.068L780.403 13.46ZM786.955 22.168C786.918 22.7653 786.899 23.3627 786.899 23.96C786.918 24.5387 786.936 25.136 786.955 25.752C786.974 26.1813 786.992 26.732 787.011 27.404C787.048 28.0573 787.086 28.7573 787.123 29.504C787.16 30.232 787.188 30.932 787.207 31.604C787.244 32.2573 787.263 32.78 787.263 33.172C787.263 34.0307 787.086 34.8147 786.731 35.524C786.376 36.2147 785.807 36.7653 785.023 37.176C784.258 37.5867 783.203 37.792 781.859 37.792C780.702 37.792 779.656 37.6147 778.723 37.26C777.79 36.924 777.043 36.42 776.483 35.748C775.923 35.0573 775.643 34.1987 775.643 33.172C775.643 32.2573 775.886 31.436 776.371 30.708C776.856 29.9613 777.556 29.3827 778.471 28.972C779.404 28.5427 780.524 28.328 781.831 28.328C783.474 28.328 784.986 28.5613 786.367 29.028C787.748 29.476 788.99 30.0547 790.091 30.764C791.192 31.4733 792.135 32.1827 792.919 32.892L791.043 35.888C790.539 35.44 789.96 34.936 789.307 34.376C788.672 33.816 787.954 33.2933 787.151 32.808C786.367 32.3227 785.508 31.9213 784.575 31.604C783.66 31.2867 782.671 31.128 781.607 31.128C780.804 31.128 780.16 31.2867 779.675 31.604C779.19 31.9213 778.947 32.332 778.947 32.836C778.947 33.3587 779.152 33.7787 779.563 34.096C779.992 34.4133 780.59 34.572 781.355 34.572C781.99 34.572 782.494 34.4693 782.867 34.264C783.24 34.04 783.502 33.732 783.651 33.34C783.8 32.9293 783.875 32.472 783.875 31.968C783.875 31.5387 783.856 30.932 783.819 30.148C783.782 29.364 783.735 28.496 783.679 27.544C783.642 26.592 783.604 25.64 783.567 24.688C783.53 23.736 783.492 22.896 783.455 22.168H786.955ZM791.771 23.652C791.23 23.204 790.558 22.728 789.755 22.224C788.952 21.72 788.122 21.244 787.263 20.796C786.423 20.3293 785.686 19.956 785.051 19.676L786.843 16.904C787.347 17.128 787.916 17.408 788.551 17.744C789.204 18.0613 789.858 18.3973 790.511 18.752C791.183 19.1067 791.799 19.4613 792.359 19.816C792.938 20.152 793.404 20.4507 793.759 20.712L791.771 23.652ZM808.291 15.196H822.627V18.108H808.291V15.196ZM807.367 20.572H823.439V23.512H807.367V20.572ZM807.423 25.892H823.243V28.832H807.423V25.892ZM813.695 12.172H817.027V22.476H813.695V12.172ZM817.251 23.372H820.555V34.964C820.555 35.7667 820.452 36.392 820.247 36.84C820.042 37.3067 819.668 37.6707 819.127 37.932C818.586 38.1747 817.923 38.324 817.139 38.38C816.374 38.4547 815.468 38.492 814.423 38.492C814.348 38.0253 814.208 37.484 814.003 36.868C813.798 36.2707 813.583 35.7573 813.359 35.328C814.05 35.3467 814.722 35.3653 815.375 35.384C816.028 35.384 816.467 35.384 816.691 35.384C816.896 35.384 817.036 35.356 817.111 35.3C817.204 35.2253 817.251 35.0853 817.251 34.88V23.372ZM808.543 30.736L811.203 29.196C811.651 29.6253 812.099 30.1107 812.547 30.652C812.995 31.1933 813.406 31.7347 813.779 32.276C814.152 32.8173 814.442 33.312 814.647 33.76L811.735 35.468C811.586 35.02 811.334 34.5253 810.979 33.984C810.624 33.424 810.232 32.864 809.803 32.304C809.392 31.7253 808.972 31.2027 808.543 30.736ZM799.667 13.936H806.863V33.088H799.667V30.092H803.755V16.932H799.667V13.936ZM799.835 21.888H805.267V24.828H799.835V21.888ZM798.071 13.936H801.179V35.58H798.071V13.936ZM836.375 18.808C837.178 18.8827 837.98 18.948 838.783 19.004C839.604 19.0413 840.435 19.06 841.275 19.06C842.992 19.06 844.7 18.9853 846.399 18.836C848.098 18.6867 849.666 18.4533 851.103 18.136V21.636C849.647 21.8413 848.07 22.0093 846.371 22.14C844.672 22.252 842.974 22.308 841.275 22.308C840.454 22.308 839.632 22.2987 838.811 22.28C838.008 22.2427 837.196 22.196 836.375 22.14V18.808ZM847.015 14.076C846.978 14.3373 846.94 14.6267 846.903 14.944C846.884 15.2613 846.866 15.5787 846.847 15.896C846.828 16.1947 846.81 16.596 846.791 17.1C846.772 17.604 846.763 18.1733 846.763 18.808C846.763 19.424 846.763 20.0773 846.763 20.768C846.763 22.0373 846.782 23.232 846.819 24.352C846.856 25.4533 846.903 26.48 846.959 27.432C847.015 28.3653 847.062 29.224 847.099 30.008C847.155 30.792 847.183 31.52 847.183 32.192C847.183 32.92 847.08 33.592 846.875 34.208C846.688 34.824 846.38 35.3653 845.951 35.832C845.522 36.2987 844.952 36.6533 844.243 36.896C843.552 37.1573 842.703 37.288 841.695 37.288C839.754 37.288 838.223 36.896 837.103 36.112C835.983 35.328 835.423 34.1987 835.423 32.724C835.423 31.772 835.675 30.9413 836.179 30.232C836.683 29.504 837.402 28.944 838.335 28.552C839.268 28.1413 840.37 27.936 841.639 27.936C842.964 27.936 844.168 28.076 845.251 28.356C846.334 28.636 847.323 29.0093 848.219 29.476C849.115 29.9427 849.908 30.456 850.599 31.016C851.308 31.5573 851.943 32.08 852.503 32.584L850.571 35.524C849.507 34.516 848.471 33.648 847.463 32.92C846.455 32.192 845.447 31.632 844.439 31.24C843.45 30.848 842.423 30.652 841.359 30.652C840.575 30.652 839.931 30.8013 839.427 31.1C838.942 31.3987 838.699 31.8187 838.699 32.36C838.699 32.92 838.951 33.3307 839.455 33.592C839.959 33.8533 840.575 33.984 841.303 33.984C841.882 33.984 842.339 33.8907 842.675 33.704C843.011 33.4987 843.244 33.2093 843.375 32.836C843.524 32.444 843.599 31.9773 843.599 31.436C843.599 30.9507 843.58 30.316 843.543 29.532C843.506 28.748 843.459 27.8707 843.403 26.9C843.366 25.9293 843.328 24.9213 843.291 23.876C843.254 22.812 843.235 21.776 843.235 20.768C843.235 19.704 843.226 18.7427 843.207 17.884C843.207 17.0067 843.207 16.3533 843.207 15.924C843.207 15.7187 843.188 15.4293 843.151 15.056C843.114 14.6827 843.067 14.356 843.011 14.076H847.015ZM833.351 14.384C833.295 14.5707 833.211 14.832 833.099 15.168C833.006 15.504 832.922 15.8307 832.847 16.148C832.791 16.4653 832.744 16.708 832.707 16.876C832.614 17.268 832.511 17.8 832.399 18.472C832.287 19.1253 832.166 19.872 832.035 20.712C831.923 21.5333 831.811 22.3827 831.699 23.26C831.587 24.1187 831.503 24.94 831.447 25.724C831.391 26.4893 831.363 27.152 831.363 27.712C831.363 27.992 831.363 28.3 831.363 28.636C831.382 28.9533 831.419 29.252 831.475 29.532C831.606 29.196 831.736 28.8693 831.867 28.552C832.016 28.2347 832.166 27.9173 832.315 27.6C832.464 27.2827 832.604 26.9653 832.735 26.648L834.443 28.048C834.182 28.8133 833.911 29.616 833.631 30.456C833.37 31.296 833.127 32.0893 832.903 32.836C832.698 33.5827 832.539 34.208 832.427 34.712C832.39 34.8987 832.352 35.1227 832.315 35.384C832.296 35.6453 832.287 35.86 832.287 36.028C832.287 36.1773 832.287 36.3547 832.287 36.56C832.306 36.784 832.324 36.9893 832.343 37.176L829.179 37.428C828.88 36.4387 828.619 35.1787 828.395 33.648C828.171 32.0987 828.059 30.372 828.059 28.468C828.059 27.4227 828.106 26.3307 828.199 25.192C828.292 24.0347 828.395 22.924 828.507 21.86C828.638 20.796 828.768 19.8253 828.899 18.948C829.03 18.052 829.132 17.3333 829.207 16.792C829.263 16.4 829.319 15.9613 829.375 15.476C829.431 14.972 829.468 14.496 829.487 14.048L833.351 14.384ZM877.115 17.828C877.059 18.0147 877.003 18.248 876.947 18.528C876.891 18.7893 876.854 18.976 876.835 19.088C876.76 19.648 876.658 20.376 876.527 21.272C876.396 22.168 876.247 23.1293 876.079 24.156C875.93 25.1827 875.771 26.2093 875.603 27.236C875.435 28.244 875.286 29.1773 875.155 30.036C875.024 30.876 874.912 31.5573 874.819 32.08H870.703C870.778 31.6507 870.871 31.1187 870.983 30.484C871.095 29.8307 871.216 29.1213 871.347 28.356C871.478 27.5907 871.599 26.8067 871.711 26.004C871.842 25.2013 871.954 24.436 872.047 23.708C872.159 22.9613 872.252 22.2987 872.327 21.72C872.402 21.1413 872.439 20.684 872.439 20.348C872.01 20.348 871.459 20.348 870.787 20.348C870.115 20.348 869.387 20.348 868.603 20.348C867.838 20.348 867.072 20.348 866.307 20.348C865.542 20.348 864.851 20.348 864.235 20.348C863.619 20.348 863.134 20.348 862.779 20.348C862.219 20.348 861.678 20.3573 861.155 20.376C860.632 20.3947 860.119 20.4227 859.615 20.46V16.512C860.082 16.568 860.604 16.624 861.183 16.68C861.762 16.7173 862.284 16.736 862.751 16.736C863.05 16.736 863.432 16.736 863.899 16.736C864.366 16.736 864.879 16.736 865.439 16.736C866.018 16.736 866.606 16.736 867.203 16.736C867.8 16.736 868.379 16.736 868.939 16.736C869.518 16.736 870.031 16.736 870.479 16.736C870.946 16.736 871.319 16.736 871.599 16.736C871.842 16.736 872.131 16.7173 872.467 16.68C872.822 16.6427 873.158 16.596 873.475 16.54C873.792 16.484 874.035 16.428 874.203 16.372L877.115 17.828ZM856.535 30.932C856.983 30.988 857.45 31.044 857.935 31.1C858.42 31.1373 858.878 31.156 859.307 31.156H877.983C878.487 31.156 878.954 31.128 879.383 31.072C879.831 31.016 880.232 30.9693 880.587 30.932V34.992C880.195 34.936 879.747 34.8987 879.243 34.88C878.739 34.8613 878.319 34.852 877.983 34.852H859.307C858.878 34.852 858.42 34.8613 857.935 34.88C857.468 34.8987 857.002 34.936 856.535 34.992V30.932ZM910.407 17.044C910.258 17.2307 910.071 17.4733 909.847 17.772C909.623 18.052 909.446 18.2947 909.315 18.5C908.886 19.228 908.316 20.068 907.607 21.02C906.898 21.9533 906.114 22.8867 905.255 23.82C904.396 24.7347 903.51 25.5187 902.595 26.172L899.683 23.848C900.243 23.512 900.794 23.12 901.335 22.672C901.876 22.224 902.371 21.7573 902.819 21.272C903.286 20.768 903.687 20.292 904.023 19.844C904.378 19.396 904.648 18.9947 904.835 18.64C904.592 18.64 904.182 18.64 903.603 18.64C903.024 18.64 902.334 18.64 901.531 18.64C900.728 18.64 899.86 18.64 898.927 18.64C898.012 18.64 897.098 18.64 896.183 18.64C895.268 18.64 894.4 18.64 893.579 18.64C892.776 18.64 892.076 18.64 891.479 18.64C890.9 18.64 890.49 18.64 890.247 18.64C889.668 18.64 889.118 18.6587 888.595 18.696C888.072 18.7333 887.484 18.78 886.831 18.836V14.944C887.372 15.0187 887.932 15.084 888.511 15.14C889.09 15.196 889.668 15.224 890.247 15.224C890.49 15.224 890.919 15.224 891.535 15.224C892.151 15.224 892.879 15.224 893.719 15.224C894.578 15.224 895.483 15.224 896.435 15.224C897.406 15.224 898.367 15.224 899.319 15.224C900.29 15.224 901.186 15.224 902.007 15.224C902.847 15.224 903.556 15.224 904.135 15.224C904.732 15.224 905.134 15.224 905.339 15.224C905.6 15.224 905.918 15.2147 906.291 15.196C906.664 15.1773 907.028 15.1493 907.383 15.112C907.756 15.0747 908.027 15.028 908.195 14.972L910.407 17.044ZM898.983 20.824C898.983 22.2053 898.955 23.54 898.899 24.828C898.843 26.116 898.684 27.3573 898.423 28.552C898.18 29.728 897.779 30.848 897.219 31.912C896.678 32.976 895.922 33.984 894.951 34.936C893.98 35.888 892.739 36.7653 891.227 37.568L887.951 34.908C888.399 34.7587 888.875 34.5627 889.379 34.32C889.883 34.0587 890.387 33.7413 890.891 33.368C891.787 32.752 892.506 32.0987 893.047 31.408C893.607 30.7173 894.036 29.9707 894.335 29.168C894.634 28.3467 894.839 27.46 894.951 26.508C895.063 25.5373 895.119 24.4827 895.119 23.344C895.119 22.9147 895.11 22.504 895.091 22.112C895.072 21.7013 895.016 21.272 894.923 20.824H898.983ZM913.695 23.036C914.031 23.0547 914.46 23.0827 914.983 23.12C915.506 23.1387 916.047 23.1573 916.607 23.176C917.186 23.1947 917.718 23.204 918.203 23.204C918.67 23.204 919.248 23.204 919.939 23.204C920.63 23.204 921.376 23.204 922.179 23.204C923 23.204 923.84 23.204 924.699 23.204C925.576 23.204 926.444 23.204 927.303 23.204C928.162 23.204 928.974 23.204 929.739 23.204C930.504 23.204 931.186 23.204 931.783 23.204C932.399 23.204 932.884 23.204 933.239 23.204C933.892 23.204 934.508 23.1853 935.087 23.148C935.666 23.092 936.142 23.0547 936.515 23.036V27.432C936.198 27.4133 935.722 27.3853 935.087 27.348C934.452 27.3107 933.836 27.292 933.239 27.292C932.884 27.292 932.399 27.292 931.783 27.292C931.167 27.292 930.476 27.292 929.711 27.292C928.946 27.292 928.134 27.292 927.275 27.292C926.435 27.292 925.576 27.292 924.699 27.292C923.822 27.292 922.972 27.292 922.151 27.292C921.348 27.292 920.602 27.292 919.911 27.292C919.239 27.292 918.67 27.292 918.203 27.292C917.4 27.292 916.579 27.3107 915.739 27.348C914.899 27.3667 914.218 27.3947 913.695 27.432V23.036ZM960.348 12.704C960.591 13.0587 960.852 13.4787 961.132 13.964C961.431 14.4307 961.711 14.8973 961.972 15.364C962.234 15.8307 962.439 16.2227 962.588 16.54L960.32 17.492C960.04 16.932 959.695 16.288 959.284 15.56C958.892 14.832 958.51 14.188 958.136 13.628L960.348 12.704ZM963.876 11.724C964.138 12.0787 964.408 12.4893 964.688 12.956C964.968 13.4227 965.239 13.8893 965.5 14.356C965.78 14.804 965.995 15.196 966.144 15.532L963.932 16.484C963.634 15.9053 963.279 15.252 962.868 14.524C962.458 13.796 962.056 13.1707 961.664 12.648L963.876 11.724ZM961.636 17.688C961.524 17.856 961.356 18.1173 961.132 18.472C960.927 18.8267 960.768 19.1533 960.656 19.452C960.264 20.3293 959.779 21.3093 959.2 22.392C958.64 23.4747 957.996 24.5667 957.268 25.668C956.559 26.7693 955.803 27.7867 955 28.72C953.955 29.9147 952.798 31.0813 951.528 32.22C950.278 33.3587 948.952 34.4133 947.552 35.384C946.171 36.336 944.752 37.1573 943.296 37.848L940.412 34.824C941.924 34.2453 943.39 33.5173 944.808 32.64C946.227 31.7627 947.543 30.8107 948.756 29.784C949.97 28.7573 951.015 27.7587 951.892 26.788C952.508 26.0973 953.087 25.3507 953.628 24.548C954.188 23.7267 954.683 22.924 955.112 22.14C955.542 21.3373 955.859 20.6093 956.064 19.956C955.878 19.956 955.542 19.956 955.056 19.956C954.571 19.956 954.002 19.956 953.348 19.956C952.714 19.956 952.042 19.956 951.332 19.956C950.623 19.956 949.942 19.956 949.288 19.956C948.654 19.956 948.094 19.956 947.608 19.956C947.123 19.956 946.778 19.956 946.572 19.956C946.18 19.956 945.77 19.9653 945.34 19.984C944.911 20.0027 944.5 20.0307 944.108 20.068C943.735 20.1053 943.446 20.124 943.24 20.124V16.148C943.52 16.1667 943.866 16.1947 944.276 16.232C944.687 16.2693 945.098 16.2973 945.508 16.316C945.938 16.3347 946.292 16.344 946.572 16.344C946.815 16.344 947.198 16.344 947.72 16.344C948.243 16.344 948.84 16.344 949.512 16.344C950.184 16.344 950.875 16.344 951.584 16.344C952.312 16.344 953.003 16.344 953.656 16.344C954.328 16.344 954.907 16.344 955.392 16.344C955.878 16.344 956.232 16.344 956.456 16.344C957.072 16.344 957.632 16.316 958.136 16.26C958.659 16.1853 959.06 16.1013 959.34 16.008L961.636 17.688ZM955.364 26.396C956.092 26.9747 956.867 27.6467 957.688 28.412C958.51 29.1773 959.322 29.9707 960.124 30.792C960.927 31.6133 961.664 32.4067 962.336 33.172C963.027 33.9187 963.606 34.572 964.072 35.132L960.88 37.932C960.19 36.9613 959.396 35.9627 958.5 34.936C957.623 33.9093 956.69 32.892 955.7 31.884C954.73 30.8573 953.74 29.8867 952.732 28.972L955.364 26.396ZM969 27.656C969.43 27.32 969.822 26.984 970.176 26.648C970.55 26.2933 970.951 25.9013 971.38 25.472C971.698 25.136 972.062 24.7253 972.472 24.24C972.883 23.736 973.322 23.1947 973.788 22.616C974.255 22.0373 974.722 21.4587 975.188 20.88C975.674 20.2827 976.131 19.732 976.56 19.228C977.55 18.108 978.511 17.5107 979.444 17.436C980.378 17.3427 981.358 17.8 982.384 18.808C983.019 19.424 983.672 20.124 984.344 20.908C985.035 21.692 985.707 22.476 986.36 23.26C987.014 24.044 987.62 24.7347 988.18 25.332C988.628 25.836 989.104 26.3587 989.608 26.9C990.131 27.4413 990.682 28.0107 991.26 28.608C991.839 29.2053 992.446 29.8027 993.08 30.4C993.715 30.9973 994.359 31.5947 995.012 32.192L992.128 35.552C991.475 34.8987 990.784 34.1893 990.056 33.424C989.328 32.6587 988.61 31.8747 987.9 31.072C987.21 30.2693 986.556 29.532 985.94 28.86C985.38 28.1693 984.783 27.4413 984.148 26.676C983.532 25.892 982.935 25.1453 982.356 24.436C981.778 23.7267 981.264 23.1293 980.816 22.644C980.499 22.2707 980.21 22.0373 979.948 21.944C979.706 21.8507 979.463 21.8693 979.22 22C978.996 22.1307 978.754 22.3733 978.492 22.728C978.212 23.0827 977.886 23.5027 977.512 23.988C977.158 24.4733 976.775 24.996 976.364 25.556C975.972 26.0973 975.59 26.6293 975.216 27.152C974.843 27.656 974.498 28.104 974.18 28.496C973.863 28.9627 973.546 29.4293 973.228 29.896C972.93 30.3627 972.659 30.7827 972.416 31.156L969 27.656ZM1002.49 29.056C1003.35 29.056 1004.11 29.2613 1004.78 29.672C1005.46 30.0827 1006 30.6333 1006.41 31.324C1006.82 31.996 1007.02 32.752 1007.02 33.592C1007.02 34.4133 1006.82 35.1693 1006.41 35.86C1006 36.5507 1005.46 37.1013 1004.78 37.512C1004.11 37.9227 1003.35 38.128 1002.49 38.128C1001.67 38.128 1000.91 37.9227 1000.22 37.512C999.53 37.1013 998.979 36.5507 998.568 35.86C998.176 35.1693 997.98 34.4133 997.98 33.592C997.98 32.752 998.176 31.996 998.568 31.324C998.979 30.6333 999.53 30.0827 1000.22 29.672C1000.91 29.2613 1001.67 29.056 1002.49 29.056ZM1002.52 36.112C1003.21 36.112 1003.8 35.8693 1004.28 35.384C1004.77 34.88 1005.01 34.2827 1005.01 33.592C1005.01 33.1253 1004.9 32.7053 1004.67 32.332C1004.45 31.94 1004.14 31.632 1003.75 31.408C1003.38 31.184 1002.96 31.072 1002.52 31.072C1002.05 31.072 1001.63 31.184 1001.26 31.408C1000.88 31.632 1000.58 31.94 1000.33 32.332C1000.11 32.7053 999.996 33.1253 999.996 33.592C999.996 34.0587 1000.11 34.488 1000.33 34.88C1000.58 35.2533 1000.88 35.552 1001.26 35.776C1001.63 36 1002.05 36.112 1002.52 36.112Z" fill="#00600E"/>
<circle cx="870" cy="4" r="4" fill="#FF8B00"/>
<circle cx="897" cy="4" r="4" fill="#FF8B00"/>
<circle cx="924" cy="4" r="4" fill="#FF8B00"/>
<circle cx="951" cy="4" r="4" fill="#FF8B00"/>
</svg>
