<svg width="62" height="73" viewBox="0 0 62 73" fill="none" xmlns="http://www.w3.org/2000/svg">
<path d="M10.1377 63.7683L30.672 71.3663C32.395 71.9947 34.2944 71.9382 35.9821 71.2109L48.297 65.9361C49.0879 65.5972 49.8011 65.1099 50.3942 64.4956L58.31 56.3539C59.3974 55.2312 58.7125 53.3529 57.1519 53.1975C53.2399 52.8162 49.3703 54.2285 46.6235 57.0389L44.5404 59.1714L37.5991 60.4989" stroke="#EB6A00" stroke-width="2" stroke-linecap="round" stroke-linejoin="round"/>
<path d="M10.1377 47.9932C10.1377 47.9932 14.5934 44.858 19.7764 46.2561C24.9594 47.6542 29.408 53.4163 29.408 53.4163L35.7279 55.683C37.5356 56.3326 38.4465 58.3521 37.7333 60.1316C37.0766 61.7769 35.2689 62.6383 33.5742 62.1087L22.8198 58.7617" stroke="#EB6A00" stroke-width="2" stroke-linecap="round" stroke-linejoin="round"/>
<path d="M8.28727 45.1826H2.19336C1.53429 45.1826 1 45.7169 1 46.376V66.4583C1 67.1174 1.53429 67.6517 2.19336 67.6517H8.28727C8.94635 67.6517 9.48064 67.1174 9.48064 66.4583V46.376C9.48064 45.7169 8.94635 45.1826 8.28727 45.1826Z" stroke="#EB6A00" stroke-width="2" stroke-linecap="round" stroke-linejoin="round"/>
<path d="M44.3921 41.4402L36.1445 37.1823L27.9605 41.5603C27.1343 41.9981 26.1669 41.3061 26.3152 40.381L27.8192 31.2225L21.1251 24.7897C20.4543 24.14 20.8144 23.0031 21.7324 22.8619L30.905 21.4638L34.9512 13.1102C35.3607 12.27 36.5541 12.2629 36.9707 13.0961L41.1369 21.3932L50.3307 22.6642C51.2557 22.7913 51.63 23.9282 50.9662 24.5849L44.3639 31.1095L46.0021 40.2469C46.1645 41.1648 45.2042 41.878 44.378 41.4473L44.3921 41.4402Z" stroke="#EB6A00" stroke-width="2" stroke-linecap="round" stroke-linejoin="round"/>
<path d="M48.9956 9.66406L46.9902 12.425" stroke="#EB6A00" stroke-width="2" stroke-linecap="round" stroke-linejoin="round"/>
<path d="M61 18.9922L57.1445 20.242" stroke="#EB6A00" stroke-width="2" stroke-linecap="round" stroke-linejoin="round"/>
<path d="M56.996 34.2938L53.7549 33.2417" stroke="#EB6A00" stroke-width="2" stroke-linecap="round" stroke-linejoin="round"/>
<path d="M15.1016 34.287L18.3427 33.2349" stroke="#EB6A00" stroke-width="2" stroke-linecap="round" stroke-linejoin="round"/>
<path d="M11.0908 18.9854L14.9534 20.2423" stroke="#EB6A00" stroke-width="2" stroke-linecap="round" stroke-linejoin="round"/>
<path d="M23.1016 9.66406L25.107 12.425" stroke="#EB6A00" stroke-width="2" stroke-linecap="round" stroke-linejoin="round"/>
<path d="M35.9609 1V4.84842" stroke="#EB6A00" stroke-width="2" stroke-linecap="round" stroke-linejoin="round"/>
<path d="M51.4668 48.304L49.0801 45.0205" stroke="#EB6A00" stroke-width="2" stroke-linecap="round" stroke-linejoin="round"/>
<path d="M35.9746 48.6352V45.4082" stroke="#EB6A00" stroke-width="2" stroke-linecap="round" stroke-linejoin="round"/>
</svg>
