<svg width="58" height="66" viewBox="0 0 58 66" fill="none" xmlns="http://www.w3.org/2000/svg">
<path d="M11.2344 35.4469C11.5843 33.4985 12.3042 31.5972 13.3942 29.8578C13.8585 29.1162 14.3968 28.4352 14.9754 27.7812L25.6737 15.6861L19.7325 4.95958C19.1135 3.84715 20.0891 2.52572 21.3339 2.78866L24.5164 3.45612C27.6048 4.10335 30.7874 3.70557 33.6874 2.45156C38.4444 0.39525 40.0593 0.914384 42.0173 1.64252C43.7263 2.28301 43.9887 3.31454 43.3562 4.46742L37.1391 15.6861L47.8374 27.7812C48.4161 28.4352 48.9544 29.1229 49.4186 29.8578C52.9915 35.575 52.5676 42.9912 48.295 48.2702" stroke="#EB6A00" stroke-width="2" stroke-linecap="round" stroke-linejoin="round"/>
<path d="M25.6729 15.6792H37.118" stroke="#EB6A00" stroke-width="2" stroke-linecap="round" stroke-linejoin="round"/>
<path d="M9.70703 57.3315L29.2735 64.5859C30.9153 65.1859 32.7252 65.132 34.3334 64.4375L46.0679 59.4013C46.8215 59.0776 47.501 58.6124 48.0662 58.0259L55.6089 50.2524C56.6451 49.1804 55.9924 47.387 54.5054 47.2387C50.7778 46.8746 47.0906 48.223 44.4732 50.9063L42.4883 52.9424L35.8742 54.2099" stroke="#EB6A00" stroke-width="2" stroke-linecap="round" stroke-linejoin="round"/>
<path d="M9.70703 42.2626C9.70703 42.2626 13.9527 39.2692 18.8914 40.6041C23.8302 41.939 28.0691 47.4405 28.0691 47.4405L34.0911 49.6047C35.8136 50.2249 36.6816 52.1532 36.002 53.8521C35.3763 55.423 33.6538 56.2456 32.0389 55.7399L21.7914 52.5442" stroke="#EB6A00" stroke-width="2" stroke-linecap="round" stroke-linejoin="round"/>
<path d="M7.94381 39.5864H2.13712C1.5091 39.5864 1 40.0966 1 40.7258V59.9001C1 60.5293 1.5091 61.0395 2.13712 61.0395H7.94381C8.57183 61.0395 9.08093 60.5293 9.08093 59.9001V40.7258C9.08093 40.0966 8.57183 39.5864 7.94381 39.5864Z" stroke="#EB6A00" stroke-width="2" stroke-linecap="round" stroke-linejoin="round"/>
</svg>
