<svg width="67" height="60" viewBox="0 0 67 60" fill="none" xmlns="http://www.w3.org/2000/svg">
<path d="M57.9316 12.8023C57.9984 11.7548 57.9316 10.67 57.6203 9.60015C56.1898 4.58514 50.2231 1.88818 50.2231 1.88818C50.2231 1.88818 46.569 7.33411 47.9921 12.3491C48.6147 14.526 50.0897 16.272 51.5647 17.5424" stroke="#EB6A00" stroke-width="2" stroke-linecap="round" stroke-linejoin="round"/>
<path d="M62.1416 26.1314C62.2306 25.9828 62.3269 25.8342 62.4159 25.6708C65.1509 20.7449 62.6382 14.1177 62.6382 14.1177C62.6382 14.1177 55.6931 15.4773 52.9581 20.4032C51.572 22.8995 51.535 25.8417 51.8389 28.13" stroke="#EB6A00" stroke-width="2" stroke-linecap="round" stroke-linejoin="round"/>
<path d="M57.5302 42.2308C58.1825 41.9485 58.8125 41.6141 59.4055 41.1906C64.5643 37.5947 65.2906 29.7044 65.2906 29.7044C65.2906 29.7044 57.6562 27.6464 52.4975 31.2423C49.1991 33.5455 47.7093 37.6021 47.0645 40.2322" stroke="#EB6A00" stroke-width="2" stroke-linecap="round" stroke-linejoin="round"/>
<path d="M40.1498 53.071C42.492 54.3563 46.9615 55.2924 49.8299 54.6386C55.5668 53.331 58.9689 46.7484 58.9689 46.7484C58.9689 46.7484 53.069 42.2757 47.3321 43.5759C44.6341 44.1851 42.7514 46.0723 40.9058 48.4126C39.7718 49.8465 37.3036 54.0888 33.3085 56.6372C31.6556 57.6922 28.2238 58.8215 24.9922 58.9998" stroke="#EB6A00" stroke-width="2" stroke-linecap="round" stroke-linejoin="round"/>
<path d="M14.7343 17.5424C16.2093 16.272 17.6843 14.526 18.3069 12.3491C19.7374 7.33411 16.0759 1.88818 16.0759 1.88818C16.0759 1.88818 10.1018 4.57771 8.67866 9.60015C8.37477 10.67 8.30065 11.7548 8.36736 12.8023" stroke="#EB6A00" stroke-width="2" stroke-linecap="round" stroke-linejoin="round"/>
<path d="M14.4673 28.13C14.7711 25.8417 14.7341 22.9069 13.348 20.4032C10.6204 15.4773 3.66792 14.1177 3.66792 14.1177C3.66792 14.1177 1.15524 20.7449 3.89028 25.6708C3.97923 25.8268 4.06817 25.9828 4.16453 26.1314" stroke="#EB6A00" stroke-width="2" stroke-linecap="round" stroke-linejoin="round"/>
<path d="M19.2262 40.2322C18.5813 37.6095 17.0989 33.5455 13.7932 31.2423C8.63439 27.6464 1 29.7044 1 29.7044C1 29.7044 1.72638 37.5947 6.88515 41.1906C7.48553 41.6067 8.11555 41.9485 8.7604 42.2308" stroke="#EB6A00" stroke-width="2" stroke-linecap="round" stroke-linejoin="round"/>
<path d="M36.3115 58.0635C37.8384 58.539 39.6099 58.903 41.3221 58.9922" stroke="#EB6A00" stroke-width="2" stroke-linecap="round" stroke-linejoin="round"/>
<path d="M33.1544 56.7263C33.1025 56.6966 33.0506 56.6669 32.9987 56.6372C32.1241 56.0799 31.3162 55.4336 30.5898 54.7649C27.9882 52.3651 26.2909 49.5418 25.4088 48.42C23.5632 46.0796 21.6732 44.1925 18.9826 43.5833C13.2457 42.2757 7.3457 46.7483 7.3457 46.7483C7.3457 46.7483 10.7478 53.3384 16.4847 54.646C19.3532 55.2998 23.8301 54.3711 26.1723 53.0784" stroke="#EB6A00" stroke-width="2" stroke-linecap="round" stroke-linejoin="round"/>
<path d="M42.2441 42.7144L33.3793 38.1228L24.5813 42.8407L26.1971 32.9667L19 26.0422L28.8654 24.5266L33.2163 15.5293L37.6931 24.4672L47.5808 25.8342L40.4875 32.8627L42.2441 42.7144Z" stroke="#EB6A00" stroke-width="2" stroke-linecap="round" stroke-linejoin="round"/>
</svg>
