<svg width="72" height="70" viewBox="0 0 72 70" fill="none" xmlns="http://www.w3.org/2000/svg">
<path d="M11.2811 8.01611H1.5957V55.7163H34.298" stroke="#EB6A00" stroke-width="2" stroke-linecap="round" stroke-linejoin="round"/>
<path d="M45.9062 8.01611H52.6318V29.6778" stroke="#EB6A00" stroke-width="2" stroke-linecap="round" stroke-linejoin="round"/>
<path d="M37.673 8.01611H19.5068" stroke="#EB6A00" stroke-width="2" stroke-linecap="round" stroke-linejoin="round"/>
<path d="M1.5957 19.6318H52.6397" stroke="#EB6A00" stroke-width="2" stroke-linecap="round" stroke-linejoin="round"/>
<path d="M13.922 14.4545C12.462 14.4545 11.2812 13.2731 11.2812 11.8142V4.22625C11.2812 2.76734 12.462 1.58594 13.922 1.58594C15.382 1.58594 16.5628 2.76734 16.5628 4.22625V11.8142C16.5628 13.2731 15.382 14.4545 13.922 14.4545Z" stroke="#EB6A00" stroke-width="2" stroke-linecap="round" stroke-linejoin="round"/>
<path d="M40.3136 14.4545C38.8536 14.4545 37.6729 13.2731 37.6729 11.8142V4.22625C37.6729 2.76734 38.8536 1.58594 40.3136 1.58594C41.7736 1.58594 42.9544 2.76734 42.9544 4.22625V11.8142C42.9544 13.2731 41.7736 14.4545 40.3136 14.4545Z" stroke="#EB6A00" stroke-width="2" stroke-linecap="round" stroke-linejoin="round"/>
<path d="M22.2199 28.9326H22.1875" stroke="#EB6A00" stroke-width="3.51" stroke-linecap="round" stroke-linejoin="round"/>
<path d="M22.2199 37.6704H22.1875" stroke="#EB6A00" stroke-width="3.51" stroke-linecap="round" stroke-linejoin="round"/>
<path d="M22.2199 46.4077H22.1875" stroke="#EB6A00" stroke-width="3.51" stroke-linecap="round" stroke-linejoin="round"/>
<path d="M32.0487 28.9326H32.0088" stroke="#EB6A00" stroke-width="3.51" stroke-linecap="round" stroke-linejoin="round"/>
<path d="M32.0487 37.6704H32.0088" stroke="#EB6A00" stroke-width="3.51" stroke-linecap="round" stroke-linejoin="round"/>
<path d="M32.0487 46.4077H32.0088" stroke="#EB6A00" stroke-width="3.51" stroke-linecap="round" stroke-linejoin="round"/>
<path d="M41.8693 28.9326H41.8369" stroke="#EB6A00" stroke-width="3.51" stroke-linecap="round" stroke-linejoin="round"/>
<path d="M12.3986 37.6704H12.3662" stroke="#EB6A00" stroke-width="3.51" stroke-linecap="round" stroke-linejoin="round"/>
<path d="M12.3986 46.4082H12.3662" stroke="#EB6A00" stroke-width="3.51" stroke-linecap="round" stroke-linejoin="round"/>
<path d="M67.1966 54.6633C70.5588 46.5963 66.7042 37.3478 58.587 34.0063C50.4699 30.6648 41.164 34.4957 37.8017 42.5627C34.4395 50.6298 38.2941 59.8782 46.4113 63.2197C54.5284 66.5612 63.8343 62.7304 67.1966 54.6633Z" stroke="#EB6A00" stroke-width="2" stroke-linecap="round" stroke-linejoin="round"/>
<path d="M52.4961 40.0571V48.4221L58.8387 53.1081" stroke="#EB6A00" stroke-width="2" stroke-linecap="round" stroke-linejoin="round"/>
</svg>
