<svg width="12" height="8" viewBox="0 0 12 8" fill="none" xmlns="http://www.w3.org/2000/svg">
<path d="M5.78135 7.025C5.61869 7.025 5.45752 6.99033 5.29785 6.921C5.13835 6.8515 4.9986 6.75683 4.8786 6.637L0.367853 2.126C0.118519 1.87683 -0.00406394 1.58067 0.000102729 1.2375C0.0042694 0.894333 0.131019 0.602334 0.380353 0.361501C0.629519 0.120501 0.923603 0 1.2626 0C1.6016 0 1.89152 0.120501 2.13235 0.361501L5.78135 4.01025L9.43035 0.361501C9.67119 0.120501 9.9611 0 10.3001 0C10.6391 0 10.9332 0.120501 11.1824 0.361501C11.4317 0.602334 11.5584 0.894333 11.5626 1.2375C11.5668 1.58067 11.4442 1.87683 11.1949 2.126L6.6841 6.637C6.5641 6.75683 6.42435 6.8515 6.26485 6.921C6.10519 6.99033 5.94402 7.025 5.78135 7.025Z" fill="#333333"/>
</svg>
