<svg width="31" height="31" viewBox="0 0 31 31" fill="none" xmlns="http://www.w3.org/2000/svg">
<path d="M30.4991 22.9608V27.477C30.5008 27.8962 30.4147 28.3112 30.2464 28.6954C30.0781 29.0795 29.8313 29.4243 29.5218 29.7078C29.2122 29.9912 28.8467 30.207 28.4488 30.3413C28.0508 30.4756 27.6292 30.5255 27.2108 30.4878C22.5692 29.9844 18.1106 28.4015 14.1934 25.8662C10.5488 23.5549 7.45889 20.4711 5.14301 16.8338C2.59379 12.9065 1.00736 8.43512 0.512243 3.78192C0.474549 3.36563 0.524122 2.94607 0.657804 2.54994C0.791486 2.15381 1.00635 1.78981 1.28871 1.4811C1.57108 1.17239 1.91475 0.925738 2.29786 0.75685C2.68097 0.587963 3.09512 0.50054 3.51394 0.500146H8.03912C8.77115 0.492955 9.48083 0.751667 10.0359 1.22806C10.5909 1.70445 10.9534 2.36601 11.0559 3.08944C11.2469 4.53473 11.6011 5.95381 12.1118 7.31962C12.3147 7.85844 12.3586 8.44403 12.2383 9.007C12.118 9.56997 11.8386 10.0867 11.433 10.496L9.51734 12.4079C11.6646 16.1767 14.7914 19.2973 18.5677 21.4403L20.4833 19.5284C20.8935 19.1237 21.4112 18.8448 21.9753 18.7247C22.5394 18.6046 23.1262 18.6485 23.6661 18.851C25.0346 19.3607 26.4565 19.7142 27.9046 19.9048C28.6374 20.008 29.3065 20.3763 29.7849 20.9398C30.2633 21.5032 30.5174 22.2225 30.4991 22.9608Z" fill="#00600E"/>
</svg>
