<svg width="243" height="46" viewBox="0 0 243 46" fill="none" xmlns="http://www.w3.org/2000/svg">
<g clip-path="url(#clip0_2628_15080)">
<path d="M8.00144 23.2821C7.81427 23.4569 7.57547 23.5735 7.28504 23.6253C6.12332 26.8569 5.01968 30.3605 3.96123 34.1231C2.90277 37.8858 2.25737 40.7094 2.02502 42.5874C1.90885 43.2933 2.01211 43.7337 2.32836 43.8956C2.64461 44.0575 3.05766 44.0575 3.56753 43.8827C4.0774 43.7078 4.81961 43.397 5.80707 42.9372C10.2152 40.9231 13.894 38.9543 16.8499 37.0309C17.1984 36.7978 17.5276 36.7719 17.8503 36.9532C18.1665 37.1345 18.3408 37.4065 18.373 37.7821C18.3989 38.1578 18.244 38.4621 17.8954 38.6953C16.127 39.8286 13.5261 41.2922 10.0925 43.0991C6.659 44.9059 4.36137 45.8644 3.19965 45.9874C2.1541 46.0716 1.31508 45.8255 0.676134 45.2556C0.0371866 44.6792 -0.14998 43.643 0.108181 42.1406C0.308255 40.6705 0.73422 38.6953 1.37317 36.2149C2.01211 33.7346 2.66397 31.4226 3.32873 29.2725L3.67725 28.1521C3.9935 27.0512 4.32265 26.028 4.65826 25.0824C4.99387 24.1369 5.36175 23.2432 5.76835 22.3948C6.14268 21.4623 6.62028 20.9701 7.20114 20.9248C7.95626 20.8341 8.33059 21.3846 8.33059 22.5762C8.30478 22.8676 8.19506 23.1007 8.00144 23.2756V23.2821ZM1.28927 35.7098C0.966564 35.5349 0.805214 35.2565 0.785852 34.8808C0.772944 34.5052 0.940748 34.2008 1.28927 33.9677C5.78126 31.047 10.796 29.0005 16.3336 27.8283C16.624 27.7506 16.8822 27.7571 17.1145 27.8542C17.3468 27.9514 17.4888 28.1457 17.5469 28.4306C17.605 28.6897 17.5663 28.9552 17.4372 29.2272C17.3081 29.4992 17.108 29.6611 16.8499 29.7129C11.4285 30.9045 6.5751 32.8797 2.28318 35.6385C1.93467 35.8717 1.59906 35.8976 1.28281 35.7163L1.28927 35.7098ZM17.3727 18.3214C17.6889 18.2695 17.9471 18.3537 18.1342 18.5869C18.3214 18.82 18.3924 19.092 18.3537 19.3964C18.3085 19.7072 18.1601 19.9404 17.8954 20.1088L13.9391 22.6086C13.5906 22.8093 13.2744 22.8287 12.9839 22.6668C12.6935 22.4985 12.5128 22.2524 12.4418 21.9221C12.3708 21.5918 12.4612 21.3198 12.7258 21.0931C12.3514 21.1514 11.7835 21.2745 11.0284 21.4493C10.1893 21.6048 9.00181 21.8897 7.4593 22.3042C7.31731 22.751 6.80745 23.0748 5.93615 23.2756C5.06486 23.4764 4.28393 23.5476 3.58689 23.4893C3.23838 23.4893 2.96731 23.3533 2.78014 23.0748C2.59298 22.7964 2.54134 22.5049 2.62525 22.1941C2.70915 21.8832 2.94149 21.6695 3.32228 21.5465C7.93044 20.0116 12.6096 18.9366 17.3662 18.3214H17.3727Z" fill="#F66800"/>
<path d="M24.7662 33.6686C24.3338 35.4366 23.9401 37.347 23.5916 39.4129L23.3721 40.7794C23.314 41.0773 23.1979 41.3169 23.0236 41.5047C22.8493 41.6925 22.6299 41.7962 22.3717 41.8221C22.1136 41.848 21.8812 41.7573 21.6747 41.5695C21.4746 41.3817 21.3843 41.155 21.4166 40.8895L21.6747 39.387C21.991 37.5284 22.3524 35.8057 22.759 34.2191C23.1656 32.6324 23.7271 30.7025 24.4564 28.4359L24.6758 27.8077C24.8501 27.186 25.0695 26.7586 25.3277 26.5319C25.56 26.3376 25.8376 26.2599 26.1538 26.2923C26.47 26.3247 26.6895 26.4671 26.8057 26.7197C26.9218 26.8881 26.967 27.1147 26.9347 27.4062C26.9089 27.6976 26.8315 27.9566 26.7153 28.1898C26.5991 28.4165 26.4959 28.5201 26.412 28.5006C25.7472 30.1844 25.1922 31.9071 24.7597 33.6751L24.7662 33.6686ZM23.5722 36.272C23.2108 36.272 22.9268 36.1295 22.7267 35.8381C22.5202 35.5467 22.5202 35.2229 22.7267 34.8537C23.043 34.3033 23.3721 33.7916 23.7077 33.3124C24.0433 32.8332 24.3983 32.3475 24.7726 31.8553L25.5149 30.8774C25.7472 30.5406 26.1538 30.1197 26.7347 29.621C27.3155 29.1224 27.8641 28.6755 28.3869 28.2869C29.7487 27.2767 30.8846 26.8427 31.8011 26.9852C32.7175 27.1277 33.3307 27.8271 33.6469 29.0835C33.847 29.7635 33.8599 30.9227 33.6663 32.5482C33.4791 34.1802 33.1822 36.1295 32.7756 38.4027L32.5175 39.9505C32.4852 40.3325 32.2916 40.5786 31.9301 40.6952C31.5687 40.8118 31.2267 40.7729 30.9104 40.5786C30.5942 40.3844 30.4586 40.0994 30.5167 39.7173L30.7361 38.3444C30.9685 37.0491 31.1944 35.6373 31.4074 34.1219C31.6268 32.6065 31.7494 31.4861 31.7752 30.7543C31.8591 29.8477 31.7494 29.2843 31.4267 29.0576C31.104 28.8374 30.6587 28.941 30.0778 29.362C28.9161 30.2686 27.8125 31.2854 26.754 32.3993C25.6956 33.5196 24.8888 34.64 24.3402 35.7539C24.1918 36.0842 23.9401 36.2526 23.5786 36.2526L23.5722 36.272Z" fill="#F66800"/>
<path d="M44.6533 25.0891C44.8985 24.966 45.1502 24.9401 45.4148 25.0049C45.9376 25.1085 46.228 25.3611 46.2861 25.7626C46.3442 26.1641 46.3313 26.7599 46.2409 27.5565C45.6924 30.2506 44.8985 33.1713 43.8723 36.3187C42.8461 39.4726 41.7619 41.6291 40.6324 42.7949C40.2 43.2093 39.7418 43.4878 39.2642 43.6238C38.7866 43.7663 38.3606 43.6756 37.9798 43.3583C37.6894 43.1187 37.5022 42.7884 37.4119 42.3545C37.3215 41.9206 37.2699 41.3766 37.2376 40.7095V40.2756C37.2118 39.9 37.3409 39.6215 37.6313 39.4402C37.9217 39.2589 38.238 39.233 38.5865 39.3625C38.935 39.492 39.1222 39.7511 39.148 40.1267C39.2061 40.7937 39.2706 41.2082 39.3416 41.3766C39.4126 41.545 39.5159 41.532 39.6449 41.3312C39.774 41.1305 40.0128 40.6577 40.3613 39.9C41.3746 37.7564 42.1233 35.8848 42.6009 34.2852C43.0785 32.6921 43.6658 30.3801 44.3628 27.3622C44.0466 27.5047 43.7561 27.4982 43.4915 27.3428C43.2334 27.1874 43.1043 26.9477 43.1237 26.611C43.1366 26.2742 43.3495 25.9634 43.7562 25.6655C44.1047 25.4064 44.4016 25.2121 44.6468 25.0891H44.6533ZM43.7432 20.491C43.64 20.2838 43.6464 20.0377 43.7626 19.7722C43.8465 19.5326 44.0337 19.3383 44.3047 19.1829C44.5823 19.0274 44.8211 19.0015 45.0211 19.1051C45.9182 19.4678 46.9186 20.0442 48.0223 20.8278C48.2223 21.0156 48.3385 21.2228 48.3708 21.456C48.3966 21.6891 48.3385 21.9093 48.1965 22.123C48.0481 22.3367 47.8351 22.4857 47.5447 22.5699C47.2542 22.6541 47.0219 22.6282 46.8476 22.4922C46.3571 22.123 45.9247 21.8316 45.5633 21.6114C45.2018 21.3912 44.7565 21.1905 44.2402 20.9962C44.0079 20.8731 43.8401 20.6983 43.7432 20.491Z" fill="#F66800"/>
<path d="M53.5048 26.7925C53.621 26.5529 53.75 26.3586 53.8985 26.2161C54.0469 26.0736 54.2922 26.0477 54.6407 26.1319C54.8989 26.1708 55.1118 26.3197 55.2732 26.5852C55.4345 26.8508 55.4539 27.071 55.3377 27.2588L54.6407 29.1045C54.2341 30.186 53.9501 31.0085 53.7952 31.5719C53.6339 32.1353 53.5112 32.906 53.4273 33.8709C53.2854 35.2762 53.4338 36.1894 53.8856 36.6038C54.3374 37.0183 55.0537 36.8823 56.0348 36.1894C57.2804 35.3345 58.5131 34.2659 59.7329 32.9901C60.9527 31.7143 61.9531 30.3349 62.734 28.8454C63.1664 27.997 63.1277 27.3106 62.6049 26.786C62.0822 26.2614 61.2431 26.0153 60.0814 26.0477C59.1843 26.0931 58.042 26.255 56.6673 26.5399C55.2926 26.8249 54.0663 27.1422 52.9949 27.4919C52.7045 27.6344 52.4463 27.6473 52.214 27.5308C51.9816 27.4207 51.8397 27.2329 51.7816 26.9738C51.6977 26.8961 51.6654 26.7731 51.6977 26.6112C51.7235 26.4492 51.7816 26.3068 51.8719 26.1837C51.9558 26.0024 52.1494 25.8534 52.4399 25.7434C54.034 25.1799 55.4604 24.7655 56.7253 24.5064C57.9839 24.2474 59.2811 24.0596 60.6171 23.9559C62.0693 23.8394 63.1471 24.1114 63.857 24.7655C64.567 25.4195 64.9348 26.255 64.9671 27.2717C64.9929 28.2885 64.7606 29.234 64.2701 30.1212C63.5472 31.4294 62.4952 32.8606 61.1205 34.4084C59.7458 35.9562 58.3905 37.0766 57.0545 37.7695C55.9831 38.3783 54.8924 38.6697 53.7952 38.6438C52.6916 38.6179 51.9816 37.9768 51.6654 36.7204C51.3169 35.4964 51.3298 34.0522 51.7106 32.3749C52.0849 30.7041 52.6787 28.8713 53.4919 26.8896L53.5371 26.799L53.5048 26.7925Z" fill="#F66800"/>
<path d="M72.267 23.165C72.0799 23.3981 71.8411 23.5536 71.5506 23.6378C71.4925 23.8774 71.4345 24.0522 71.3764 24.1753C70.8278 26.2282 70.447 27.6659 70.2469 28.4949C70.0468 29.3238 69.9888 30.0168 70.0727 30.5607C70.2469 32.1474 70.7891 32.8274 71.7055 32.6137C72.622 32.3935 73.6546 31.6293 74.8164 30.3147C76.1201 28.7863 77.2818 27.2255 78.2951 25.6259L79.3793 23.9227C79.844 23.2168 80.2506 22.7635 80.5991 22.5562C80.9477 22.349 81.2962 22.3555 81.6447 22.5562C82.019 22.7894 82.1739 23.029 82.1029 23.2816C82.0319 23.5341 81.7609 23.9421 81.2962 24.5056L77.3399 30.0621C76.2362 31.5451 74.9906 32.7367 73.603 33.6369C72.2089 34.5306 70.8794 34.6407 69.6015 33.9607C68.3559 33.3066 67.8008 32.1409 67.9493 30.4701C68.0913 28.7992 68.5302 26.8175 69.253 24.5185L69.5563 23.4888L69.6854 23.0873C69.8274 22.6663 69.9758 22.3296 70.1178 22.0705C70.2598 21.8115 70.4341 21.6172 70.6406 21.4812C71.0149 21.2157 71.3893 21.1833 71.7507 21.3711C72.1121 21.5589 72.3509 21.8698 72.4671 22.2972C72.5252 22.6404 72.4606 22.9319 72.2735 23.165H72.267ZM72.8995 44.1477C73.1319 44.4326 73.2545 44.7111 73.2674 44.9702C73.2803 45.2292 73.1125 45.4041 72.764 45.4882C71.7507 45.6825 70.9891 45.4559 70.4793 44.8018C69.9694 44.1412 69.7306 43.2864 69.7629 42.2178C69.7887 41.1557 70.0662 40.2231 70.589 39.4266C71.1376 38.5976 71.9637 37.7428 73.0673 36.8685C74.171 35.9942 75.3262 35.1912 76.546 34.4529L77.2818 34.0449C77.5399 33.9089 77.7981 33.8506 78.0434 33.8765C78.2886 33.9024 78.4822 34.0384 78.6307 34.2845C78.7469 34.4788 78.7727 34.7184 78.7146 34.9969C78.6565 35.2754 78.5081 35.4891 78.2822 35.6186L76.759 36.4799C75.92 36.9527 75.1455 37.4643 74.4356 37.9954C73.7256 38.5329 73.1254 39.1092 72.6284 39.731C72.338 40.0742 72.0992 40.5664 71.9121 41.2075C71.7249 41.8487 71.641 42.4121 71.6733 42.9043C71.6991 43.3965 71.8604 43.6296 72.1509 43.6102C72.409 43.6749 72.6607 43.8563 72.8931 44.1412L72.8995 44.1477ZM80.4636 23.1391C80.8121 23.1391 81.0961 23.2816 81.3091 23.573C81.5221 23.8644 81.5479 24.1882 81.3736 24.5509C80.0377 27.5947 78.1402 32.6784 75.6747 39.8022L74.5453 42.9885L74.371 43.4806C74.1968 44.0441 74.0032 44.4974 73.7837 44.8342C73.5643 45.1709 73.2222 45.3846 72.764 45.4818C72.3574 45.5724 72.0347 45.4688 71.783 45.1709C71.5377 44.873 71.4603 44.5427 71.5442 44.1865C71.6281 43.8304 71.8604 43.6361 72.2412 43.6037C72.9382 42.0041 74.5776 37.6715 77.1527 30.5996C78.024 28.2876 78.8759 25.9821 79.715 23.6766C79.8569 23.314 80.1086 23.1391 80.4572 23.1391H80.4636Z" fill="#F66800"/>
<path d="M100.135 12.3688C100.529 12.2652 100.883 12.3299 101.2 12.5695C101.516 12.8027 101.619 13.133 101.503 13.5474L95.4621 38.0726C95.346 38.487 95.1007 38.7396 94.7264 38.8303C94.352 38.9209 94.01 38.8497 93.7066 38.6295C93.4033 38.4093 93.3065 38.0855 93.4227 37.6711L99.3797 13.1524C99.4959 12.7379 99.7476 12.4789 100.141 12.3688H100.135ZM111.655 23.9675C112.191 24.5763 112.43 25.2822 112.372 26.0723C112.314 26.8624 111.862 27.6525 111.023 28.449C109.112 30.2883 106.841 32.0821 104.22 33.8178C101.6 35.5534 98.7343 37.1335 95.6364 38.5453C95.262 38.7202 94.9329 38.6878 94.6554 38.4482C94.3779 38.2086 94.2617 37.8912 94.3069 37.4962C94.352 37.1012 94.5779 36.8162 94.9781 36.6349C100.109 34.2128 104.498 31.4022 108.151 28.2029C109.222 27.2445 109.829 26.4479 109.977 25.8068C110.119 25.1721 109.584 24.7706 108.37 24.6087C107.008 24.4274 105.53 24.4468 103.936 24.6605C102.342 24.8742 100.864 25.3405 99.5023 26.0658C99.128 26.2731 98.773 26.2731 98.4374 26.0658C98.1018 25.8586 97.9146 25.5672 97.8695 25.198C97.8243 24.8224 97.9921 24.531 98.3664 24.3302C100.161 23.3135 102.09 22.6982 104.149 22.491C106.208 22.2838 108.002 22.3615 109.538 22.7306C110.41 22.9508 111.113 23.3653 111.649 23.9805L111.655 23.9675ZM104.44 22.6076C102.684 23.7409 100.561 24.9973 98.0695 26.3896C97.7791 26.5321 97.508 26.5839 97.2628 26.5386C97.0175 26.4997 96.8046 26.3572 96.6303 26.1111C96.4819 25.891 96.4431 25.6319 96.5012 25.334C96.5593 25.0361 96.7013 24.8224 96.9336 24.6864C99.7734 23.0609 102.142 21.6297 104.04 20.3862C105.937 19.1428 107.35 17.9188 108.28 16.7078C108.77 16.0602 108.893 15.5615 108.648 15.2183C108.402 14.8751 107.918 14.5253 107.189 14.1821C106.408 13.8972 105.266 13.6964 103.775 13.5863C102.284 13.4762 100.812 13.664 99.3603 14.1627C98.986 14.2792 98.6633 14.2015 98.4052 13.936C98.147 13.664 98.0373 13.3467 98.0825 12.9775C98.1276 12.6084 98.3342 12.3688 98.7149 12.2522C99.9025 11.8636 101.303 11.6435 102.91 11.5852C104.517 11.5269 106.008 11.7017 107.389 12.0968C108.764 12.4918 109.745 13.1394 110.326 14.0202C110.848 14.8815 110.939 15.7234 110.61 16.5524C110.274 17.3813 109.706 18.2038 108.893 19.0263C107.673 20.2891 106.189 21.4807 104.433 22.614L104.44 22.6076Z" fill="#F66800"/>
<path d="M125.718 24.1625C125.602 24.3439 125.428 24.4604 125.195 24.5123C124.731 24.6094 124.408 24.5641 124.214 24.3698C124.027 24.182 123.917 23.8711 123.892 23.4372C123.892 23.1199 123.833 22.7184 123.717 22.2327C123.601 21.7469 123.459 21.3972 123.285 21.177C122.911 20.6266 122.459 20.4971 121.936 20.782C121.413 21.0734 120.91 21.585 120.413 22.3233C119.69 23.3984 119.174 24.2467 118.87 24.8684C118.567 25.4902 118.238 26.2673 117.889 27.1934L117.496 28.1842C117.296 28.929 117.302 29.5831 117.515 30.1465C117.728 30.7099 118.096 31.1114 118.599 31.3446C119.109 31.5777 119.677 31.6166 120.316 31.4482C121.362 31.2215 122.304 30.8977 123.143 30.4768C123.982 30.0623 125.04 29.3953 126.318 28.4757C126.667 28.1842 126.964 28.0612 127.209 28.1C127.454 28.1389 127.667 28.2943 127.841 28.5728C128.1 28.9614 128.145 29.2852 127.97 29.5442C127.796 29.8033 127.377 30.1659 126.712 30.6257C125.26 31.5583 124.175 32.1994 123.453 32.5491C122.73 32.8989 121.813 33.1773 120.716 33.3781C118.89 33.7019 117.528 33.5011 116.631 32.7888C115.966 32.1735 115.585 31.3964 115.501 30.4574C115.417 29.5183 115.546 28.385 115.895 27.0444C116.244 25.7362 116.85 24.3633 117.721 22.9256C118.593 21.4879 119.516 20.4388 120.503 19.7782C121.316 19.1889 122.162 18.8715 123.046 18.8327C123.93 18.7938 124.563 19.1889 124.937 20.0308C125.253 20.7885 125.486 21.4426 125.634 21.9801C125.776 22.5241 125.854 23.0551 125.854 23.5797C125.879 23.7805 125.841 23.9747 125.724 24.1561L125.718 24.1625ZM117.089 27.6273C116.902 27.5431 116.779 27.3553 116.721 27.0703C116.547 26.3839 116.837 25.9435 117.592 25.7362C118.606 25.5096 119.49 25.2894 120.245 25.0886C121.839 24.7001 123.42 24.3245 124.982 23.9683C125.505 23.8711 125.86 23.8776 126.047 23.9942C126.234 24.1107 126.331 24.3115 126.331 24.6029C126.415 24.9138 126.357 25.1663 126.157 25.3606C125.95 25.5484 125.692 25.6585 125.376 25.6844C122.478 26.5004 120 27.1351 117.941 27.5949C117.567 27.7115 117.283 27.7309 117.095 27.6402L117.089 27.6273Z" fill="#F66800"/>
<path d="M134.198 18.6376C134.43 18.4757 134.688 18.4109 134.979 18.4433C135.237 18.4822 135.456 18.6246 135.63 18.8707C135.805 19.1168 135.85 19.3629 135.759 19.6025C134.979 22.2254 134.404 24.2395 134.043 25.6513C133.681 27.0631 133.397 28.6044 133.197 30.2752C133.488 30.3983 133.72 30.6055 133.894 30.8969C134.069 31.1884 133.965 31.5381 133.591 31.9461C133.159 32.3605 132.694 32.5548 132.197 32.5354C131.706 32.516 131.371 32.2375 131.197 31.7C131.08 31.2725 131.08 30.6055 131.197 29.6924L131.242 29.3815C131.416 28.3194 131.752 26.7587 132.242 24.6993C132.733 22.6399 133.242 20.846 133.765 19.3176C133.823 19.0197 133.965 18.793 134.198 18.6311V18.6376ZM133.262 14.8491C133.133 14.6418 133.094 14.3893 133.152 14.0914C133.21 13.7675 133.378 13.5344 133.655 13.3984C133.933 13.2624 134.172 13.2236 134.372 13.2948C135.618 13.6575 136.721 14.1237 137.676 14.6872C137.909 14.8167 138.051 15.0045 138.109 15.2635C138.167 15.5226 138.135 15.7687 138.025 16.0148C137.909 16.2544 137.709 16.4292 137.418 16.5199C137.128 16.617 136.87 16.6041 136.637 16.4746C136.056 16.1443 135.624 15.9176 135.334 15.7946C135.043 15.6715 134.553 15.5096 133.856 15.3024C133.597 15.2052 133.397 15.0563 133.268 14.8491H133.262Z" fill="#F66800"/>
<path d="M144.544 24.0199C144.111 25.7879 143.717 27.6984 143.369 29.7642L143.149 31.1307C143.091 31.4286 142.975 31.6682 142.801 31.856C142.627 32.0438 142.407 32.1475 142.149 32.1734C141.891 32.1993 141.659 32.1086 141.452 31.9208C141.252 31.733 141.162 31.5063 141.194 31.2408L141.452 29.7383C141.768 27.8797 142.13 26.157 142.536 24.5704C142.943 22.9837 143.504 21.0538 144.234 18.7872L144.453 18.159C144.627 17.5373 144.847 17.1099 145.105 16.8832C145.337 16.6889 145.615 16.6112 145.931 16.6436C146.247 16.676 146.467 16.8185 146.583 17.071C146.699 17.2394 146.744 17.4661 146.712 17.7575C146.686 18.0489 146.609 18.308 146.493 18.5411C146.376 18.7678 146.273 18.8714 146.189 18.852C145.525 20.5358 144.969 22.2584 144.537 24.0264L144.544 24.0199ZM143.35 26.6233C142.988 26.6233 142.704 26.4808 142.504 26.1894C142.298 25.898 142.298 25.5742 142.504 25.205C142.82 24.6546 143.149 24.143 143.485 23.6637C143.821 23.1845 144.176 22.6988 144.55 22.2066L145.292 21.2287C145.525 20.8919 145.931 20.471 146.512 19.9723C147.093 19.4737 147.641 19.0268 148.164 18.6382C149.526 17.628 150.662 17.1941 151.578 17.3365C152.495 17.479 153.108 18.1784 153.424 19.4348C153.624 20.1148 153.637 21.274 153.444 22.8995C153.256 24.5315 152.96 26.4808 152.553 28.754L152.295 30.3018C152.263 30.6839 152.069 30.93 151.707 31.0465C151.346 31.1631 151.004 31.1242 150.688 30.93C150.371 30.7357 150.236 30.4507 150.294 30.0686L150.513 28.6957C150.746 27.4005 150.972 25.9887 151.185 24.4732C151.404 22.9578 151.527 21.8375 151.553 21.1057C151.636 20.199 151.527 19.6356 151.204 19.4089C150.881 19.1887 150.436 19.2923 149.855 19.7133C148.693 20.6199 147.59 21.6367 146.531 22.7506C145.473 23.871 144.666 24.9913 144.118 26.1052C143.969 26.4355 143.717 26.6039 143.356 26.6039L143.35 26.6233Z" fill="#F66800"/>
<path d="M158.045 21.0339C158.754 19.525 159.542 18.2233 160.413 17.1353C161.426 15.8919 162.582 14.9464 163.873 14.3052C165.163 13.6641 166.39 13.6576 167.545 14.2923C168.616 14.8428 169.178 15.7365 169.216 16.9734C169.262 18.2039 168.965 19.4602 168.326 20.7296C167.861 21.701 167.093 22.7501 166.022 23.8834C164.95 25.0168 163.976 25.9105 163.111 26.5581C161.865 27.4712 160.788 27.9505 159.871 27.9958C158.955 28.0411 158.264 27.7691 157.786 27.1798C157.309 26.5905 157.057 25.8522 157.025 24.952C156.999 23.8511 157.335 22.5429 158.045 21.0275V21.0339ZM161.175 37.7553C161.246 38.0662 161.213 38.3641 161.065 38.6361C160.917 38.8822 160.704 39.0506 160.413 39.1477C160.123 39.2448 159.877 39.2254 159.671 39.0959C158.683 38.39 158.161 37.4315 158.109 36.214C158.051 34.9965 158.458 33.7855 159.329 32.5809C160.052 31.5641 160.949 30.6122 162.027 29.7249C163.098 28.8377 164.247 28.067 165.46 27.4194C165.718 27.2834 165.989 27.2316 166.267 27.2705C166.544 27.3093 166.751 27.4388 166.899 27.659C166.983 27.8857 167.003 28.1447 166.945 28.4426C166.887 28.7405 166.745 28.9543 166.512 29.0903C164.337 30.2819 162.627 31.616 161.381 33.0796C160.717 33.8308 160.303 34.6015 160.142 35.3851C159.981 36.1687 160.181 36.7386 160.729 37.1012C160.962 37.2308 161.11 37.451 161.188 37.7618L161.175 37.7553ZM160.258 25.9429C161 25.6644 161.904 25.088 162.975 24.2202C163.524 23.741 164.027 23.2423 164.473 22.7242C164.925 22.2061 165.525 21.4549 166.273 20.464C166.099 20.0431 166.112 19.6286 166.319 19.2142C166.525 18.7997 166.796 18.5018 167.145 18.2945C167.287 17.6405 167.267 17.09 167.08 16.6431C166.893 16.1963 166.467 15.9502 165.796 15.9178C164.957 15.8401 164.156 16.125 163.401 16.7662C162.646 17.4073 161.949 18.1909 161.317 19.117C160.736 19.8618 160.194 20.8073 159.684 21.9536C159.174 23.0998 158.967 24.0454 159.051 24.7966C159.109 25.8392 159.51 26.2213 160.245 25.9429H160.258ZM168.39 18.6313C168.752 18.6313 169.042 18.7803 169.262 19.0846C169.481 19.389 169.5 19.7322 169.326 20.1273C168.455 22.0313 167.764 23.6697 167.261 25.0492C166.751 26.4286 166.067 28.3585 165.196 30.8453C164.324 33.358 163.718 35.0936 163.369 36.0521C163.021 37.043 162.504 37.9237 161.827 38.7073C161.142 39.4909 160.439 39.6205 159.716 39.0959C159.4 38.8887 159.297 38.6296 159.413 38.3123C159.529 37.995 159.748 37.71 160.065 37.451C160.381 37.1919 160.6 37.0753 160.717 37.0948C160.859 37.1725 161.13 36.6414 161.523 35.5016C161.917 34.3618 162.472 32.678 163.195 30.4373L163.976 28.1059C165.021 25.2305 166.222 22.2709 167.584 19.2206C167.758 18.8321 168.022 18.6313 168.39 18.6313Z" fill="#F66800"/>
<path d="M200.344 19.8568C199.027 21.709 197.175 24.0209 194.8 26.8057L193.238 28.632C192.915 29.0335 192.18 29.8689 191.018 31.1253L190.063 32.1161C189.572 32.6472 189.049 32.6925 188.501 32.2392C188.243 32.0254 188.114 31.7858 188.133 31.5074C188.146 31.2289 188.269 30.9634 188.501 30.7173L189.327 29.8236C187.791 28.8716 186.778 28.211 186.281 27.8419C185.79 27.4727 185.08 26.8316 184.151 25.9184C182.789 24.3447 181.808 22.784 181.214 21.2492C180.621 19.7143 180.524 18.037 180.93 16.2301C181.453 13.6591 182.867 11.2759 185.171 9.08049C187.475 6.88508 190.224 5.20129 193.412 4.00968C195.007 3.38797 196.678 3.00587 198.434 2.8634C200.189 2.72092 201.641 2.96702 202.803 3.60168C204.397 4.5472 205.217 5.89423 205.262 7.63631C205.307 9.37839 204.92 11.1658 204.107 13.005C202.919 15.7185 201.667 17.9981 200.344 19.8503V19.8568ZM198.459 5.11062C196.807 5.28547 195.226 5.65461 193.722 6.21156C192.36 6.5807 190.915 7.31251 189.398 8.39402C187.875 9.47554 186.545 10.7319 185.397 12.1631C184.254 13.5944 183.493 14.9932 183.112 16.3597C182.796 17.9852 182.886 19.4294 183.396 20.6987C183.906 21.968 184.648 23.1143 185.635 24.1375C186.997 25.627 188.753 26.9417 190.895 28.075C195.762 22.7969 199.227 18.1147 201.286 14.0218C202.099 12.3833 202.655 10.7902 202.958 9.2424C203.261 7.68812 202.893 6.50946 201.848 5.687C201.241 5.12357 200.112 4.93576 198.459 5.11062Z" fill="#F66800"/>
<path d="M213.674 4.7342C213.526 4.5982 213.448 4.50106 213.435 4.42334C213.422 4.3521 213.487 4.17725 213.629 3.90525L215.675 0.427565C215.875 0.0908061 216.146 -0.0451928 216.482 0.0130924C216.817 0.0713776 217.075 0.265662 217.262 0.582992C217.45 0.900323 217.456 1.21765 217.282 1.52203C216.617 2.79783 215.804 4.95439 214.849 7.99817C213.893 11.042 213.022 14.2153 212.241 17.5246C211.46 20.8339 210.95 23.4697 210.718 25.4319C210.718 25.5485 210.692 25.7557 210.634 26.0472C210.576 26.6365 210.583 26.9538 210.654 27.0056C210.725 27.0574 210.963 26.7336 211.37 26.0342L213.022 22.9775C213.222 22.6148 213.513 22.427 213.893 22.427C214.268 22.427 214.565 22.576 214.784 22.8803C215.004 23.1847 215.01 23.515 214.803 23.8841L212.583 27.7698C212.235 28.4692 211.899 28.9031 211.583 29.0715C211.26 29.2464 210.841 29.3176 210.324 29.3047C209.602 29.3047 209.105 29.0845 208.846 28.6376C208.588 28.1908 208.485 27.5755 208.543 26.7854C208.601 25.2117 209.208 22.0514 210.37 17.3044C211.531 12.5574 212.674 8.39321 213.803 4.81191L213.674 4.7342Z" fill="#F66800"/>
<path d="M227.045 20.1281C227.322 20.0893 227.561 20.1799 227.761 20.4001C227.961 20.5879 228.064 20.8211 228.064 21.0931C228.064 21.3651 227.961 21.6047 227.761 21.7925L227.458 22.1228C227.025 22.6214 226.651 22.9906 226.347 23.2172C226.044 23.4439 225.657 23.6641 225.192 23.8778C224.353 24.2923 223.585 24.4153 222.888 24.2405C222.191 24.0656 221.649 23.677 221.255 23.0877C220.862 22.4919 220.668 21.8184 220.668 21.0607C220.668 19.895 220.913 18.7487 221.41 17.6218C221.901 16.4885 222.553 15.4977 223.366 14.6493C224.553 13.3929 225.915 12.4733 227.451 11.8969C228.987 11.3206 230.22 11.2882 231.149 11.7933C232.195 12.4668 232.679 13.4253 232.608 14.6623C232.537 15.9057 232.066 17.2139 231.194 18.5933C230.033 20.7498 228.31 22.8416 226.018 24.8557C225.844 24.9593 225.612 24.9982 225.321 24.9787C225.031 24.9593 224.811 24.8104 224.669 24.5319C224.463 24.1433 224.437 23.8195 224.586 23.5605C224.728 23.3014 225.005 23.01 225.412 22.6862L225.805 22.3948C227.051 21.3327 228.148 20.0569 229.09 18.5544C230.033 17.0519 230.562 15.8474 230.678 14.9342C230.736 14.4356 230.581 14.047 230.22 13.7685C229.858 13.4901 229.284 13.4577 228.503 13.6649C227.083 14.0729 225.941 14.7141 225.07 15.6013C224.198 16.4885 223.534 17.4988 223.069 18.6386C222.895 19.1178 222.778 19.5776 222.72 20.018C222.662 20.4584 222.636 20.8534 222.636 21.2032C222.636 21.5788 222.798 21.8508 223.114 22.0127C223.43 22.1746 223.792 22.2264 224.198 22.1616C224.431 22.1163 224.74 21.9285 225.134 21.6047C225.528 21.2809 225.883 20.9635 226.199 20.6462L226.373 20.5037C226.548 20.2835 226.773 20.1605 227.045 20.1216V20.1281ZM235.106 4.13853C235.396 4.02844 235.674 4.03491 235.932 4.15796C236.222 4.28101 236.396 4.46881 236.454 4.72786C236.513 4.9869 236.467 5.27833 236.325 5.60861C235.719 6.93622 235.022 8.71068 234.241 10.9255C233.46 13.1404 232.937 14.8436 232.672 16.0222C232.498 16.9095 232.35 17.9845 232.214 19.2409C232.085 20.5037 232.092 21.3715 232.234 21.8572L232.279 21.9868C232.363 22.2976 232.479 22.5502 232.627 22.7445C232.802 22.9906 232.86 23.2626 232.802 23.5605C232.743 23.8584 232.582 24.0721 232.324 24.2081C231.775 24.4542 231.356 24.4542 231.065 24.2016C230.775 23.949 230.53 23.5087 230.323 22.8869C230.239 22.6603 230.162 22.3041 230.104 21.8119C230.046 21.3197 230.033 20.9182 230.059 20.5944C230.175 18.6062 230.71 15.9381 231.666 12.5899C232.621 9.24173 233.563 6.59946 234.492 4.6631C234.609 4.42348 234.809 4.24215 235.099 4.13205L235.106 4.13853Z" fill="#F66800"/>
<path d="M241.367 25.0555C241.077 24.9065 240.902 24.7123 240.844 24.4856C240.612 24.097 240.367 23.825 240.102 23.6696L239.928 23.553C239.695 23.3717 239.56 23.1321 239.515 22.8471C239.47 22.5622 239.566 22.2772 239.799 21.9923C239.941 21.8045 240.154 21.6685 240.431 21.5713C240.709 21.4742 241.019 21.5325 241.367 21.7332C241.948 22.1218 242.471 22.737 242.935 23.5725C243.019 23.7667 243.019 24.0258 242.935 24.3366C242.851 24.6475 242.613 24.8936 242.238 25.0684C241.948 25.2109 241.657 25.2044 241.367 25.049V25.0555Z" fill="#F66800"/>
</g>
<defs>
<clipPath id="clip0_2628_15080">
<rect width="243" height="46" fill="white"/>
</clipPath>
</defs>
</svg>
