<svg width="266" height="97" viewBox="0 0 266 97" fill="none" xmlns="http://www.w3.org/2000/svg">
<path d="M87.6769 27.1992C72.4637 27.1992 60.1367 39.9826 60.1367 55.7589C60.1367 71.5353 72.4637 84.3187 87.6769 84.3187C102.89 84.3187 115.217 71.5353 115.217 55.7589C115.217 39.9826 102.89 27.1992 87.6769 27.1992ZM87.6769 73.8882C78.0274 73.8882 70.1948 65.7747 70.1948 55.7589C70.1948 45.7432 78.0187 37.6296 87.6769 37.6296C97.3351 37.6296 105.159 45.7432 105.159 55.7589C105.159 65.7747 97.3351 73.8882 87.6769 73.8882Z" fill="#00600E"/>
<path d="M221.359 65.2357H230.487C230.87 72.8444 235.355 77.1085 242.693 77.1085C248.891 77.1085 253.072 74.0344 253.072 68.9499C253.072 62.8737 247.065 61.6206 239.502 59.448C231.365 57.041 222.698 53.8046 222.698 43.0857C222.698 32.3667 231.252 28.0215 241.363 28.0215C253.072 28.0215 260.183 33.7821 260.714 45.3304H251.586C251.168 38.6683 247.17 35.9818 241.171 35.9818C236.46 35.9818 231.93 37.7578 231.93 42.7611C231.93 48.08 237.103 49.4683 243.91 51.3975C255.472 54.6339 262.313 58.4924 262.313 68.5081C262.313 80.1376 252.846 85.0688 242.771 85.0688C229.427 85.0688 221.672 77.5412 221.368 65.2357H221.359Z" fill="#00600E"/>
<path d="M39.2501 46.4833C39.0675 44.7434 39.4153 38.3788 41.2669 34.8899C43.5706 30.5447 46.9784 27.2271 57.4451 28.9761C58.5839 29.1654 58.5665 40.3891 52.3508 44.9778C48.5866 47.7544 42.0319 47.1234 39.2501 46.4923V46.4833Z" fill="#00600E"/>
<path d="M44.1946 27.0459C43.5687 26.1715 41.804 22.6376 41.7257 20.1584C41.6301 17.0753 42.4473 14.1634 48.6021 11.6572C49.2715 11.3868 52.6966 17.4088 50.7667 21.9164C49.6018 24.6479 45.8811 26.46 44.1946 27.0369V27.0459Z" fill="#00600E"/>
<path d="M55.17 22.0345C55.1005 21.106 55.3873 17.7253 56.4218 15.9043C57.7084 13.6325 59.5775 11.9286 65.1064 13.0285C65.7062 13.1457 65.5323 19.1136 62.1507 21.4485C60.1078 22.8639 56.6305 22.4132 55.17 22.0345Z" fill="#00600E"/>
<path d="M4.69531 18.8438H17.9873L37.5644 51.1177C37.747 51.4152 37.8426 51.7577 37.8426 52.1093V84.0767H27.2977V56.1481C27.2977 55.7965 27.2021 55.4449 27.0109 55.1384L4.69531 18.8438Z" fill="#00600E"/>
<path d="M216.043 49.9358C216.043 34.8266 207.724 29.2012 197.866 29.2012H182.009C176.976 29.2012 174.516 31.7524 174.516 34.8987V84.2652H183.496V70.2828H194.206C194.38 70.2828 194.554 70.2828 194.727 70.2828C200.004 70.1566 204.733 73.7356 206.072 79.0364C206.489 80.6952 206.75 82.5162 206.75 84.4815H215.73C215.73 75.4124 211.323 69.6427 207.176 66.5956C213.287 62.1602 216.035 56.643 216.035 49.9358H216.043ZM183.496 62.3045V39.866C183.496 39.1177 184.078 38.5137 184.8 38.5137H198.257C202.96 38.5137 207.054 41.9845 207.054 49.5752C207.054 57.1659 201.43 62.3045 194.214 62.3045H183.504H183.496Z" fill="#00600E"/>
<path d="M122.883 64.3678V57.877H132.124V64.6833C132.124 71.9404 136.644 77.061 143.799 77.061C150.953 77.061 155.396 72.3281 155.396 64.8366V57.877H164.636V64.5211C164.636 77.0159 155.7 85.0664 143.686 85.0664C131.672 85.0664 122.892 76.6643 122.892 64.3678H122.883Z" fill="#00600E"/>
<path d="M128.04 52.2174C131.324 52.2174 133.986 49.4566 133.986 46.0511C133.986 42.6455 131.324 39.8848 128.04 39.8848C124.756 39.8848 122.094 42.6455 122.094 46.0511C122.094 49.4566 124.756 52.2174 128.04 52.2174Z" fill="#00600E"/>
<path d="M159.974 52.2174C163.258 52.2174 165.92 49.4566 165.92 46.0511C165.92 42.6455 163.258 39.8848 159.974 39.8848C156.69 39.8848 154.027 42.6455 154.027 46.0511C154.027 49.4566 156.69 52.2174 159.974 52.2174Z" fill="#00600E"/>
</svg>
