<svg width="304" height="98" viewBox="0 0 304 98" fill="none" xmlns="http://www.w3.org/2000/svg">
<path d="M110.799 16.374C97.4529 16.374 86.6387 27.3685 86.6387 40.9372C86.6387 54.5059 97.4529 65.5005 110.799 65.5005C124.145 65.5005 134.959 54.5059 134.959 40.9372C134.959 27.3685 124.145 16.374 110.799 16.374ZM110.799 56.5296C102.334 56.5296 95.4624 49.5514 95.4624 40.9372C95.4624 32.3231 102.326 25.3449 110.799 25.3449C119.272 25.3449 126.136 32.3231 126.136 40.9372C126.136 49.5514 119.272 56.5296 110.799 56.5296Z" fill="white"/>
<path d="M228.072 49.0877H236.08C236.416 55.6317 240.351 59.2991 246.787 59.2991C252.225 59.2991 255.893 56.6551 255.893 52.2821C255.893 47.0562 250.623 45.9785 243.989 44.1099C236.85 42.0397 229.247 39.2562 229.247 30.0372C229.247 20.8183 236.751 17.0811 245.621 17.0811C255.893 17.0811 262.132 22.0356 262.597 31.9679H254.589C254.223 26.238 250.715 23.9274 245.453 23.9274C241.319 23.9274 237.346 25.4549 237.346 29.7581C237.346 34.3327 241.884 35.5267 247.855 37.186C257.998 39.9695 264 43.288 264 51.9022C264 61.9043 255.695 66.1455 246.856 66.1455C235.15 66.1455 228.347 59.6713 228.08 49.0877H228.072Z" fill="white"/>
<path d="M68.3151 32.96C68.155 31.4635 68.46 25.9895 70.0845 22.9889C72.1054 19.2517 75.095 16.3984 84.2771 17.9026C85.2762 18.0654 85.2609 27.7186 79.8081 31.6651C76.5059 34.0532 70.7556 33.5105 68.3151 32.9677V32.96Z" fill="white"/>
<path d="M72.6544 16.2429C72.1053 15.4908 70.5572 12.4514 70.4885 10.3192C70.4047 7.66745 71.1215 5.16305 76.521 3.00757C77.1082 2.77496 80.113 7.95433 78.42 11.8311C77.398 14.1804 74.1339 15.7389 72.6544 16.2351V16.2429Z" fill="white"/>
<path d="M82.2801 11.9322C82.2191 11.1336 82.4708 8.22604 83.3783 6.65983C84.507 4.70593 86.1467 3.24051 90.9971 4.18645C91.5233 4.28724 91.3708 9.42009 88.4041 11.4283C86.6119 12.6456 83.5613 12.2579 82.2801 11.9322Z" fill="white"/>
<path d="M38 9.1875H49.6607L66.8353 36.9452C66.9955 37.201 67.0794 37.4957 67.0794 37.7981V65.2921H57.8286V41.2717C57.8286 40.9693 57.7447 40.6669 57.5769 40.4033L38 9.1875Z" fill="white"/>
<path d="M223.41 35.9298C223.41 22.9349 216.111 18.0967 207.463 18.0967H193.552C189.137 18.0967 186.979 20.2909 186.979 22.9969V65.4553H194.857V53.4296H204.252C204.405 53.4296 204.557 53.4296 204.71 53.4296C209.339 53.321 213.488 56.3992 214.662 60.9583C215.028 62.3849 215.257 63.9511 215.257 65.6414H223.135C223.135 57.8413 219.269 52.8791 215.631 50.2584C220.992 46.4436 223.402 41.6985 223.402 35.9298H223.41ZM194.857 46.5677V27.2691C194.857 26.6256 195.368 26.1061 196.001 26.1061H207.806C211.932 26.1061 215.524 29.0912 215.524 35.6197C215.524 42.1482 210.59 46.5677 204.26 46.5677H194.864H194.857Z" fill="white"/>
<path d="M141.678 48.3423V42.7598H149.785V48.6137C149.785 54.8553 153.75 59.2593 160.027 59.2593C166.303 59.2593 170.2 55.1887 170.2 48.7455V42.7598H178.307V48.4741C178.307 59.2205 170.467 66.1445 159.928 66.1445C149.388 66.1445 141.685 58.9181 141.685 48.3423H141.678Z" fill="white"/>
<path d="M146.211 37.891C149.092 37.891 151.427 35.5166 151.427 32.5876C151.427 29.6586 149.092 27.2842 146.211 27.2842C143.33 27.2842 140.994 29.6586 140.994 32.5876C140.994 35.5166 143.33 37.891 146.211 37.891Z" fill="white"/>
<path d="M174.222 37.891C177.103 37.891 179.439 35.5166 179.439 32.5876C179.439 29.6586 177.103 27.2842 174.222 27.2842C171.341 27.2842 169.006 29.6586 169.006 32.5876C169.006 35.5166 171.341 37.891 174.222 37.891Z" fill="white"/>
<path d="M141.444 82.2622H141.72C142.313 82.2622 143.271 82.2622 143.271 83.4508C143.271 84.2632 142.748 85.2607 141.561 86.7839C142.519 87.8829 143.06 88.3249 143.459 88.6475C143.753 88.8805 143.894 89.0537 143.894 89.2866C143.894 89.6032 143.647 90.1348 143.195 90.1348C143.054 90.1348 142.901 90.1169 142.407 89.6211C142.026 89.2329 141.362 88.4504 141.185 88.2533V94.4296C141.185 94.9432 141.185 95.3853 140.486 95.3853C139.787 95.3853 139.769 94.9432 139.769 94.4296V88.7192C139.229 89.215 138.007 90.2961 137.59 90.2961C137.12 90.2961 136.891 89.8003 136.891 89.4599C136.891 89.1074 137.032 88.9999 137.555 88.6475C140.046 86.9093 141.702 84.4663 141.702 83.9526C141.702 83.7196 141.526 83.6181 141.303 83.6181H137.884C137.414 83.6181 136.943 83.6181 136.943 82.9789C136.943 82.2681 137.378 82.2681 137.884 82.2681H141.42L141.444 82.2622ZM151.89 83.8152C152.378 83.8152 152.848 83.8152 152.848 84.526C152.848 85.2906 152.413 85.2906 151.89 85.2906H148.929V93.7904H152.313C152.801 93.7904 153.253 93.7904 153.253 94.5192C153.253 95.2479 152.801 95.2479 152.313 95.2479H143.876C143.371 95.2479 142.936 95.2479 142.936 94.5192C142.936 93.7904 143.371 93.7904 143.876 93.7904H147.466V85.2906H144.711C144.205 85.2906 143.753 85.2906 143.753 84.5618C143.753 83.8331 144.188 83.8152 144.711 83.8152H147.466V79.2576C147.466 78.8335 147.73 78.6006 148.2 78.6006C148.67 78.6006 148.935 78.8335 148.935 79.2576V83.8152H151.896H151.89Z" fill="white"/>
<path d="M84.6132 82.1008C84.4193 82.1008 83.9141 82.1008 83.9141 81.4079C83.9141 80.715 84.4193 80.715 84.6132 80.715H89.6013C89.7599 80.255 89.895 79.8668 90.0713 79.2993C90.2299 78.8036 90.3474 78.6064 90.8586 78.6064C91.0995 78.6064 91.6282 78.696 91.6282 79.156C91.6282 79.4726 91.3169 80.3626 91.1935 80.715H99.6127C99.8066 80.715 100.312 80.715 100.312 81.4079C100.312 82.1008 99.8066 82.1008 99.6127 82.1008H90.6177C90.2358 82.9191 90.0243 83.3253 89.66 83.9286H96.3696C97.2391 83.9286 98.232 84.0361 98.232 85.6668V93.3065C98.232 94.2264 98.1086 95.206 96.5223 95.206H94.8831C94.2192 95.206 93.9078 95.0984 93.9078 94.3697C93.9078 93.7664 94.3426 93.7843 94.8302 93.7843H96.158C96.6457 93.7843 96.8043 93.5155 96.8043 93.1273V91.3174H88.908V94.3458C88.908 94.8595 88.908 95.3015 88.1912 95.3015C87.4745 95.3015 87.4921 94.8595 87.4921 94.3458V86.7778C87.1631 87.1302 86.5344 87.7693 85.659 88.4801C85.2242 88.8326 85.0832 88.958 84.86 88.958C84.3547 88.958 84.0609 88.4085 84.0609 88.1277C84.0609 87.8111 84.2196 87.6857 84.9481 87.1541C85.941 86.4254 87.7565 84.6931 89.0079 82.1008H84.6132ZM96.8161 85.9296C96.8161 85.4876 96.6046 85.2546 96.1522 85.2546H89.5602C89.0725 85.2546 88.8963 85.5055 88.8963 85.9296V87.0645H96.8102V85.9296H96.8161ZM96.7984 88.3009H88.9021V90.075H96.7984V88.3009Z" fill="white"/>
<path d="M103.519 94.31C103.519 94.8058 103.519 95.2657 102.82 95.2657C102.121 95.2657 102.104 94.8058 102.104 94.31V80.715C102.104 79.5264 102.538 79.1739 103.637 79.1739H106.199C106.721 79.1739 107.609 79.1739 107.609 80.1476C107.609 80.7329 107.015 82.1128 106.334 83.6061C106.093 84.1197 105.917 84.4722 105.917 84.6334C105.917 84.7947 105.952 84.8485 106.316 85.2905C107.45 86.6225 107.797 88.0202 107.797 88.9939C107.797 90.1825 107.186 91.5623 105.423 91.5623H104.689C104.236 91.5623 104.007 91.192 104.007 90.75C104.007 90.308 104.283 90.1109 104.477 90.1109H105.247C106.034 90.1109 106.328 89.7226 106.328 88.7788C106.328 87.5902 105.875 86.742 105.229 85.9774C104.636 85.2666 104.53 85.1471 104.53 84.8067C104.53 84.4542 104.636 84.1855 104.982 83.4269C105.47 82.3278 105.922 81.1033 105.922 80.8225C105.922 80.506 105.658 80.506 105.347 80.506H104.007C103.696 80.506 103.502 80.6314 103.502 81.0017V94.31H103.519ZM110.129 87.0944V92.9959C110.722 92.8705 111.228 92.745 111.645 92.6435C112.044 92.536 112.708 92.3448 112.867 92.3448C113.284 92.3448 113.372 92.7152 113.372 92.9661C113.372 93.4977 113.143 93.5873 112.432 93.7963C111.422 94.0771 107.914 94.9133 107.603 94.9133C107.168 94.9133 106.992 94.4534 106.992 94.1129C106.992 93.8142 107.15 93.6171 107.409 93.5455C107.603 93.4917 108.437 93.3483 108.748 93.2946V80.7091C108.748 79.9445 108.872 79.168 110.158 79.168H115.652C116.386 79.168 117.185 79.2755 117.185 80.6015V85.5294C117.185 86.2761 117.079 87.0884 115.775 87.0884H113.196C113.543 88.3846 113.772 88.9341 114.118 89.6927C114.888 89.2328 115.599 88.7012 116.263 88.08C116.592 87.7634 116.75 87.6559 116.962 87.6559C117.326 87.6559 117.679 87.9904 117.679 88.3846C117.679 88.6176 117.608 88.8087 117.103 89.2149C116.369 89.8003 115.587 90.3498 114.765 90.8276C115.517 91.9626 116.369 92.6734 116.962 93.1512C117.732 93.7724 117.814 93.8441 117.814 94.089C117.814 94.4594 117.467 94.991 117.027 94.991C116.627 94.991 115.528 93.9457 115.058 93.4499C112.65 90.9531 112.062 87.9904 111.886 87.0884H110.123L110.129 87.0944ZM115.775 82.507V80.948C115.775 80.5956 115.599 80.4522 115.288 80.4522H110.634C110.27 80.4522 110.147 80.6314 110.147 80.948V82.507H115.775ZM110.147 83.6957V85.8042H115.288C115.634 85.8042 115.775 85.625 115.775 85.3084V83.6957H110.147Z" fill="white"/>
<path d="M123.678 85.2847C123.173 85.2847 122.756 85.2847 122.756 84.5919C122.756 84.4664 122.773 84.3947 122.791 84.3111C121.657 85.0219 120.37 85.7626 119.965 85.7626C119.442 85.7626 119.178 85.2131 119.178 84.8427C119.178 84.4724 119.454 84.347 119.859 84.1678C122.944 82.8357 125.071 80.8885 126.046 79.646C126.534 79.0248 126.71 78.7979 127.403 78.7979C128.096 78.7979 128.308 79.0666 128.76 79.6341C129.912 81.0318 132.039 82.9313 134.706 84.12C135.476 84.4724 135.593 84.5441 135.593 84.8845C135.593 85.225 135.329 85.8044 134.806 85.8044C134.318 85.8044 132.103 84.3708 132.05 84.335C132.068 84.4246 132.086 84.4963 132.086 84.6157C132.086 85.2907 131.651 85.2907 131.163 85.2907H123.666L123.678 85.2847ZM120.435 88.9403C119.965 88.9403 119.513 88.9403 119.513 88.2833C119.513 87.5725 119.93 87.5725 120.435 87.5725H134.295C134.765 87.5725 135.217 87.5725 135.217 88.2295C135.217 88.9403 134.8 88.9403 134.295 88.9403H126.034C125.3 90.6248 124.794 91.6701 123.802 93.4621C127.744 93.3187 129.348 93.2172 131.751 93.02C131.263 92.3988 130.775 91.8134 130.253 91.2281C129.694 90.6248 129.624 90.4993 129.624 90.2903C129.624 89.8841 130.006 89.6332 130.358 89.6332C130.67 89.6332 130.723 89.687 131.733 90.7502C132.797 91.8851 133.531 92.8408 134.207 93.8503C134.453 94.2027 134.571 94.3998 134.571 94.6328C134.571 95.0211 134.207 95.3974 133.772 95.3974C133.496 95.3974 133.319 95.2361 133.178 95.027C132.902 94.5671 132.867 94.5133 132.638 94.2147C130.599 94.4476 128.525 94.5671 126.469 94.6925C125.494 94.7463 121.152 94.9613 120.523 94.9613C120.088 94.9613 119.806 94.7642 119.806 94.1968C119.806 93.6831 120.053 93.5218 120.594 93.5218H122.215C123.279 91.694 124.078 89.693 124.36 88.9463H120.435V88.9403ZM131.486 83.9408C129.166 82.2743 128.137 81.0318 127.773 80.5719C127.685 80.4465 127.562 80.3389 127.409 80.3389C127.268 80.3389 127.168 80.4465 127.045 80.6077C126.575 81.2648 125.212 82.6446 123.367 83.9408H131.492H131.486Z" fill="white"/>
<path d="M169.505 93.6766C169.698 93.6766 170.321 93.6766 170.321 94.4771C170.321 95.2775 169.71 95.2954 169.505 95.2954H155.627C155.433 95.2954 154.811 95.2954 154.811 94.495C154.811 93.6946 155.422 93.6826 155.627 93.6826H163.882C164.528 90.1704 165.251 84.1793 165.251 83.4684C165.251 83.1339 165.251 82.7576 164.605 82.7576H157.407C157.214 82.7576 156.585 82.7576 156.585 81.9393C156.585 81.121 157.196 81.127 157.407 81.127H165.533C166.285 81.127 166.996 81.3957 166.996 82.5784C166.996 83.0025 166.908 84.1016 166.837 84.8662C166.543 88.2171 165.838 91.9743 165.556 93.6766H169.505Z" fill="white"/>
<path d="M185.214 80.9474C186.213 80.9474 186.471 81.6044 186.471 82.1719C186.471 83.0798 185.525 84.818 184.779 85.7439C183.592 87.2372 181.771 88.2466 181.424 88.2466C180.989 88.2466 180.584 87.8584 180.584 87.3566C180.584 87.0221 180.707 86.9504 181.336 86.61C183.727 85.3317 184.567 83.1276 184.567 82.7573C184.567 82.4526 184.186 82.4526 184.097 82.4526H172.688C172.459 82.4526 171.865 82.4526 171.865 81.706C171.865 80.9593 172.459 80.9414 172.688 80.9414H185.22L185.214 80.9474ZM179.55 85.0689C179.55 86.6518 179.233 88.7125 178.657 90.17C177.505 93.1208 175.514 94.3811 174.603 94.9486C174.204 95.1994 173.869 95.3727 173.575 95.3727C173.105 95.3727 172.752 94.9127 172.752 94.4647C172.752 94.1302 173.034 93.9869 173.24 93.8794C177.558 91.7469 177.782 87.6613 177.852 85.051C177.87 84.6806 177.905 84.1789 178.728 84.1789C179.48 84.1789 179.55 84.6747 179.55 85.0689Z" fill="white"/>
<path d="M200.312 86.6592C200.524 86.6592 201.147 86.6592 201.147 87.5074C201.147 88.3556 200.518 88.3556 200.312 88.3556H188.867C188.656 88.3556 188.033 88.3556 188.033 87.5074C188.033 86.6592 188.662 86.6592 188.867 86.6592H200.312Z" fill="white"/>
<path d="M203.934 82.9376C203.669 82.9376 203.111 82.9197 203.111 82.1731C203.111 81.4264 203.687 81.4085 203.934 81.4085H212.6C212.911 81.4085 213.892 81.4264 213.892 82.5613C213.892 83.308 213.175 86.2109 211.401 88.642C213.058 89.9561 213.387 90.2548 216.354 92.9487C217.153 93.6953 217.294 93.9403 217.294 94.2449C217.294 94.7407 216.806 95.1648 216.319 95.1648C216.025 95.1648 215.937 95.0752 215.308 94.4002C213.393 92.3454 211.836 90.9955 210.479 89.8068C207.518 93.2294 203.851 95.2842 203.293 95.2842C202.841 95.2842 202.477 94.8422 202.477 94.3464C202.477 93.9402 202.753 93.7969 203.017 93.6715C204.95 92.7337 209.956 89.5738 211.736 84.8252C211.877 84.4727 212.135 83.6723 212.135 83.3378C212.135 83.087 211.942 82.9317 211.683 82.9317H203.939L203.934 82.9376ZM215.561 79.7659C215.684 80.0346 216.189 81.2711 216.189 81.5937C216.189 82.1074 215.772 82.2328 215.543 82.2328C215.249 82.2328 215.003 82.0715 214.914 81.7908C214.791 81.4383 214.685 80.9904 214.515 80.5483C214.374 80.1601 214.339 80.0167 214.339 79.8913C214.339 79.4314 214.826 79.3238 215.091 79.3597C215.32 79.3955 215.473 79.5568 215.561 79.7659ZM217.899 79.9212C218.04 80.2377 218.369 81.0919 218.369 81.3906C218.369 81.7071 218.105 81.9939 217.67 81.9939C217.394 81.9939 217.2 81.8147 217.112 81.5518C217.024 81.3069 216.606 80.0824 216.554 79.9391C216.536 79.8853 216.518 79.7599 216.518 79.6882C216.518 79.3358 216.783 79.1387 217.218 79.1387C217.564 79.1387 217.705 79.4732 217.899 79.9212Z" fill="white"/>
<path d="M139.742 82.9559V79.2645C139.742 78.8404 140.007 78.6074 140.477 78.6074C140.947 78.6074 141.211 78.8404 141.211 79.2645V82.9559H139.748H139.742Z" fill="white"/>
</svg>
