<svg width="205" height="72" viewBox="0 0 205 72" fill="none" xmlns="http://www.w3.org/2000/svg">
<path d="M65.8912 21.3616C53.8115 21.3616 44.0234 31.4016 44.0234 43.7923C44.0234 56.1829 53.8115 66.2229 65.8912 66.2229C77.9709 66.2229 87.7589 56.1829 87.7589 43.7923C87.7589 31.4016 77.9709 21.3616 65.8912 21.3616ZM65.8912 58.0309C58.2292 58.0309 52.0099 51.6586 52.0099 43.7923C52.0099 35.926 58.2223 29.5536 65.8912 29.5536C73.5601 29.5536 79.7725 35.926 79.7725 43.7923C79.7725 51.6586 73.5601 58.0309 65.8912 58.0309Z" fill="#00600E"/>
<path d="M172.037 51.2344H179.285C179.588 57.2102 183.15 60.5593 188.976 60.5593C193.898 60.5593 197.218 58.1449 197.218 54.1515C197.218 49.3793 192.448 48.3952 186.443 46.6888C179.982 44.7983 173.1 42.2565 173.1 33.8379C173.1 25.4193 179.892 22.0066 187.92 22.0066C197.218 22.0066 202.864 26.531 203.285 35.6009H196.038C195.706 30.3685 192.531 28.2586 187.768 28.2586C184.027 28.2586 180.431 29.6534 180.431 33.583C180.431 37.7604 184.538 38.8508 189.942 40.366C199.123 42.9079 204.555 45.9383 204.555 53.8046C204.555 62.9383 197.038 66.8112 189.038 66.8112C178.443 66.8112 172.285 60.8991 172.044 51.2344H172.037Z" fill="#00600E"/>
<path d="M27.438 36.5064C27.2931 35.1399 27.5692 30.1411 29.0394 27.401C30.8687 23.9883 33.5745 21.3827 41.8854 22.7563C42.7896 22.905 42.7758 31.72 37.8404 35.3239C34.8515 37.5047 29.6469 37.0091 27.438 36.5135V36.5064Z" fill="#00600E"/>
<path d="M31.3643 21.241C30.8673 20.5542 29.4661 17.7787 29.404 15.8316C29.328 13.4101 29.9769 11.1231 34.864 9.1548C35.3955 8.94239 38.1152 13.6721 36.5828 17.2123C35.6578 19.3576 32.7035 20.7808 31.3643 21.2339V21.241Z" fill="#00600E"/>
<path d="M40.0784 17.3051C40.0231 16.5758 40.2509 13.9206 41.0724 12.4904C42.094 10.7062 43.578 9.36796 47.9682 10.2318C48.4444 10.3238 48.3064 15.011 45.6212 16.8448C43.9991 17.9565 41.238 17.6024 40.0784 17.3051Z" fill="#00600E"/>
<path d="M0 14.7983H10.5542L26.0991 40.1461C26.2441 40.3797 26.32 40.6488 26.32 40.9249V66.032H17.947V44.0969C17.947 43.8208 17.8711 43.5447 17.7192 43.3039L0 14.7983Z" fill="#00600E"/>
<path d="M167.816 39.2188C167.816 27.3521 161.21 22.934 153.382 22.934H140.792C136.795 22.934 134.842 24.9377 134.842 27.4088V66.1809H141.972V55.1993H150.476C150.614 55.1993 150.753 55.1993 150.891 55.1993C155.081 55.1001 158.836 57.911 159.899 62.0743C160.23 63.3771 160.437 64.8073 160.437 66.3509H167.567C167.567 59.228 164.068 54.6965 160.775 52.3034C165.628 48.8198 167.809 44.4866 167.809 39.2188H167.816ZM141.972 48.9331V31.3101C141.972 30.7224 142.435 30.248 143.008 30.248H153.693C157.427 30.248 160.679 32.9739 160.679 38.9356C160.679 44.8973 156.213 48.9331 150.483 48.9331H141.979H141.972Z" fill="#00600E"/>
<path d="M93.8418 50.5537V45.4558H101.179V50.8015C101.179 56.5012 104.769 60.5229 110.45 60.5229C116.131 60.5229 119.658 56.8057 119.658 50.9219V45.4558H126.995V50.674C126.995 60.4875 119.899 66.8102 110.36 66.8102C100.82 66.8102 93.8487 60.2113 93.8487 50.5537H93.8418Z" fill="#EB6A00"/>
<path d="M97.9421 41.0102C100.55 41.0102 102.664 38.8419 102.664 36.1672C102.664 33.4925 100.55 31.3242 97.9421 31.3242C95.3346 31.3242 93.2207 33.4925 93.2207 36.1672C93.2207 38.8419 95.3346 41.0102 97.9421 41.0102Z" fill="#EB6A00"/>
<path d="M123.295 41.0102C125.903 41.0102 128.017 38.8419 128.017 36.1672C128.017 33.4925 125.903 31.3242 123.295 31.3242C120.688 31.3242 118.574 33.4925 118.574 36.1672C118.574 38.8419 120.688 41.0102 123.295 41.0102Z" fill="#EB6A00"/>
<path d="M91.7665 9.902H104.409V11.134H91.7665V9.902ZM93.0125 6.99H101.035V8.208H93.0125V6.99ZM96.4005 5.184H97.7725V10.56H96.4005V5.184ZM101.637 12.296L102.757 13.262C102.159 13.5233 101.497 13.7707 100.769 14.004C100.05 14.2373 99.3032 14.4567 98.5285 14.662C97.7632 14.8673 97.0165 15.0493 96.2885 15.208C96.2605 15.068 96.2045 14.9 96.1205 14.704C96.0365 14.4987 95.9525 14.3307 95.8685 14.2C96.5685 14.0413 97.2732 13.8593 97.9825 13.654C98.7012 13.4393 99.3779 13.2153 100.013 12.982C100.647 12.7487 101.189 12.52 101.637 12.296ZM102.631 5.73L103.849 6.332C102.925 7.648 101.856 8.85667 100.643 9.958C99.4385 11.0593 98.1365 12.044 96.7365 12.912C95.3365 13.7707 93.8852 14.508 92.3825 15.124C92.3172 15.0213 92.2285 14.9 92.1165 14.76C92.0045 14.62 91.8879 14.48 91.7665 14.34C91.6452 14.2 91.5379 14.088 91.4445 14.004C92.9659 13.444 94.4172 12.758 95.7985 11.946C97.1892 11.1247 98.4632 10.1913 99.6205 9.146C100.787 8.09133 101.791 6.95267 102.631 5.73ZM95.4485 12.212H96.8205V16.146C96.8205 16.3233 96.8485 16.4587 96.9045 16.552C96.9605 16.636 97.0772 16.6967 97.2545 16.734C97.4412 16.762 97.7119 16.776 98.0665 16.776C98.1692 16.776 98.3279 16.776 98.5425 16.776C98.7665 16.776 99.0185 16.776 99.2985 16.776C99.5879 16.776 99.8725 16.776 100.153 16.776C100.442 16.776 100.708 16.776 100.951 16.776C101.193 16.776 101.38 16.776 101.511 16.776C101.819 16.776 102.047 16.734 102.197 16.65C102.355 16.5567 102.463 16.3793 102.519 16.118C102.584 15.8473 102.635 15.4507 102.673 14.928C102.775 14.9933 102.901 15.0633 103.051 15.138C103.2 15.2033 103.354 15.2593 103.513 15.306C103.671 15.3527 103.811 15.39 103.933 15.418C103.867 16.09 103.76 16.6127 103.611 16.986C103.461 17.3593 103.228 17.616 102.911 17.756C102.603 17.896 102.164 17.966 101.595 17.966C101.501 17.966 101.333 17.966 101.091 17.966C100.848 17.966 100.568 17.966 100.251 17.966C99.9425 17.966 99.6299 17.966 99.3125 17.966C98.9952 17.966 98.7152 17.966 98.4725 17.966C98.2392 17.966 98.0805 17.966 97.9965 17.966C97.3339 17.966 96.8159 17.9147 96.4425 17.812C96.0785 17.7093 95.8219 17.5227 95.6725 17.252C95.5232 16.9907 95.4485 16.622 95.4485 16.146V12.212ZM108.707 7.13C108.679 7.26067 108.655 7.41933 108.637 7.606C108.618 7.79267 108.599 7.97933 108.581 8.166C108.571 8.35267 108.567 8.51133 108.567 8.642C108.567 8.93133 108.567 9.25333 108.567 9.608C108.576 9.96267 108.585 10.3267 108.595 10.7C108.604 11.064 108.627 11.428 108.665 11.792C108.739 12.5293 108.851 13.1733 109.001 13.724C109.15 14.2747 109.341 14.704 109.575 15.012C109.808 15.32 110.079 15.474 110.387 15.474C110.564 15.474 110.732 15.39 110.891 15.222C111.049 15.054 111.199 14.83 111.339 14.55C111.479 14.27 111.605 13.9667 111.717 13.64C111.838 13.304 111.941 12.982 112.025 12.674L113.131 13.976C112.832 14.7693 112.533 15.404 112.235 15.88C111.945 16.3467 111.647 16.6827 111.339 16.888C111.031 17.0933 110.704 17.196 110.359 17.196C109.892 17.196 109.444 17.0373 109.015 16.72C108.595 16.3933 108.231 15.8613 107.923 15.124C107.615 14.3867 107.395 13.402 107.265 12.17C107.218 11.7593 107.181 11.316 107.153 10.84C107.134 10.364 107.12 9.91133 107.111 9.482C107.111 9.05267 107.111 8.698 107.111 8.418C107.111 8.24067 107.101 8.026 107.083 7.774C107.073 7.51267 107.045 7.28867 106.999 7.102L108.707 7.13ZM115.875 7.48C116.127 7.80667 116.369 8.18933 116.603 8.628C116.845 9.05733 117.065 9.524 117.261 10.028C117.457 10.532 117.629 11.0453 117.779 11.568C117.937 12.0907 118.068 12.6087 118.171 13.122C118.273 13.6353 118.343 14.1207 118.381 14.578L116.939 15.138C116.883 14.5313 116.789 13.8967 116.659 13.234C116.528 12.5713 116.36 11.918 116.155 11.274C115.949 10.6207 115.707 10.0093 115.427 9.44C115.156 8.86133 114.843 8.362 114.489 7.942L115.875 7.48ZM120.323 7.55C120.593 7.54067 120.845 7.53133 121.079 7.522C121.312 7.50333 121.494 7.48933 121.625 7.48C121.877 7.46133 122.213 7.43333 122.633 7.396C123.062 7.34933 123.547 7.30267 124.089 7.256C124.63 7.2 125.209 7.14867 125.825 7.102C126.441 7.046 127.071 6.99 127.715 6.934C128.219 6.88733 128.704 6.85 129.171 6.822C129.637 6.78467 130.076 6.75667 130.487 6.738C130.897 6.71 131.261 6.69133 131.579 6.682V8.096C131.327 8.096 131.033 8.10067 130.697 8.11C130.37 8.11933 130.043 8.138 129.717 8.166C129.39 8.194 129.105 8.24067 128.863 8.306C128.396 8.446 127.971 8.66533 127.589 8.964C127.206 9.26267 126.879 9.608 126.609 10C126.338 10.392 126.128 10.8073 125.979 11.246C125.829 11.6753 125.755 12.1 125.755 12.52C125.755 13.024 125.843 13.4673 126.021 13.85C126.198 14.2327 126.441 14.5593 126.749 14.83C127.057 15.0913 127.407 15.3107 127.799 15.488C128.2 15.656 128.625 15.782 129.073 15.866C129.53 15.95 129.992 16.0013 130.459 16.02L129.941 17.504C129.39 17.4853 128.844 17.406 128.303 17.266C127.771 17.126 127.262 16.9347 126.777 16.692C126.301 16.44 125.876 16.132 125.503 15.768C125.139 15.3947 124.849 14.9653 124.635 14.48C124.429 13.9947 124.327 13.4393 124.327 12.814C124.327 12.114 124.443 11.4653 124.677 10.868C124.919 10.2707 125.223 9.75267 125.587 9.314C125.96 8.866 126.333 8.516 126.707 8.264C126.427 8.30133 126.081 8.34333 125.671 8.39C125.26 8.42733 124.817 8.474 124.341 8.53C123.874 8.57667 123.403 8.63267 122.927 8.698C122.451 8.754 121.998 8.81467 121.569 8.88C121.149 8.94533 120.785 9.01533 120.477 9.09L120.323 7.55ZM139.155 5.898C139.109 6.11267 139.067 6.30867 139.029 6.486C139.001 6.66333 138.973 6.836 138.945 7.004C138.917 7.23733 138.875 7.54533 138.819 7.928C138.773 8.30133 138.717 8.72133 138.651 9.188C138.586 9.65467 138.525 10.1353 138.469 10.63C138.413 11.1247 138.357 11.61 138.301 12.086C138.245 12.5527 138.203 12.982 138.175 13.374C138.147 13.7567 138.133 14.0693 138.133 14.312C138.133 14.9467 138.315 15.4413 138.679 15.796C139.053 16.1507 139.617 16.328 140.373 16.328C141.055 16.328 141.638 16.2347 142.123 16.048C142.618 15.8613 142.996 15.6 143.257 15.264C143.519 14.928 143.649 14.5407 143.649 14.102C143.649 13.626 143.523 13.15 143.271 12.674C143.029 12.198 142.66 11.7407 142.165 11.302L143.719 10.98C144.186 11.5307 144.536 12.0673 144.769 12.59C145.003 13.1033 145.119 13.6633 145.119 14.27C145.119 14.9607 144.919 15.5673 144.517 16.09C144.125 16.6127 143.575 17.0187 142.865 17.308C142.156 17.5973 141.316 17.742 140.345 17.742C139.664 17.742 139.053 17.6347 138.511 17.42C137.97 17.2053 137.541 16.8647 137.223 16.398C136.915 15.9313 136.761 15.3107 136.761 14.536C136.761 14.2467 136.785 13.8593 136.831 13.374C136.878 12.8887 136.934 12.3567 136.999 11.778C137.074 11.1993 137.149 10.6113 137.223 10.014C137.307 9.40733 137.377 8.838 137.433 8.306C137.499 7.76467 137.545 7.30267 137.573 6.92C137.601 6.64 137.615 6.42067 137.615 6.262C137.615 6.10333 137.606 5.954 137.587 5.814L139.155 5.898ZM134.451 7.704C134.853 7.83467 135.296 7.942 135.781 8.026C136.267 8.11 136.761 8.17533 137.265 8.222C137.769 8.25933 138.241 8.278 138.679 8.278C139.221 8.278 139.729 8.264 140.205 8.236C140.681 8.19867 141.111 8.152 141.493 8.096L141.451 9.412C141.013 9.44933 140.579 9.482 140.149 9.51C139.72 9.538 139.216 9.552 138.637 9.552C138.208 9.552 137.741 9.52867 137.237 9.482C136.743 9.43533 136.248 9.37 135.753 9.286C135.259 9.19267 134.801 9.09467 134.381 8.992L134.451 7.704ZM134.129 11.19C134.605 11.3487 135.095 11.4747 135.599 11.568C136.103 11.6613 136.603 11.7267 137.097 11.764C137.601 11.792 138.077 11.806 138.525 11.806C138.983 11.806 139.454 11.792 139.939 11.764C140.434 11.736 140.919 11.694 141.395 11.638L141.353 12.954C140.924 13.0007 140.495 13.038 140.065 13.066C139.636 13.0847 139.193 13.094 138.735 13.094C137.895 13.094 137.065 13.0473 136.243 12.954C135.422 12.8513 134.694 12.7113 134.059 12.534L134.129 11.19ZM153.155 5.562H154.653C154.635 5.94467 154.602 6.43933 154.555 7.046C154.509 7.65267 154.42 8.334 154.289 9.09C154.168 9.83667 153.981 10.616 153.729 11.428C153.477 12.24 153.132 13.052 152.693 13.864C152.255 14.6667 151.699 15.432 151.027 16.16C150.355 16.8787 149.539 17.5133 148.577 18.064C148.456 17.8867 148.297 17.7047 148.101 17.518C147.905 17.3313 147.695 17.1633 147.471 17.014C148.423 16.51 149.221 15.9267 149.865 15.264C150.509 14.592 151.037 13.8827 151.447 13.136C151.858 12.38 152.175 11.624 152.399 10.868C152.633 10.1027 152.801 9.37467 152.903 8.684C153.006 7.99333 153.071 7.37733 153.099 6.836C153.127 6.29467 153.146 5.87 153.155 5.562ZM154.597 5.884C154.607 6.052 154.625 6.332 154.653 6.724C154.691 7.10667 154.751 7.56867 154.835 8.11C154.929 8.65133 155.064 9.23933 155.241 9.874C155.419 10.5087 155.652 11.162 155.941 11.834C156.231 12.4967 156.595 13.15 157.033 13.794C157.472 14.4287 157.995 15.0167 158.601 15.558C159.217 16.09 159.941 16.5473 160.771 16.93C160.566 17.0887 160.37 17.2707 160.183 17.476C160.006 17.6813 159.861 17.8727 159.749 18.05C158.9 17.6393 158.153 17.14 157.509 16.552C156.875 15.964 156.329 15.3247 155.871 14.634C155.423 13.9433 155.045 13.2387 154.737 12.52C154.439 11.8013 154.196 11.0967 154.009 10.406C153.832 9.71533 153.697 9.076 153.603 8.488C153.51 7.89067 153.445 7.37733 153.407 6.948C153.37 6.51867 153.342 6.206 153.323 6.01L154.597 5.884ZM166.035 5.898C166.353 5.99133 166.759 6.094 167.253 6.206C167.748 6.318 168.266 6.43 168.807 6.542C169.349 6.64467 169.862 6.738 170.347 6.822C170.833 6.89667 171.229 6.948 171.537 6.976L171.215 8.334C170.935 8.29667 170.604 8.24533 170.221 8.18C169.839 8.10533 169.428 8.026 168.989 7.942C168.551 7.858 168.117 7.774 167.687 7.69C167.267 7.606 166.885 7.522 166.539 7.438C166.194 7.354 165.909 7.284 165.685 7.228L166.035 5.898ZM165.909 8.558C165.863 8.77267 165.811 9.04333 165.755 9.37C165.709 9.69667 165.657 10.0373 165.601 10.392C165.555 10.7467 165.508 11.0873 165.461 11.414C165.415 11.7313 165.377 11.9973 165.349 12.212C166.003 11.68 166.693 11.288 167.421 11.036C168.159 10.784 168.924 10.658 169.717 10.658C170.483 10.658 171.141 10.798 171.691 11.078C172.242 11.3487 172.667 11.7173 172.965 12.184C173.273 12.6413 173.427 13.15 173.427 13.71C173.427 14.3353 173.287 14.914 173.007 15.446C172.727 15.9687 172.284 16.412 171.677 16.776C171.071 17.1307 170.282 17.3827 169.311 17.532C168.35 17.6813 167.188 17.7 165.825 17.588L165.405 16.146C166.843 16.3233 168.042 16.328 169.003 16.16C169.974 15.992 170.702 15.6933 171.187 15.264C171.673 14.8253 171.915 14.298 171.915 13.682C171.915 13.3367 171.813 13.0333 171.607 12.772C171.411 12.5013 171.141 12.2913 170.795 12.142C170.45 11.9833 170.053 11.904 169.605 11.904C168.747 11.904 167.958 12.0627 167.239 12.38C166.53 12.688 165.942 13.122 165.475 13.682C165.354 13.822 165.256 13.9527 165.181 14.074C165.116 14.186 165.055 14.3027 164.999 14.424L163.711 14.116C163.767 13.8547 163.823 13.542 163.879 13.178C163.945 12.8047 164.005 12.408 164.061 11.988C164.117 11.5587 164.169 11.1293 164.215 10.7C164.262 10.2613 164.304 9.84133 164.341 9.44C164.379 9.02933 164.407 8.67 164.425 8.362L165.909 8.558ZM180.595 6.01C180.558 6.262 180.525 6.53267 180.497 6.822C180.469 7.102 180.451 7.368 180.441 7.62C180.423 8.00267 180.404 8.47867 180.385 9.048C180.367 9.608 180.348 10.2053 180.329 10.84C180.311 11.4653 180.297 12.086 180.287 12.702C180.278 13.3087 180.273 13.8547 180.273 14.34C180.273 14.8347 180.362 15.2267 180.539 15.516C180.726 15.8053 180.983 16.0153 181.309 16.146C181.636 16.2673 182 16.328 182.401 16.328C183.017 16.328 183.573 16.2487 184.067 16.09C184.562 15.9313 185.005 15.7167 185.397 15.446C185.799 15.1753 186.158 14.8673 186.475 14.522C186.793 14.1767 187.077 13.8173 187.329 13.444L188.323 14.662C188.09 14.998 187.796 15.348 187.441 15.712C187.087 16.076 186.662 16.4167 186.167 16.734C185.682 17.0513 185.122 17.308 184.487 17.504C183.862 17.7 183.157 17.798 182.373 17.798C181.664 17.798 181.043 17.6907 180.511 17.476C179.979 17.2613 179.564 16.916 179.265 16.44C178.967 15.964 178.817 15.3387 178.817 14.564C178.817 14.1627 178.822 13.71 178.831 13.206C178.841 12.702 178.85 12.184 178.859 11.652C178.878 11.1107 178.892 10.5833 178.901 10.07C178.92 9.55667 178.934 9.08533 178.943 8.656C178.953 8.22667 178.957 7.88133 178.957 7.62C178.957 7.32133 178.943 7.03667 178.915 6.766C178.897 6.486 178.859 6.22933 178.803 5.996L180.595 6.01ZM199.957 6.78C199.78 6.91067 199.589 7.06 199.383 7.228C199.187 7.38667 199.019 7.52667 198.879 7.648C198.646 7.844 198.361 8.07733 198.025 8.348C197.689 8.61867 197.335 8.90333 196.961 9.202C196.597 9.50067 196.243 9.79 195.897 10.07C195.552 10.3407 195.258 10.5833 195.015 10.798C194.754 11.022 194.577 11.2087 194.483 11.358C194.39 11.5073 194.39 11.6567 194.483 11.806C194.586 11.946 194.773 12.1373 195.043 12.38C195.286 12.576 195.571 12.8093 195.897 13.08C196.233 13.3507 196.588 13.6447 196.961 13.962C197.344 14.27 197.731 14.592 198.123 14.928C198.515 15.264 198.893 15.5953 199.257 15.922C199.621 16.2487 199.948 16.5567 200.237 16.846L198.963 18.008C198.627 17.6253 198.273 17.2473 197.899 16.874C197.666 16.6313 197.372 16.3467 197.017 16.02C196.663 15.6933 196.28 15.3527 195.869 14.998C195.468 14.6433 195.067 14.298 194.665 13.962C194.264 13.6167 193.9 13.3087 193.573 13.038C193.125 12.6553 192.836 12.3147 192.705 12.016C192.575 11.7173 192.593 11.4187 192.761 11.12C192.939 10.8213 193.247 10.49 193.685 10.126C193.956 9.902 194.273 9.64533 194.637 9.356C195.001 9.05733 195.375 8.74467 195.757 8.418C196.149 8.09133 196.518 7.77867 196.863 7.48C197.218 7.172 197.512 6.90133 197.745 6.668C197.913 6.5 198.086 6.32267 198.263 6.136C198.441 5.94 198.571 5.76733 198.655 5.618L199.957 6.78Z" fill="#005230"/>
</svg>
